<svg version="1" xmlns="http://www.w3.org/2000/svg" width="933.333" height="933.333" viewBox="0 0 700.000000 700.000000"><path d="M341.9 1.3c-14.2 5.3-26.3 21-38.2 49.7-4.6 11.1-10.9 30.8-14.2 44-1.4 5.8-2.8 11.3-3.1 12.3-.5 1.5-.1 1.7 2.3 1.3 1.5-.3 6.4-.8 10.8-1.2 4.4-.3 11.4-1 15.5-1.4 8.1-.8 68.9-.5 73 .3 1.4.3 6.1.8 10.5 1.2 4.4.3 9.5.8 11.3 1 2.8.3 3.2.1 2.8-1.3-.3-.9-1.7-6.2-3.1-11.7-12.7-48.9-31.3-83.9-48.9-92.5-5.7-2.7-13.9-3.5-18.7-1.7zM309 3c-21.9 6.1-41.8 16.1-60.8 30.5-22.7 17.3-40.3 35.9-57.7 61-6 8.7-19.5 30.7-19.5 31.8 0 .4-1.3 2.9-3 5.7-1.6 2.7-2.6 5-2.1 5s6-1.8 12.3-4c25.2-9 55.5-16.7 85.3-21.7 1.7-.3 3.7-.7 4.5-.8.8-.2 2-.4 2.6-.4.7-.1 2.2-4.3 3.4-9.4 9.4-38.4 23.4-72.6 37.6-91.4 3.5-4.6 5.7-8.3 5.1-8.2-.7 0-4.1.9-7.7 1.9zM382.5 3.1c.4.8 1.6 2.3 2.5 3.4 10.5 12.1 22.7 38 31.7 67 4 13 9.3 33.3 9.3 35.6 0 1.6.7 1.8 11.5 3.4 5.8.9 32 6.3 38.5 7.9 3 .8 8.2 2.1 11.5 3 3.3.8 9.6 2.7 13.9 4.1 4.3 1.4 8.5 2.5 9.2 2.5 1.4 0 10.4-10.7 10.4-12.4 0-1.3-9.8-17.2-16.4-26.6C475.2 49.1 438 19.5 398.8 6.6c-13.6-4.5-17.3-5.2-16.3-3.5zM242.5 17.1C176.6 38.3 116 80.8 73.4 135.6c-8 10.3-10 13.2-19 26.9-8.8 13.3-20.5 35.4-26.9 50.9-1.9 4.7-3.5 8.7-3.5 8.9 0 .2 4.5-1.2 10-3.2 9.1-3.3 10.6-4.2 17.2-10.6 6.7-6.4 11.5-10.7 17.9-16 16.2-13.4 43.3-30.2 67.6-41.9l10-4.9 4.9-10.1c11.2-23.4 22.3-41.4 38.7-63.1 13.7-18.1 36-39.9 53.2-52 7-4.9 9.3-6.6 8.5-6.4-.3.1-4.5 1.4-9.5 3zM447 14.4c0 .2 2.6 2 5.8 4.1 19.2 12.7 45.5 39 61.7 61.7 1.3 1.8 4.9 7.2 8.1 12 3.1 4.9 6 8.8 6.4 8.8 1.5 0 7.1-24 8.6-37 .3-3 .8-5.7 1-6 .5-1-.9-2.4-5.1-5.1-19.9-13-49.9-27.2-74.8-35.4-10.9-3.6-11.7-3.8-11.7-3.1z"/><path d="M552.6 67.2c-.2 1.3-1.4 7.3-2.5 13.5-6.1 33.1-20.1 57.1-41.1 70.8-11.9 7.8-24.6 12.5-47.2 17.5-27.9 6.2-34.8 8.6-59.3 20.6-6.6 3.3-15.8 7.4-20.5 9.3-14.8 5.9-17.6 8.2-34.9 27.6-5.8 6.6-12.3 13.8-14.3 16-2.1 2.2-3.8 4.6-3.8 5.3 0 .8 1.5 2.9 3.4 4.8 5.8 5.8 10.8 4.4 23.2-6.5 7.4-6.6 10.2-8.7 21.4-16.1 12.7-8.4 32.9-13.3 48.6-11.8 25.5 2.5 49.9 20.9 61.5 46.4 10.7 23.6 7.8 57-8 91.7-1.2 2.5-2.1 5-2.1 5.6 0 .5 2 1.9 4.5 3.1 5.6 2.7 11.1 9 12 13.8l.7 3.7 2.1-2.6c1.2-1.5 3.1-3.7 4.2-5 10-12.1 23.3-32.2 29.6-44.9 6.4-13 14.6-37.2 17.4-52.1 3.1-15.8 17.8-57 31-86.9 4.5-10.3 15.3-32.1 21.2-43 1.7-3 5.6-10.4 8.8-16.3l5.7-10.8-2.3-2.7c-5.6-6.4-29.9-30.3-35.9-35.4-3.6-3-10.2-8.2-14.7-11.7-7.8-5.8-8.3-6-8.7-3.9z"/><path d="M322.9 118.4c-.2.2-5.1.6-10.9 1-16 .9-27.5 2.2-29 3.1-.4.3-1 1.9-1.3 3.7-.2 1.8-2.1 12.2-4.1 23.2-2 10.9-3.6 20.7-3.6 21.7 0 1.5.8 1.9 3.3 1.9 1.7 0 5 .5 7.2 1s5.5 1.1 7.2 1.5c4.8.8 19.1 5.4 24.3 7.8 9.6 4.4 20.2 11.8 27.3 18.9 1.5 1.5 3.1 2.8 3.5 2.8.4 0 3.1-2.3 5.9-5 6.3-5.8 11-8.7 22.9-13.9 4.9-2.1 13.9-6.2 19.9-9.1 6.1-2.9 14.6-6.8 19-8.7 4.4-1.9 8.3-3.7 8.7-4.1.4-.4-.2-5.4-1.2-11.2-1.1-5.8-2.2-11.9-2.4-13.5-1.2-6.6-3.5-16.7-4-17.3-.4-.3-1.6-.6-2.9-.7-4.4-.3-19.3-1.8-22.2-2.2-3.9-.5-67.1-1.4-67.6-.9zM259 126.1c-4.7 1-10.5 2.1-12.9 2.5-7.1 1-34.3 8.1-48.5 12.6-15.5 4.8-38.6 13.6-40.3 15.2-.6.6-3.3 6.6-6 13.3l-5 12.2 11.9-6.2 11.9-6.2 15.7.1c8.6 0 21.8.3 29.2.7 7.4.4 20.6.9 29.2 1.3l15.7.5.5-2.3c.3-1.3 1-5.7 1.6-9.8 1.7-11.4 2.1-13.5 3.5-20 1.8-8.5 3-16.1 2.4-15.9-.2.1-4.2 1-8.9 2zM430.4 125.9c.2.9.7 3.2 1 5.1.3 1.9.8 4.4 1 5.6.2 1.1 1.2 6.7 2.1 12.5 1 5.7 1.8 10.5 1.9 10.6.1.1 4-.7 8.7-1.8 4.6-1.1 9.3-2.2 10.4-2.5 1.1-.2 4.3-.8 7.1-1.4 2.8-.6 6.2-1.3 7.6-1.5 9-1.7 28.8-9.6 28.8-11.5 0-.6-21.6-6.9-28.9-8.5-1.2-.3-2.9-.7-3.8-.9-4.4-1-21.1-4.6-23.8-5-1.6-.3-5.2-1-7.8-1.5-4.2-.7-4.7-.6-4.3.8zM622.3 134.3c-1.1 1.3-1.4 1.9-12.2 23.3l-7.6 15.2 8.2 5.7c29.1 20.2 54 44.8 71.5 70.5 1.1 1.7.6-1-1.6-8-9.3-29.9-26.2-64.2-45-91-10.3-14.8-12.3-17.1-13.3-15.7zM125.7 171.2c-6 3.2-16.6 9.6-23.6 14.3C89.6 193.7 71 208 72.5 208c1.6 0 29.2-8 37.5-10.8 19.9-6.9 19.6-6.7 21.1-12 .7-2.6 2.5-8 4-12 1.5-3.9 2.4-7.4 2.1-7.5-.4-.2-5.6 2.3-11.5 5.5zM173.2 186c-2.6.9-9 4-14.2 6.8-17.4 9.3-38.9 17-74.1 26.6-3 .8-9.7 2.6-14.9 4.1-17.9 4.8-48.9 16-52.8 19-1.2 1-10.3 37.1-11.8 47.3-1.1 7.3-1.3 8.8-1.9 13.2-1.1 8.1-1.4 11.4-2.1 19.5-.8 8.9-1.2 40.1-.6 42.7.4 1.5.6 1.5 2.5-.2 2.2-1.9 13.6-10.9 34.8-27.6 16.6-13.2 23.6-16.2 38.4-16.8 21.2-.8 47.6 10.8 72 31.6 17.6 15 47.1 38 58 45.2 15.8 10.5 24.4 18.7 33.3 31.6 6.6 9.7 8.8 10.7 14.8 6.9 7-4.3 9-11.1 5.9-20-2.1-5.8-6.2-10.9-21.3-26.4-34.7-35.7-42.4-47.1-48.9-73-1.4-5.5-1.2-26.3.3-33 6.2-27.7 28.6-51.6 57-60.9 7.7-2.5 9-2.7 21.4-3.3 17.5-.8 30.2 2.6 44.4 11.9 3.2 2.1 6.2 3.5 6.7 3.2.8-.5 6.8-6.8 13.3-13.8 1.4-1.6 2.6-3.3 2.6-3.7 0-1.3-7.8-8.7-12.8-12.1-6.2-4.3-16.7-9.3-24.6-11.7-7.2-2.2-9.1-2.6-16.5-3.7-2.5-.3-5.6-.7-6.7-.9-4.3-.7-21.4-1.6-37.9-2-9.3-.2-21.9-.7-28-1.1-22.6-1.3-31.3-1.2-36.3.6zM596 185.9c0 .5-1.7 4.7-3.9 9.3-2.1 4.6-5.1 11.4-6.5 15.3-1.5 3.8-3.5 8.6-4.3 10.5-1.9 4.1-1.9 3.3.2 14 .9 4.7 1.8 8.9 1.9 9.5.1.5 1.1 6.5 2.1 13.3 2 12.9 2.4 13.6 7.7 14.6 3.8.6 20.1 5.1 30.9 8.5 28.9 8.9 55.3 21.7 68.8 33.3 1.8 1.6 3.5 2.8 3.7 2.5.2-.2-.7-4.3-2.1-9.3-11.7-42.4-40.9-81.4-85-113.4-11.5-8.3-13.5-9.5-13.5-8.1zM567.8 257.5c-1.5 4.4-2.3 8.3-2 8.6.4.4 2.4 1 4.5 1.3l3.7.7-.6-4.3c-.4-2.4-1.3-6.6-1.9-9.3l-1.2-5-2.5 8zM558.6 291.2c-8.8 37.1-25.2 66.4-60.1 107.4-3.3 3.9-7.8 9.2-10 11.8-3.7 4.5-9.4 15.5-9.5 18.4 0 .8.7 1.1 1.8.8.9-.3 4.9-.8 8.7-1.1 3.9-.3 8.1-.7 9.5-.9 1.4-.3 4.8-.7 7.5-1.1 7.2-.9 24.5-3.3 28-3.9 22.3-3.9 40.6-7.4 41.1-7.8.4-.5 2.2-15.9 3.1-26.8 1.6-19.6.8-79.5-1.2-93.5-.2-1.7-.7-5.2-1-8-.4-2.7-.7-5-.8-5.1-.2-.2-5.5-1.2-10.7-2l-3.5-.6-2.9 12.4zM589.5 292.7c.4 3.8.8 7.9 1.1 9.3 2.2 13.7 2.2 80.2 0 94-.2 1.4-.7 5.6-1 9.4l-.6 6.9 3.2-.7c5.5-1.2 6-1.3 15.7-4.1 23-6.5 40.6-13.1 55.4-20.8 12-6.3 17.2-10 23.7-16.6 25.9-26.2 2.6-53.8-63.5-75.1-9.6-3.1-31.7-9-33.7-9-.5 0-.7 2.7-.3 6.7z"/><path d="M70.1 335.2c-7.1 1.1-12 3.6-21.1 10.9-4.1 3.3-9 7.3-10.9 8.7-1.8 1.5-4.1 3.4-5.1 4.2l-10 8-8.1 6.4 2.3 1.9C30 385.4 55.3 397 81.5 404.7c9.7 2.8 11.1 3.2 17.5 4.8 3.6.8 7.3 1.8 8.3 2.1 1.7.5 1.8 0 1.2-6.3-.4-3.7-.8-7-1-7.3-.5-.8-1.8-30.7-1.9-44.4l-.1-13-3.4-1.3c-9.5-3.9-22.6-5.6-32-4.1zM118.6 356.8c.6 17.6 1.4 32.8 1.8 34.7.2 1.1.7 6.7 1.1 12.5.4 5.8.8 10.7 1 10.8.3.3 5.8 1.7 10.8 2.7 2.2.5 24.5 4.2 30.1 5.1 2.1.3 4.8.8 6 1 2.8.5 31.7 4.2 38.6 4.9 3 .3 7.7.8 10.3 1.1 4.5.5 4.8.4 3.8-1.3-1.9-3.7-10.2-10.4-24.3-19.7-18-11.8-20-13.4-45.9-34.6-18.4-15.1-27.8-22.4-32.5-25.3-.8-.4-1 2-.8 8.1zM462 378.1c-4.3 4.6-11.4 16.5-23 38.9-6.4 12.4-17.3 32.6-24.2 45-6.8 12.4-16 29-20.4 36.9-8.8 16-12.1 20.2-17.9 22.7-8 3.4-24.7 1.4-29.4-3.6-4.7-4.8-12.4-13.3-21.6-23.5-4.9-5.5-9.2-10.2-9.5-10.5-.3-.3-2.5-2.8-5-5.5-4.6-5.2-19.8-21.6-31.3-34l-6.5-6.9-5.1 4.7c-2.8 2.6-7.1 5.6-9.6 6.7-2.5 1.1-4.5 2.2-4.5 2.6 0 .3 1.5 2.7 3.3 5.3 1.9 2.5 13.9 20.3 26.8 39.6 12.9 19.2 23.6 35.2 23.9 35.5 1.6 1.5 16.1 24.3 18.3 28.6 2.8 5.6 6.3 16 7.2 21.4 4 24.6 6 31.1 20.7 65.5 4.9 11.6 11.5 27.1 14.5 34.5 5.1 12.5 6.8 15.4 8.3 14.5.3-.2 3.3-.6 6.5-1 12.5-1.3 19.8-2.3 24-3.2 1.1-.2 4.5-.8 7.6-1.3 8.4-1.5 25.1-5.7 37.5-9.5 9.7-3.1 11-3.7 11-5.7.1-1.3.4-6.6.8-11.8.3-5.2.9-13.3 1.2-18 .8-13.9 2.3-23.7 6-39.5 4.3-18.1 4.8-21.7 4.8-32-.1-12.5-1.7-17.7-7.5-23.4-9.3-9.2-22.8-16.8-35.8-19.9-3.9-.9-7.1-2.2-7.1-2.7 0-4.2 18.7-53.9 39.1-103.5 8.2-20.1 11.7-29.8 12.9-35.5 1.4-6.7-2.7-11.9-10.3-13.2-2.7-.4-3.9-.1-5.7 1.8zM2.4 383.5c-1.4 3.7 10 32.3 19.1 48 12.4 21.3 34 45.5 57 63.9 11.3 9.2 31.5 22.9 42 28.6 3.3 1.8 8.4 4.5 11.3 6.1 2.9 1.6 5.4 2.9 5.7 2.9.2 0-1.4-5.1-3.6-11.3-8.5-23.7-16.8-55.2-20.9-79.7-1.3-7.4-2.8-14-3.4-14.6-.9-.9-11.8-4.1-20.1-5.9-4.1-.9-27.3-8.4-35.5-11.4-17.6-6.6-35.3-16.2-48.2-26.2-2.5-1.8-2.9-1.9-3.4-.4zM691.8 384.8c-16.8 14.6-59.8 32.7-94.8 40-8.3 1.7-8.5 1.8-9.7 5.3-.6 1.9-1.4 5.9-1.8 8.8-.4 3-.9 6.3-1.1 7.5-.2 1.2-.7 3.4-1 5.1-.3 1.6-1.6 7.9-3 14-1.4 6-2.7 12-3 13.2-.9 4.8-9.5 32.5-13.3 43-4.6 12.9-5.3 12.5 9.4 4.5 54.9-30 96.8-73 114.5-117.7 4.6-11.5 8.9-26.5 7.5-26.5-.2 0-1.9 1.3-3.7 2.8zM125 430.7c0 .4.6 4.2 1.4 8.3.8 4.1 1.7 8.8 2 10.4 2.7 14.7 8.4 37 13.6 53.1 3.9 12.1 12.1 34.1 13.9 37.5 1.6 3 35.7 15.4 61.6 22.4 12.6 3.4 34.1 8.1 41.4 9.2 2 .3 4.9.7 6.4 1 2.8.6 2.8.5 2.3-2.8-.3-1.8-.8-4.4-1.1-5.8-.8-3.9-6.4-37.1-6.9-41.5-.9-7.1-1.5-11.7-2.1-15.5-.3-2-.7-5.9-.9-8.6-1.3-15-1.9-20.1-2.9-21.9-.5-1.1-5.3-8.6-10.4-16.8-7.3-11.2-10-14.7-11.7-14.8-1.1 0-3-.2-4.1-.4-1.1-.2-6.9-.8-13-1.4-11.6-1.2-16.8-1.8-22.5-2.7-1.9-.2-5.3-.6-7.5-.9-3.5-.3-20.2-2.8-27.5-4-12.1-2-21.5-3.7-22-4-1.3-.8-10-1.5-10-.8z"/><path d="M569.7 430.6c-.1.2-1.8.6-3.7.9-1.9.3-6.6 1.2-10.5 2-3.8.8-9.2 1.7-12 2.1-2.7.3-5.9.8-7 1-8.2 1.6-12 2.2-22 3.4-4.9.6-10.5 1.3-12.2 1.6-8 1.1-10.2 1.3-17.3 2-4.1.4-8.2.8-9 1-.8.1-2.1.3-2.8.3-.7.1-1.5.9-1.9 1.8-.3 1-4.4 11.5-9 23.3-10.5 26.9-18.3 47.6-18.3 48.7 0 .4 3.8 2.5 8.4 4.6 19.9 9.1 32.2 20.5 36.5 33.8l1.2 3.7 17.4-5.9c9.6-3.2 21.3-7.4 25.9-9.4 8.1-3.5 8.4-3.8 10.1-8.3.9-2.6 2.1-5.6 2.5-6.7 5.1-11.4 12.5-34.1 17.5-53.9 3.1-11.7 9.5-42.4 9.5-45.2 0-.9-2.5-1.5-3.3-.8zM679.5 452.9c-5.9 8.7-21.2 26.6-30.2 35.1-24.2 23.1-53 42.6-86.4 58.7l-10.6 5-7.4 14.9c-4 8.1-8.3 16.2-9.4 17.9-1.1 1.7-2.9 4.6-3.9 6.5-9.1 16.2-27.9 41.3-42.8 57.2-5.1 5.5-9.3 10.8-9.4 12-.2 1.3-.5 4.7-.8 7.5l-.4 5.3 3.1-1.4c1.8-.7 6.1-2.6 9.7-4.1 35.9-15.2 73-40.7 104.1-71.5 35.9-35.6 61.6-74.6 79.6-120.5 3.7-9.3 10.3-29.5 9.8-29.5-.2 0-2.5 3.1-5 6.9zM15 447.3c0 .3 1.5 5.2 3.4 10.9 11 33.7 28.5 67.6 50 96.8 3.8 5.2 7.2 9.7 7.6 10 .3.3 1.6 1.8 2.9 3.5 9.2 12 32.1 35.4 46.1 47.1 35 29.2 75.5 51.6 116.8 64.9 5.6 1.8 10.2 3.2 10.2 3 0-.1-3.1-2.2-6.8-4.7-13.1-8.7-33.6-27.5-45-41.3-3.7-4.4-6.9-8.2-7.3-8.5-1.4-1.2-14.9-20.1-19.8-27.8-7.4-11.7-15.9-26.8-21.9-39.2l-5.2-10.5-13.7-6.7c-15.8-7.7-21.5-10.8-32.8-18-8.7-5.6-28.4-19.5-30-21.2-.5-.6-4.8-4.3-9.5-8.3-9.2-7.7-20.7-19.3-28.5-28.8-2.8-3.3-5.3-6.2-5.6-6.5-.3-.3-2.7-3.7-5.3-7.5-5.2-7.6-5.6-8.1-5.6-7.2zM271.5 507.9c.4 3 .9 6.3 1.1 7.5.2 1.2.6 4.1.9 6.6.3 2.5.8 5.8 1 7.5.3 1.6.7 4.3 1 6 .7 4.3 4.5 27 4.9 29.2.2 1 .7 3.7 1.1 6 .4 2.4 1 4.5 1.3 4.7.7.4 3.7.8 16.7 2 2.2.2 7 .7 10.8 1.1 3.7.4 6.7.3 6.7-.1 0-1.5-3.4-9.6-6.2-14.9-1.4-2.8-11-17.6-21.3-33l-18.6-28 .6 5.4zM168.1 566.2c4.9 9.8 17.5 30.3 24.7 40.3 25.7 35.7 55.4 61.8 87.5 77 10.3 4.9 25.4 10.3 33.6 12l3.4.7-2.2-2.3c-7.4-7.9-17.2-24.6-24.1-41.3-7.3-17.5-17-48.9-18.5-59.8-.7-5.3-.8-5.5-5.6-6.3-1.9-.3-4.5-.7-5.9-1-2.5-.5-6.7-1.2-12.5-2.1-14.2-2.1-50.6-12-70.1-18.9-7-2.5-12.8-4.5-13-4.5-.3 0 1 2.8 2.7 6.2zM523 563.1c-4.1 1.6-13.2 4.7-20.1 6.9l-12.6 4.1v3.2c0 6.6-1.1 13.6-4.2 28.1-1.2 5.3-2.4 11.3-2.6 13.4-.3 2-.7 4.6-1 5.7-.9 4.2-1.6 11.5-1.2 11.5.6 0 14.7-16.7 17.7-21 1.4-1.9 2.7-3.7 3-4 4.9-4.5 30-46.7 30-50.3 0-1-.7-.8-9 2.4zM286.3 590.6c.3 1.1 1.7 6.4 3.2 11.9 10.3 39.3 24.6 70.5 38.8 84.6 8.6 8.6 17 11.7 26.2 9.7 3.7-.8 4.3-1.2 3.5-2.6-1-2.1-1.5-3.2-13.5-31.7-16.7-39.6-21.4-52.9-23.1-65.8-.4-2.3-.7-4.3-.8-4.4-.2-.2-3.9-.5-8.4-.8-8.1-.5-11.9-.8-21.6-2.1-4.4-.6-4.8-.4-4.3 1.2z"/></svg>