<svg data-name="Ebene 1" xmlns="http://www.w3.org/2000/svg" viewBox="0 0 500 500"><title>hc_icons</title><circle cx="250" cy="55.6" r="35.6" fill="#757575"/><circle cx="250" cy="444.4" r="35.6" fill="#757575"/><path d="M480 250a35.6 35.6 0 1 1-35.6-35.6A35.6 35.6 0 0 1 480 250" fill="#757575"/><circle cx="55.6" cy="250" r="35.6" fill="#757575"/><circle cx="387.4" cy="112.6" r="35.6" fill="#757575"/><circle cx="112.6" cy="387.5" r="35.6" fill="#757575"/><circle cx="387.4" cy="387.5" r="35.6" fill="#757575"/><circle cx="112.5" cy="112.6" r="35.6" fill="#757575"/><circle cx="250" cy="250" r="35.6" fill="#757575"/><path fill="#757575" d="M230 105h40v80h-40zM230 315h40v80h-40zM105 270v-40h80v40zM315 270v-40h80v40zM133.4 161.6l28.3-28.3 56.5 56.6L190 218zM281.8 310.2L310 282l56.7 56.5-28.3 28.2zM161.6 366.7l-28.3-28.3 56.5-56.6L218 310zM310 218L282 190l56.6-56.5 28.3 28.3z"/></svg>