<svg data-name="Ebene 1" xmlns="http://www.w3.org/2000/svg" viewBox="0 0 500 500"><title>hc_icons</title><path d="M263.7 129c23-32.5 157-108 157-108s-1 32.5 13 147.6C445.6 269 418 320 322 398.4c0 0 45.4-62.4 9.3-155 0 0 49.2-35.3 53-107.3-27.8 49-67.3 73.4-67.3 73.4-12.3-27.4-42.5-57-53.5-80.4z" fill="#757575"/><path d="M303.8 279.8c-8.6-41-36.8-85-62-120.6-21.2-29.7-49-94.8-50-125C184 56 169 65 146 100c-38.8 59.6-72.8 121.5-81 183-5.8 41.8 8 87 55.5 137.5 21 23 55.3 41.4 71.7 53.4-16.3-23-43-60.5-47-107.7-5.3-51 3.3-93.7 16-119 12.2-24.4 27.4-33.5 28.6-35.2h-6s7 0 7 0c-1.5 4.7-20 77-11 150.8 3 45.4 27 88.6 36.3 116.2 9.3-29 43.3-48 59.3-70.4 26.7-37.3 38.2-83 28.5-128.8z" fill="#757575"/></svg>