<svg data-name="Ebene 1" xmlns="http://www.w3.org/2000/svg" viewBox="0 0 500 500"><title>hc_icons</title><path d="M20 435.3V480h44.7a52.6 52.6 0 0 1 92.8-.7 52.6 52.6 0 0 1 92.5 0 52.6 52.6 0 0 1 92.5 0 52.6 52.6 0 0 1 92.7.7H480v-44.7a52.6 52.6 0 0 1-.7-92.8 52.6 52.6 0 0 1 0-92.5 52.6 52.6 0 0 1 0-92.5A52.6 52.6 0 0 1 480 65V20h-44.7a52.6 52.6 0 0 1-46.6 28.2 52.6 52.6 0 0 1-46.2-27.5 52.6 52.6 0 0 1-46.3 27.5A52.6 52.6 0 0 1 250 20.7a52.6 52.6 0 0 1-46.2 27.5 52.6 52.6 0 0 1-46.3-27.5 52.6 52.6 0 0 1-46.2 27.5A52.6 52.6 0 0 1 64.7 20H20v44.7a52.6 52.6 0 0 1 28.2 46.6 52.6 52.6 0 0 1-27.5 46.2 52.6 52.6 0 0 1 27.5 46.3A52.6 52.6 0 0 1 20.7 250a52.6 52.6 0 0 1 27.5 46.2 52.6 52.6 0 0 1-27.5 46.3 52.6 52.6 0 0 1 27.5 46.2A52.6 52.6 0 0 1 20 435.3zm74.3-341h311.4v306.8l-77.4-126.3-52.6 80.6-84-129-97.4 157v-289zM257 162.8a38.7 38.7 0 1 1 38.7 38.8 38.7 38.7 0 0 1-38.8-38.8z" fill="#757575"/></svg>