<svg data-name="Ebene 1" xmlns="http://www.w3.org/2000/svg" viewBox="0 0 500 500"><title>hc_icons</title><path d="M141.7 124s-22.4 37.2 8 55.5 49.3-.5 59.6-17.7l34.4-59s9.2-10 0-22l-28-44s-13-15.5-25 3.4z" fill="#757575"/><path d="M221.4 30.8L282.7 133 257 148s-19 9.2 5 18.4l83.8 25.2s10.3 2.8 15.5-11L386 96.5s7.4-27.5-14.4-13.8c-14.2 9.2-29.6 18-29.6 18l-34.6-62.2s-3-13.2-25.2-12.6-52.2 0-52.2 0-12.6-1.7-8.6 5zM428 240.6s-21.5-37.8-52.4-20.3-23.7 43.3-13.8 60.7l34.6 59s4 12.8 19 10.7l52.3-2.8s19.8-4 9.2-23.5z" fill="#757575"/><path d="M470 355.8L350.8 359l-.3-29.8s1.3-21-18.6-4.5l-63 60.6s-7.7 7.5 1.8 18.8l61.3 63s20.4 20 19-5.8c-1-16.8-1-34.6-1-34.6l71 .3s13 4 23.5-16 25.6-45.3 25.6-45.3 7.8-10.2 0-10zM181 434.8s43.3.7 44-34.8-25.2-42.4-45.2-42.7l-68.4-.3s-13-3-18.8 11l-24.2 46.4s-7 19 15.4 19.8z" fill="#757575"/><path d="M60.4 412.4L118.2 308l25.8 15s17.4 11.8 13.3-13.7l-20-85s-2.7-10.4-17.2-8L35 237s-27.6 7.4-4.7 19.4C45 264 60.6 273 60.6 273L24 334s-10 9.2 1.7 28.3 26 45.2 26 45.2 5 11.7 8.7 5z" fill="#757575"/></svg>