<svg data-name="Ebene 1" xmlns="http://www.w3.org/2000/svg" viewBox="0 0 500 500"><title>hc_icons</title><path d="M38.3 220.2a53 53 0 0 1-16-39q0-22.7 16-39.3t39-16.7q22.7 0 39 16.6t16 39.3a53 53 0 0 1-16 39 53 53 0 0 1-39 16 53 53 0 0 1-39-16zM373 304.4q2.2 2.2 9.3 9.2t9 9.2q2.3 2.2 9.3 9.7t8.7 10.3a97.3 97.3 0 0 0 8 10.2 45.3 45.3 0 0 1 7 10.8c1.5 2.8 4 8.3 5.5 12s4 21.8 4.3 25.3.7 9.2-.5 13.6q-12 45.3-54 54-7.5 1-52.3-4.3t-75-5.4H248q-30.4 0-75 5.3t-52.5 4.3q-42-8.6-54-54-3.3-21.6 7.5-44.3T94 338q9.2-9.8 33-33.5 10.7-12 28.6-33.5t28.6-33.5q19.4-23.7 40-30.2a17.4 17.4 0 0 1 7.5-2.2 120.2 120.2 0 0 1 18.3-1c8.6 0 14.8.4 18.4 1a17.5 17.5 0 0 1 7.5 2.2q20.4 6.5 40 30.3 9.6 12 28 33.4t29 33.4zM142 128a54.7 54.7 0 0 1-16-39.5 53 53 0 0 1 16-39 55 55 0 0 1 77.8 0 53 53 0 0 1 16 39 54.7 54.7 0 0 1-16 39.4q-16 16.5-39 16.5T142 128zm138.2 0a54.7 54.7 0 0 1-16-39.5 53 53 0 0 1 16-39 55 55 0 0 1 77.8 0 53 53 0 0 1 16 39 54.7 54.7 0 0 1-16 39.4q-16 16.5-39 16.5T280.3 128zM384 220a53 53 0 0 1-16.2-39q0-22.7 16-39.3t39-16.7q22.8 0 39 16.6t16 39.3a55 55 0 0 1-94 39z" fill="#757575"/></svg>