<svg data-name="Ebene 1" xmlns="http://www.w3.org/2000/svg" viewBox="0 0 500 500"><title>hc_icons</title><path d="M289.5 90c-2.3 24-21.7 41-44.8 39-22.8-2-40-22-38-44 2.4-24.4 22-41 45.5-38.8 22.2 2 39.3 22.2 37.3 44z" fill="#757575"/><path d="M361.6 330.4L290 272.8l-1.6-76.8 67.8-60.3 10.3-36-34.8-86-36.3 14L321.2 89l-.2 21.7-33.8 34.8s-5.7 3.4-8.6 3.4c-20.5 0-42-.4-62.5-1-2.4 0-5.8-1.2-7.4-3l-30.2-37.3V84.3s21.2-39.2 27.8-51L171 13 132.2 82l1.7 40.5 52 69.2 2 134 2 159.6h46.6L236 302l59 39.2-45 53.7 37 30z" fill="#757575"/></svg>