<svg data-name="Ebene 1" xmlns="http://www.w3.org/2000/svg" viewBox="0 0 500 500"><title>hc_tools</title><path d="M333 78.4v-17h57v17h-57zm57-65.2V45h-57V13a11.7 11.7 0 0 1 3.7-8.5 11.7 11.7 0 0 1 8.5-3.7H378a11.7 11.7 0 0 1 8.4 3.7 11.7 11.7 0 0 1 3.7 8.5zM446 92.7q-14.4-14.2-33-14.2h-23V248l-28.5 32.6L333 248V78.6H87a44.6 44.6 0 0 0-33.4 14.2Q40 107 40 125.5v326q0 18.7 13.6 33a44.5 44.5 0 0 0 33.4 14h326q18.6 0 32.8-14t14.2-33v-326q0-18.6-14-32.8zm-336 91.5h184v40H110v-40zm0 69.5h184v40H110v-40zM390 429H110v-40h280v40zm0-66.7H110v-40h280v40z" fill="#767676"/></svg>