<svg id="new" xmlns="http://www.w3.org/2000/svg" viewBox="0 0 80 80"><title>hc_smilies</title><circle id="_Pfad_" data-name="&lt;Pfad&gt;" cx="40" cy="40.11" r="40" style="fill:#cac9c9"/><ellipse id="_Pfad_2" data-name="&lt;Pfad&gt;" cx="38.35" cy="38.78" rx="37.44" ry="37.61" style="fill:#d7d8d8"/><path d="M39.81,55.62c8.77,0,13.34,7.72,13.34,11.63a0.83,0.83,0,0,1-.94.94s-4.92-6-12.4-6-12.4,6-12.4,6a0.83,0.83,0,0,1-.94-0.94C26.47,63.33,31,55.62,39.81,55.62Z" style="fill:#303030"/><ellipse cx="26.35" cy="40.27" rx="4" ry="7.73" style="fill:#303030"/><ellipse cx="50.36" cy="39.94" rx="4" ry="7.73" style="fill:#303030"/><path d="M14.53,27.21s14.67-1.93,18.56,10c0.08,0.25,0,.48-0.45,0a22.79,22.79,0,0,0-18.11-6.84V27.21Z" style="fill:#303030"/><path d="M62.15,27.21s-14.67-1.93-18.56,10c-0.08.25,0,.48,0.45,0a22.79,22.79,0,0,1,18.11-6.84V27.21Z" style="fill:#303030"/></svg>