<svg id="new" xmlns="http://www.w3.org/2000/svg" viewBox="0 0 80 80"><title>hc_smilies</title><circle id="_Pfad_" data-name="&lt;Pfad&gt;" cx="40" cy="39.96" r="40" style="fill:#cbc9c9"/><ellipse id="_Pfad_2" data-name="&lt;Pfad&gt;" cx="38.35" cy="38.63" rx="37.44" ry="37.61" style="fill:#d7d7d7"/><ellipse cx="55.76" cy="38.97" rx="4" ry="7.73" style="fill:#303030"/><ellipse cx="24.08" cy="38.97" rx="4" ry="7.73" style="fill:#303030"/><ellipse cx="24.08" cy="45.89" rx="5.67" ry="0.8" style="fill:#303030"/><ellipse cx="55.76" cy="45.89" rx="5.67" ry="0.8" style="fill:#303030"/><path d="M17.5,55s8.33,4,22.79,4,22.79-4,22.79-4S59.42,69.63,40.29,69.63,17.5,55,17.5,55Z" style="fill:#303030"/><path d="M40.29,62.84c8.14,0,9.37,5.39,9.16,5.46a28.82,28.82,0,0,1-9.16,1.33,28.75,28.75,0,0,1-9.16-1.33C31,68.24,32.15,62.84,40.29,62.84Z" style="fill:#ed6b70"/></svg>