<svg id="new" xmlns="http://www.w3.org/2000/svg" viewBox="0 0 80 80"><style>.st4{fill:#303030}</style><circle id="XMLID_60_" cx="40" cy="40.2" r="40" fill="#dedc03"/><ellipse id="XMLID_59_" cx="38.4" cy="38.8" rx="37.4" ry="37.6" fill="#fcea1c"/><ellipse class="st4" cx="55.8" cy="38.8" rx="4" ry="7.7"/><ellipse class="st4" cx="24.1" cy="39.2" rx="4" ry="7.7"/><path class="st4" d="M48.6 61.2c0 5.5-4.2 1-9 1s-9 4.5-9-1 4-10 9-10 9 4.5 9 10zm-21-31s8-3.2 7.5-6.3-16.3 9-16 11.4c4.3-3.6 8.6-5.2 8.6-5.2zm24.9 0S44.5 27 45 24c.5-3.2 16.4 9 16 11.4-4-3.6-8.5-5.2-8.5-5.2z"/></svg>