<svg id="new" xmlns="http://www.w3.org/2000/svg" viewBox="0 0 80 80"><style>.st4{fill:#303030}</style><circle id="XMLID_56_" cx="40" cy="40" r="40" fill="#cac9c9"/><ellipse id="XMLID_55_" cx="38.4" cy="38.7" rx="37.4" ry="37.6" fill="#d7d8d8"/><ellipse class="st4" cx="55.8" cy="38.7" rx="4" ry="7.7"/><ellipse class="st4" cx="24.1" cy="39" rx="4" ry="7.7"/><path class="st4" d="M48.6 61c0 5.5-4.2 1-9 1s-9 4.5-9-1 4-10 9-10 9 4.5 9 10zm-21-31s8-3.2 7.5-6.3S18.8 33 19 35.2c4.3-3.6 8.6-5.2 8.6-5.2zm24.9 0s-8-3.2-7.5-6.3c.5-3 16.4 9.2 16 11.5-4-3.6-8.5-5.2-8.5-5.2z"/></svg>