<svg id="new" xmlns="http://www.w3.org/2000/svg" viewBox="0 0 80 80"><style>.st0{fill:#CAC9C9;} .st1{fill:#D7D8D8;} .st2{fill:#DEDC03;} .st3{fill:#FCEA1C;} .st4{fill:#303030;} .st5{fill:#ED6B70;} .st6{fill:#ED6C70;} .st7{fill:#71CAEB;} .st8{fill:#CBC9C9;} .st9{fill:#D7D7D7;} .st10{fill:url(#XMLID_68_);} .st11{fill:url(#XMLID_69_);} .st12{fill:#525151;} .st13{fill:#757575;} .st14{fill:#525252;} .st15{opacity:0.8;fill:#FFFFFF;}</style><circle id="XMLID_56_" class="st0" cx="40" cy="40" r="40"/><ellipse id="XMLID_55_" class="st1" cx="38.4" cy="38.7" rx="37.4" ry="37.6"/><ellipse class="st4" cx="55.8" cy="38.7" rx="4" ry="7.7"/><ellipse class="st4" cx="24.1" cy="39" rx="4" ry="7.7"/><path class="st4" d="M48.6 61c0 5.5-4.2 1-9 1s-9 4.5-9-1 4-10 9-10 9 4.5 9 10zM27.6 30s8-3.2 7.5-6.3S18.8 33 19 35.2c4.3-3.6 8.6-5.2 8.6-5.2zM52.5 30s-8-3.2-7.5-6.3c.5-3 16.4 9.2 16 11.5-4-3.6-8.5-5.2-8.5-5.2z"/></svg>