<svg id="new" xmlns="http://www.w3.org/2000/svg" viewBox="0 0 80 80"><style>.st4{fill:#303030}</style><circle id="XMLID_54_" cx="40" cy="40.2" r="40" fill="#dedc03"/><ellipse id="XMLID_53_" cx="38.4" cy="38.8" rx="37.4" ry="37.6" fill="#fcea1c"/><ellipse class="st4" cx="55.8" cy="31.4" rx="4" ry="7.7"/><ellipse class="st4" cx="24.1" cy="31.4" rx="4" ry="7.7"/><path class="st4" d="M20 55.6s9.8 5.4 24 2.6a37 37 0 0 0 21-11.4s-1.4 11.7-20.2 15.4S20 55.6 20 55.6zm-4.2-35.3s3 3.5 8.3 3.5 8.4-3.5 8.4-3.5-1.3 5.4-8.3 5.4-8.2-5.4-8.2-5.4zM65 21s-3.4-4-9.2-4-9.3 4-9.3 4 1.5-6 9.2-6 9.3 6 9.3 6z"/></svg>