<svg id="new" xmlns="http://www.w3.org/2000/svg" viewBox="0 0 80 80"><style>.st0{fill:#CAC9C9;} .st1{fill:#D7D8D8;} .st2{fill:#DEDC03;} .st3{fill:#FCEA1C;} .st4{fill:#303030;} .st5{fill:#ED6B70;} .st6{fill:#ED6C70;} .st7{fill:#71CAEB;} .st8{fill:#CBC9C9;} .st9{fill:#D7D7D7;} .st10{fill:url(#XMLID_68_);} .st11{fill:url(#XMLID_69_);} .st12{fill:#525151;} .st13{fill:#757575;} .st14{fill:#525252;} .st15{opacity:0.8;fill:#FFFFFF;}</style><circle id="XMLID_54_" class="st2" cx="40" cy="40.2" r="40"/><ellipse id="XMLID_53_" class="st3" cx="38.4" cy="38.8" rx="37.4" ry="37.6"/><ellipse class="st4" cx="55.8" cy="31.4" rx="4" ry="7.7"/><ellipse class="st4" cx="24.1" cy="31.4" rx="4" ry="7.7"/><path class="st4" d="M20 55.6S29.8 61 44 58.2c14.2-2.8 21-11.4 21-11.4s-1.4 11.7-20.2 15.4S20 55.6 20 55.6zM15.8 20.3s3 3.5 8.3 3.5 8.4-3.5 8.4-3.5-1.3 5.4-8.3 5.4-8.2-5.4-8.2-5.4zM65 21s-3.4-4-9.2-4-9.3 4-9.3 4 1.5-6 9.2-6 9.3 6 9.3 6z"/></svg>