<svg id="new" xmlns="http://www.w3.org/2000/svg" viewBox="0 0 80 80"><style>.st4{fill:#303030}</style><circle id="XMLID_50_" cx="40" cy="40" r="40" fill="#cac9c9"/><ellipse id="XMLID_49_" cx="38.4" cy="38.7" rx="37.4" ry="37.6" fill="#d7d8d8"/><ellipse class="st4" cx="55.8" cy="31.3" rx="4" ry="7.7"/><ellipse class="st4" cx="24.1" cy="31.3" rx="4" ry="7.7"/><path class="st4" d="M20 55.4s9.8 5.4 24 2.6a37 37 0 0 0 21-11.4S63.4 58.3 44.6 62 20 55.4 20 55.4zm-4.2-35.2s3 3.5 8.3 3.5 8.4-3.5 8.4-3.5-1.3 5.4-8.3 5.4-8.2-5.4-8.2-5.4zm49.2.6s-3.4-4-9.2-4-9.2 4-9.2 4 1.5-6 9.2-6 9.2 6 9.2 6z"/></svg>