<svg id="new" xmlns="http://www.w3.org/2000/svg" viewBox="0 0 80 80"><style></style><circle id="XMLID_38_" cx="40" cy="40.2" r="40" fill="#dedc03"/><ellipse id="XMLID_37_" cx="38.4" cy="38.8" rx="37.4" ry="37.6" fill="#fcea1c"/><path d="M39.6 63.7c-11.2 0-21-3.6-25.2-8.8C16 61 26.6 66 39.6 66s23.6-4.8 25.2-11c-4.4 5-14 8.7-25.2 8.7zM9 44.2s3.5-8.5 13-11.5 9 11.5 9 11.5-2-7.8-5.3-8c-8.5-.4-16.6 8-16.6 8zm57 0s-3.3-8.5-13-11.5-8.7 11.5-8.7 11.5 2-7.8 5.2-8c8.4-.4 16.6 8 16.6 8z" fill="#303030"/></svg>