<svg id="new" xmlns="http://www.w3.org/2000/svg" viewBox="0 0 80 80"><style>.st0{fill:#CAC9C9;} .st1{fill:#D7D8D8;} .st2{fill:#DEDC03;} .st3{fill:#FCEA1C;} .st4{fill:#303030;} .st5{fill:#ED6B70;} .st6{fill:#ED6C70;} .st7{fill:#71CAEB;} .st8{fill:#CBC9C9;} .st9{fill:#D7D7D7;} .st10{fill:url(#XMLID_68_);} .st11{fill:url(#XMLID_69_);} .st12{fill:#525151;} .st13{fill:#757575;} .st14{fill:#525252;} .st15{opacity:0.8;fill:#FFFFFF;}</style><circle id="XMLID_38_" class="st2" cx="40" cy="40.2" r="40"/><ellipse id="XMLID_37_" class="st3" cx="38.4" cy="38.8" rx="37.4" ry="37.6"/><path class="st4" d="M39.6 63.7c-11.2 0-21-3.6-25.2-8.8C16 61 26.6 66 39.6 66s23.6-4.8 25.2-11c-4.4 5-14 8.7-25.2 8.7zM9 44.2s3.5-8.5 13-11.5 9 11.5 9 11.5-2-7.8-5.3-8c-8.5-.4-16.6 8-16.6 8zM66 44.2s-3.3-8.5-13-11.5-8.7 11.5-8.7 11.5 2-7.8 5.2-8c8.4-.4 16.6 8 16.6 8z"/></svg>