<svg id="new" xmlns="http://www.w3.org/2000/svg" viewBox="0 0 80 80"><style>.st0{fill:#CAC9C9;} .st1{fill:#D7D8D8;} .st2{fill:#DEDC03;} .st3{fill:#FCEA1C;} .st4{fill:#303030;} .st5{fill:#ED6B70;} .st6{fill:#ED6C70;} .st7{fill:#71CAEB;} .st8{fill:#CBC9C9;} .st9{fill:#D7D7D7;} .st10{fill:url(#XMLID_68_);} .st11{fill:url(#XMLID_69_);} .st12{fill:#525151;} .st13{fill:#757575;} .st14{fill:#525252;} .st15{opacity:0.8;fill:#FFFFFF;}</style><circle id="XMLID_66_" class="st2" cx="40" cy="40" r="40"/><ellipse id="XMLID_65_" class="st3" cx="38.4" cy="38.7" rx="37.4" ry="37.6"/><path class="st4" d="M39.6 60.4c8 0 14.6 1 17.7 2.7-1-2-8.6-4-17.7-4S23 61 22 63c3-1.8 9.7-2.6 17.6-2.6zM29.7 45.7c.3 3.5-3 3-7 3s-7 .5-7-3c0-1.7 3-3 7-3s7 1.3 7 3zM49.8 45.7c-.3 3.5 3 3 7 3s7 .5 7-3c0-1.7-3-3-7-3s-7 1.3-7 3zM13.7 35c5.2 4 12 4.5 17.8 0-.5.6-3 5-9 4.6s-6-1.8-8.8-4.5zM48 35c5 4 11.8 4.5 17.7 0-.5.6-3 5-9 4.6s-6-1.8-8.8-4.5z"/><path class="st4" d="M66.4 50.8c-9-2.6-14.5-1.5-20.2 0 .6-.4 3.3-2.8 10-2.6 7 .2 7 .8 10.2 2.6zM32.7 50.8c-9-2.6-14.5-1.5-20.2 0 .6-.4 3.3-2.8 10-2.6s7 .8 10.2 2.6z"/></svg>