<svg id="new" xmlns="http://www.w3.org/2000/svg" viewBox="0 0 80 80"><style>.st4{fill:#303030}</style><circle id="XMLID_62_" cx="40" cy="40" r="40" fill="#cac9c9"/><ellipse id="XMLID_61_" cx="38.4" cy="38.7" rx="37.4" ry="37.6" fill="#d7d8d8"/><path class="st4" d="M39.6 60.4c8 0 14.6 1 17.7 2.7-1-2-8.6-4-17.7-4S23 61 22 63c3-1.8 9.7-2.6 17.6-2.6zm-9.9-14.7c.3 3.5-3 3-7 3s-7 .5-7-3c0-1.7 3-3 7-3s7 1.3 7 3zm20.1 0c-.3 3.5 3 3 7 3s7 .5 7-3c0-1.7-3-3-7-3s-7 1.3-7 3zM13.7 35a14 14 0 0 0 17.8 0c-.5.6-3 5-9 4.6s-6-1.8-8.8-4.5zM48 35c5 4 11.8 4.5 17.7 0-.5.6-3 5-9 4.6s-6-1.8-8.8-4.5z"/><path class="st4" d="M66.4 50.8c-9-2.6-14.5-1.5-20.2 0 .6-.4 3.3-2.8 10-2.6 7 .2 7 .8 10.2 2.6zm-33.7 0c-9-2.6-14.5-1.5-20.2 0 .6-.4 3.3-2.8 10-2.6s7 .8 10.2 2.6z"/></svg>