<svg id="Back" xmlns="http://www.w3.org/2000/svg" xmlns:xlink="http://www.w3.org/1999/xlink" viewBox="0 0 600 570"><defs><style>.cls-1,.cls-50{fill:#fff;}.cls-2,.cls-6{fill:#dfeff4;}.cls-3{mask:url(#mask);}.cls-4{fill:#9dca00;}.cls-5{fill:#70a30a;}.cls-10,.cls-12,.cls-14,.cls-44,.cls-45,.cls-47,.cls-48,.cls-49,.cls-5,.cls-50,.cls-51,.cls-52,.cls-53,.cls-54,.cls-55,.cls-56,.cls-57,.cls-59,.cls-6,.cls-60,.cls-61,.cls-62,.cls-63,.cls-64,.cls-8,.cls-9{fill-rule:evenodd;}.cls-44,.cls-7{fill:#471e04;}.cls-8{fill:#f5b800;}.cls-13,.cls-9{fill:#f5e68a;}.cls-10{fill:#ff9;}.cls-11{fill:#9cc;}.cls-12{fill:#fc0;}.cls-14{fill:#eccf7c;}.cls-15{fill:#216194;}.cls-16{fill:#017f9f;}.cls-17{fill:#76b629;}.cls-18{fill:#a53589;}.cls-19{fill:#024f9d;}.cls-20{fill:#50568c;}.cls-21{fill:#c6d200;}.cls-22{fill:#0369b2;}.cls-23{fill:#007d75;}.cls-24{fill:#008d6d;}.cls-25{fill:#008051;}.cls-26{fill:#46942b;}.cls-27{fill:#d5146e;}.cls-28{fill:#15a338;}.cls-29{fill:#0080c7;}.cls-30{fill:#0089d0;}.cls-31{fill:#e9bb00;}.cls-32{fill:#007632;}.cls-33{fill:#c51553;}.cls-34{fill:#593872;}.cls-35{fill:#f19000;}.cls-36{fill:#f9b800;}.cls-37{fill:#fddb00;}.cls-38{fill:#e43311;}.cls-39{fill:#b7c200;}.cls-40{fill:#e64e10;}.cls-41{fill:#079de1;}.cls-42{fill:#93bf1f;}.cls-43,.cls-53{fill:#f1502d;}.cls-45,.cls-46{fill:#d4a15e;}.cls-47{fill:#5b8408;}.cls-48{fill:#f2d291;}.cls-49{fill:#c4d621;}.cls-51{fill:#edba68;}.cls-52{fill:#bf3611;}.cls-54{fill:#f7c5a3;}.cls-55{fill:#d43c13;}.cls-56{fill:#823105;}.cls-57{fill:#b0743c;}.cls-58,.cls-60{fill:#a14a1b;}.cls-59{fill:#ffc;}.cls-61{fill:#d1965e;}.cls-62{fill:#331502;}.cls-63{fill:#deb8a0;}</style><mask id="mask" x="-122.02" y="93.01" width="788.89" height="609.22" maskUnits="userSpaceOnUse"><circle class="cls-1" cx="300" cy="332.01" r="238.99"/></mask></defs><title>registration</title><circle class="cls-2" cx="300" cy="332.01" r="238.99"/><g class="cls-3"><ellipse class="cls-4" cx="272.42" cy="517.69" rx="394.44" ry="184.55"/><path class="cls-5" d="M29.69,330.21a25,25,0,0,1,14.77,9.66,25,25,0,0,1,35.28,15.92,25,25,0,0,1,32.09,32.52A25,25,0,0,1,104.16,434a25,25,0,0,1-24.85,22.59c-17.06,0-33.28-1.08-49.62-2V330.21Z"/></g><path class="cls-6" d="M537.43,192.51a24.22,24.22,0,0,0-19.17,9.39,19.58,19.58,0,0,0-19,16.1,11.59,11.59,0,1,0-1.77,23c28.22,0,62.52-1.53,93.54-1.53a8.94,8.94,0,1,0-1.8-17.7A18.13,18.13,0,0,0,560.07,208,24.27,24.27,0,0,0,537.43,192.51Z"/><path class="cls-6" d="M78.54,93.13a30.27,30.27,0,0,1,24,11.73A24.46,24.46,0,0,1,126.19,125a14.48,14.48,0,1,1,2.21,28.79c-35.26,0-78.12-1.92-116.88-1.92a11.17,11.17,0,1,1,2.25-22.11,22.66,22.66,0,0,1,36.48-17.21A30.33,30.33,0,0,1,78.54,93.13Z"/><path class="cls-6" d="M138.51,39a10.35,10.35,0,0,0-8.19,4,8.36,8.36,0,0,0-8.1,6.88,5,5,0,0,0-.75-0.06,5,5,0,1,0,0,9.9c12.06,0,26.71-.65,40-0.65a3.82,3.82,0,1,0,0-7.64,3.87,3.87,0,0,0-.77.08,7.75,7.75,0,0,0-12.47-5.88A10.37,10.37,0,0,0,138.51,39Z"/><path class="cls-6" d="M208.31,55.37A14.49,14.49,0,0,0,196.84,61a11.71,11.71,0,0,0-11.35,9.63,7,7,0,0,0-1.06-.08,6.93,6.93,0,1,0,0,13.87c16.88,0,37.41-.92,56-0.92a5.35,5.35,0,1,0,0-10.7,5.42,5.42,0,0,0-1.08.11,10.85,10.85,0,0,0-17.47-8.24A14.52,14.52,0,0,0,208.31,55.37Z"/><path class="cls-6" d="M457.76,75.59a30.32,30.32,0,0,1,24,11.75A24.52,24.52,0,0,1,505.5,107.5a14.51,14.51,0,1,1,2.21,28.85c-35.33,0-78.27-1.92-117.11-1.92a11.19,11.19,0,1,1,2.25-22.15A22.7,22.7,0,0,1,429.41,95,30.39,30.39,0,0,1,457.76,75.59Z"/><rect class="cls-7" x="121.96" y="253.77" width="17.6" height="110.03"/><path class="cls-5" d="M48.43,229.58a25.14,25.14,0,0,1,3.4-10.41,27.49,27.49,0,0,1-12-25.22,24.75,24.75,0,0,1,12.82-19.45,26.51,26.51,0,0,1-1.59-12A24.79,24.79,0,0,1,73,140.16a26.44,26.44,0,0,1-.78-9.48,24.93,24.93,0,0,1,28.74-22.24,27.24,27.24,0,0,1,9.45,3.2c10.86-13.76,41.19-18.11,53.13.8a25.35,25.35,0,0,1,6.5-2.16c14.14-2.67,28.28,6.72,31.59,21a26.16,26.16,0,0,1,.2,11.1,27.91,27.91,0,0,1,19.34,20.37,25.41,25.41,0,0,1-5.65,22.83,27.49,27.49,0,0,1,5.37,11,25.09,25.09,0,0,1-13.22,28.54,27.43,27.43,0,0,1,3.79,8.86c3.31,14.26-5.46,28-19.59,30.65a26.21,26.21,0,0,1-9.84,0c-15.51,29.89-50.82,15.16-53.69,1.66a25,25,0,0,1-26.43,13.89A27.89,27.89,0,0,1,78.95,259.4a26.36,26.36,0,0,1-6.94-.08C57.56,257.25,47,243.93,48.43,229.58Z"/><path class="cls-8" d="M120.61,157.58a11.48,11.48,0,1,0-11.48-11.48A11.5,11.5,0,0,0,120.61,157.58Z"/><path class="cls-8" d="M167.64,175.49A11.48,11.48,0,1,0,156.16,164,11.5,11.5,0,0,0,167.64,175.49Z"/><path class="cls-8" d="M98.22,237.07A11.48,11.48,0,1,0,86.74,225.6,11.5,11.5,0,0,0,98.22,237.07Z"/><path class="cls-8" d="M152,243.79a11.48,11.48,0,1,0-11.48-11.48A11.5,11.5,0,0,0,152,243.79Z"/><path class="cls-8" d="M128.45,204.6A11.48,11.48,0,1,0,117,193.13,11.5,11.5,0,0,0,128.45,204.6Z"/><path class="cls-8" d="M183.87,215.8a11.48,11.48,0,1,0-11.48-11.48A11.5,11.5,0,0,0,183.87,215.8Z"/><path class="cls-8" d="M87.58,190.61A11.48,11.48,0,1,0,76.1,179.13,11.5,11.5,0,0,0,87.58,190.61Z"/><path class="cls-6" d="M314,0a29,29,0,0,0-22.95,11.24,23.43,23.43,0,0,0-22.71,19.27,14.09,14.09,0,0,0-2.11-.16,13.87,13.87,0,1,0,0,27.74c33.78,0,74.84-1.83,112-1.83a10.7,10.7,0,1,0,0-21.4,10.85,10.85,0,0,0-2.15.22,21.7,21.7,0,0,0-35-16.49A29.05,29.05,0,0,0,314,0Z"/><path class="cls-9" d="M495.31,315.15c-3,3.79-6.63,8.68-7,13.08-0.3,4,2.29,8.17,8.1,8.38,5.82-.2,8.4-4.36,8.1-8.38-0.33-4.4-3.92-9.28-7-13.08h-2.3Z"/><path class="cls-10" d="M495.31,315.15c-3,3.79-6.63,8.68-7,13.08a7.89,7.89,0,0,0,1.16,4.81,9.25,9.25,0,0,0,4.73,1.36c5.82-.2,8.4-4.36,8.1-8.38-0.27-3.58-2.7-7.49-5.24-10.87h-1.81Z"/><path class="cls-9" d="M399.5,315.15c-3,3.79-6.63,8.68-7,13.08-0.3,4,2.29,8.17,8.1,8.38,5.82-.2,8.4-4.36,8.1-8.38-0.33-4.4-3.92-9.28-7-13.08h-2.3Z"/><path class="cls-10" d="M399.5,315.15c-3,3.79-6.63,8.68-7,13.08a7.89,7.89,0,0,0,1.16,4.81,9.25,9.25,0,0,0,4.73,1.36c5.82-.2,8.4-4.36,8.1-8.38-0.27-3.58-2.7-7.49-5.24-10.87H399.5Z"/><rect class="cls-11" x="422.26" y="241.95" width="129.37" height="2.86" transform="translate(166.48 683.44) rotate(-80.49)"/><rect class="cls-11" x="418.52" y="178.7" width="2.86" height="129.37" transform="translate(-34.43 72.7) rotate(-9.51)"/><rect class="cls-11" x="447.6" y="241.09" width="129.37" height="2.86" transform="translate(145.44 674.58) rotate(-75)"/><rect class="cls-11" x="382.51" y="177.83" width="2.86" height="129.37" transform="matrix(0.97, -0.26, 0.26, 0.97, -49.69, 107.63)"/><path class="cls-12" d="M398.86,301.92h99.4l-5.5,46.59c-0.54,4.68-3.31,12.26-9.86,12.26H414.22c-6.55,0-9.32-7.58-9.86-12.26Z"/><path class="cls-8" d="M493.07,345.84l-0.31,2.66c-0.54,4.68-3.31,12.26-9.86,12.26H414.22c-6.55,0-9.32-7.58-9.86-12.26L404,345.84c1.24,4.31,4.12,9.08,9.43,9.08h70.16C489,354.93,491.83,350.15,493.07,345.84Z"/><polygon class="cls-8" points="398.86 301.92 498.25 301.92 496.82 314.06 400.29 314.06 398.86 301.92"/><path class="cls-9" d="M399.8,299.24h97.52a5.36,5.36,0,0,1,5.35,5.35h0a5.36,5.36,0,0,1-5.35,5.35H399.8a5.36,5.36,0,0,1-5.34-5.35h0A5.36,5.36,0,0,1,399.8,299.24Z"/><path class="cls-10" d="M399.8,299.24h97.52a5.36,5.36,0,0,1,5.35,5.35h0a5.3,5.3,0,0,1-.1,1,5.56,5.56,0,0,1-3.84,1.53H398.39a5.56,5.56,0,0,1-3.84-1.53,5.33,5.33,0,0,1-.1-1h0A5.36,5.36,0,0,1,399.8,299.24Z"/><path class="cls-10" d="M422,314.38s13.05,8.45,25.11,0l0.82,1.17c-12.85,9-26.66,0-26.7,0Z"/><path class="cls-10" d="M450,314.38s13.05,8.45,25.11,0l0.82,1.17c-12.85,9-26.66,0-26.7,0Z"/><path class="cls-10" d="M478.09,314.37s14.13,8.56,18.74-.35l1.27,0.65c-5.31,10.27-20.69.95-20.74,0.92Z"/><path class="cls-8" d="M420.22,317.35c-3,3.79-6.63,8.68-7,13.08-0.3,4,2.29,8.17,8.1,8.38,5.82-.2,8.4-4.36,8.1-8.38-0.33-4.4-3.92-9.28-7-13.08h-2.3Z"/><path class="cls-9" d="M419.42,315.15c-3,3.79-6.63,8.68-7,13.08-0.3,4,2.29,8.17,8.1,8.38,5.82-.2,8.4-4.36,8.1-8.38-0.33-4.4-3.92-9.28-7-13.08h-2.3Z"/><path class="cls-10" d="M419.42,315.15c-3,3.79-6.63,8.68-7,13.08a7.89,7.89,0,0,0,1.16,4.81,9.25,9.25,0,0,0,4.73,1.36c5.82-.2,8.4-4.36,8.1-8.38-0.27-3.58-2.7-7.49-5.24-10.87h-1.81Z"/><path class="cls-8" d="M448.24,317.35c-3,3.79-6.63,8.68-7,13.08-0.3,4,2.29,8.17,8.1,8.38,5.82-.2,8.4-4.36,8.1-8.38-0.33-4.4-3.92-9.28-7-13.08h-2.3Z"/><path class="cls-8" d="M476.47,317.35c-3,3.79-6.63,8.68-7,13.08-0.3,4,2.29,8.17,8.1,8.38,5.82-.2,8.4-4.36,8.1-8.38-0.33-4.4-3.92-9.28-7-13.08h-2.3Z"/><path class="cls-9" d="M475.4,315.15c-3,3.79-6.63,8.68-7,13.08-0.3,4,2.29,8.17,8.1,8.38,5.82-.2,8.4-4.36,8.1-8.38-0.33-4.4-3.92-9.28-7-13.08h-2.3Z"/><path class="cls-10" d="M475.4,315.15c-3,3.79-6.63,8.68-7,13.08A7.89,7.89,0,0,0,469.6,333a9.25,9.25,0,0,0,4.73,1.36c5.82-.2,8.4-4.36,8.1-8.38-0.27-3.58-2.7-7.49-5.24-10.87H475.4Z"/><path class="cls-9" d="M447.41,315.15c-3,3.79-6.63,8.68-7,13.08-0.3,4,2.29,8.17,8.1,8.38,5.82-.2,8.4-4.36,8.1-8.38-0.33-4.4-3.92-9.28-7-13.08h-2.3Z"/><path class="cls-10" d="M447.41,315.15c-3,3.79-6.63,8.68-7,13.08a7.89,7.89,0,0,0,1.16,4.81,9.25,9.25,0,0,0,4.73,1.36c5.82-.2,8.4-4.36,8.1-8.38-0.27-3.58-2.7-7.49-5.24-10.87h-1.81Z"/><path class="cls-10" d="M419.3,314.37s-14.35,8.51-19-.39l-1,.7c5.31,10.27,20.69.95,20.74,0.92Z"/><circle class="cls-13" cx="448.56" cy="313.99" r="1.76"/><circle class="cls-13" cx="420.57" cy="313.99" r="1.76"/><circle class="cls-13" cx="476.54" cy="313.99" r="1.76"/><path class="cls-14" d="M448.56,312.22a1.76,1.76,0,0,1,1.76,1.76s0,0,0,.07h-3.52s0,0,0-.07A1.76,1.76,0,0,1,448.56,312.22Z"/><path class="cls-14" d="M420.57,312.22a1.76,1.76,0,0,1,1.76,1.76s0,0,0,.07H418.8s0,0,0-.07A1.76,1.76,0,0,1,420.57,312.22Z"/><path class="cls-14" d="M476.54,312.22a1.76,1.76,0,0,1,1.76,1.76s0,0,0,.07h-3.52s0,0,0-.07A1.76,1.76,0,0,1,476.54,312.22Z"/><path class="cls-9" d="M497,312.32a1.76,1.76,0,0,1-.4,3.43Z"/><path class="cls-9" d="M400.49,315.74a1.76,1.76,0,0,1-.4-3.43Z"/><circle class="cls-2" cx="446.79" cy="128.72" r="110.57"/><path class="cls-15" d="M494.9,63.25a155.28,155.28,0,0,0-22-5.16c0.74,3.56,1.35,7.38,2,11.19,9-2.46,14-2.09,20-6"/><path class="cls-16" d="M515.31,102.71a23.25,23.25,0,0,1,2.83.61c-0.37-2-.61-4.06-1.11-5.9a8.54,8.54,0,0,1-.61,1.6,18.29,18.29,0,0,0-1.11,3.69"/><path class="cls-17" d="M439.22,209.4a19.26,19.26,0,0,1-.61-3.69,1.11,1.11,0,0,0-.12-0.61,109.56,109.56,0,0,1-10.94-1c5,21,12.17,34.17,19.91,34.17a6.07,6.07,0,0,0,3-.61c-1.23-3.07-2.83-6.76-4.06-9.46-4.06-9.59-6.51-15.49-7.13-18.81"/><path class="cls-18" d="M389.56,62.27a152.73,152.73,0,0,1,33.56-8.73c3.56-15.61,8.6-27.9,14.63-34.29h-0.37c-19.54,4.3-36.51,20.28-47.82,43"/><path class="cls-19" d="M467.49,53.17C462.45,32,455.32,19,447.45,19s-15,13-19.91,34.17a167.05,167.05,0,0,1,39.95,0"/><path class="cls-20" d="M446.72,83.66c5.16-5.65,7.5-5,15-8.85a98.5,98.5,0,0,1,9.22-4.18c-0.74-4.67-1.6-9.1-2.46-13.28a170.8,170.8,0,0,0-41.92,0c-1.11,5-2,10.33-2.83,15.86,8.36,1,16.47,3.32,23,10.45"/><path class="cls-21" d="M422.75,176.83c1.11,8.24,2.34,16.1,3.69,23.11,3.69,0.49,7.38.74,11.06,1.11a23.9,23.9,0,0,0-2.46-5.65c-1.6-2.46-7.13-11.06-12.29-18.56"/><path class="cls-22" d="M457.41,19.49c5.16,5.41,9.83,15.73,13.52,30.73a18.39,18.39,0,0,1,.74,3.56,152.32,152.32,0,0,1,26.8,6.27,26.16,26.16,0,0,0,3.07-4.18c-10.94-19.42-26.43-32.7-44.13-36.38"/><path class="cls-16" d="M522.43,104.18c15.61,3.56,27.9,8.6,34.29,14.63v-0.37c-3.44-16.1-14.75-30.36-31.47-41.3-1.72,3.56-3.44,7.62-5.41,12.66,1,4.79,2,9.59,2.58,14.38"/><path class="cls-23" d="M557,128.65c0-7.74-13-15-34.17-19.91a167.05,167.05,0,0,1,0,39.95c21.14-5,34.17-12.17,34.17-20"/><path class="cls-24" d="M496.25,142l-6.51,7.74c-0.49,1.23-1.11,2.7-1.72,4.3a280.64,280.64,0,0,0,30.73-4.67,170.8,170.8,0,0,0,0-41.92c-1.35-.37-3-0.61-4.55-1,0,0.37-.12.61-0.12,1-2.09,8.85-4.43,18.81-17.82,34.54"/><path class="cls-25" d="M522.43,153.11a154.55,154.55,0,0,1-8.73,33.56c22.86-11.43,38.84-28.39,42.9-47.82v-0.12c-5.41,5.29-15.73,10-30.73,13.77a20.46,20.46,0,0,0-3.44.61"/><path class="cls-26" d="M488.75,219.24a94.12,94.12,0,0,0,16.47-24.34c-4.3,1.72-8.73,3.07-13.4,4.55a41.84,41.84,0,0,1-1.6,10.94c-0.49,2.7-1.11,5.41-1.48,8.85"/><path class="cls-27" d="M351.21,87c8.85-9.22,20.4-16.72,32.57-22.13,7.5-16.84,18.81-32.2,33.56-41.55a110.55,110.55,0,0,0-72.28,65.76A53.13,53.13,0,0,1,351.21,87"/><path class="cls-28" d="M477.2,181.87l-0.12.37c6.51,2.34,13.4,7.13,14.38,12,0,0.37.12,0.61,0.12,1a128.1,128.1,0,0,0,16.35-5.9,146.23,146.23,0,0,0,10-35.16,313.21,313.21,0,0,1-31.84,4.67l-1.72,4.55c-3.07,7.62-6.27,15.86-7.13,18.44"/><path class="cls-29" d="M527,73.33c10.45,6.76,19.67,15.12,25.81,25.08a108.83,108.83,0,0,0-19.3-37.74c-0.74,1.6-1.72,3.32-2.7,5-1,2.34-2.34,4.92-3.81,7.62"/><path class="cls-30" d="M477.69,23.18c10.45,6.76,19.3,16.47,26.3,27.9a58.89,58.89,0,0,0,3-14.5,105.31,105.31,0,0,0-29.25-13.4"/><path class="cls-31" d="M383.66,192.44c-16.84-7.5-32.2-18.81-41.55-33.56a110.19,110.19,0,0,0,75.23,75.23c-14.75-9.22-26.06-24.83-33.68-41.67"/><path class="cls-32" d="M511.25,192.44c-5.65,12.41-13.4,24.34-22.86,33.31-0.12,1.6-.12,3.07-0.37,4.79a109.92,109.92,0,0,0,65-71.66c-9.46,14.75-24.83,26.06-41.79,33.56"/><path class="cls-33" d="M381.08,70.75a96.87,96.87,0,0,0-21.14,13.89,161.78,161.78,0,0,0,18.44-5.9c0.86-2.7,1.84-5.41,2.7-8"/><path class="cls-34" d="M395,72.1c13.77,0.74,24.46,1,24.46,1,0.74-5.16,1.6-10.33,2.7-15A144.63,144.63,0,0,0,387,68c-1.11,2.7-2.21,5.41-3.32,8.24,6.15-3.07,4.92-3.93,11.31-4.18"/><path class="cls-35" d="M401,148.19A110.66,110.66,0,0,1,386,137a101.29,101.29,0,0,0-11.06-8.6,201.24,201.24,0,0,0,1.23,21.14A289.4,289.4,0,0,0,408,154.21a11.9,11.9,0,0,0-2.34-2.7,26.5,26.5,0,0,0-4.67-3.32"/><path class="cls-36" d="M381.08,186.66a152.73,152.73,0,0,1-8.73-33.56c-15.12-3.44-26.92-8.11-33.56-14l-0.61.49c4.79,19.18,20.53,35.89,42.9,47.08"/><path class="cls-37" d="M411.19,158.88a325,325,0,0,1-34.29-4.79,144.63,144.63,0,0,0,10,35.16,146.23,146.23,0,0,0,35.16,10,249.74,249.74,0,0,1-4.3-30.12c-1.84-2.58-3.69-6.15-6.51-10.2"/><path class="cls-38" d="M353.54,127.42l-0.12.12-11.06,8.85c5.41,4.67,15.86,8.85,29.62,12.17a153.22,153.22,0,0,1-1.11-22.49,21.41,21.41,0,0,0-8.6-2,11.83,11.83,0,0,0-8.73,3.32"/><path class="cls-39" d="M423,203.63a154.55,154.55,0,0,1-33.56-8.73c11.43,22.86,28.39,38.84,47.82,42.9h0.12c-5.29-5.41-10-15.73-13.77-30.73a12.75,12.75,0,0,0-.61-3.44"/><path class="cls-40" d="M362.27,119.67c10.33,0,19.3,7.5,26.8,13.89,4.55,3.69,9.1,7.74,14.38,10.94a21.67,21.67,0,0,1,5.41,4.18,20.46,20.46,0,0,1,3.93,4.79c1.23,2,2.21,3.32,2.83,3.32,1.23,0,3.93-1.35,4.3-3.44,1-4.18-3.07-8.11-6.27-11.06-4.3-4.18-11.06-11.68-12.91-15.12C386,99.64,418.57,77.14,438.11,93c2-1.84,3.93-4.3,5.41-5.9-10.45-11.43-25.44-8.73-40.69-9.83-2.21-.12-8.36-0.61-10.08-0.12A21.79,21.79,0,0,0,388,79.48c-14,7.74-33.31,9.46-45,15.86a109.84,109.84,0,0,0-5.16,33.31c0,1.84,0,3.69.12,5.65l12.78-10.08a16,16,0,0,1,11.55-4.55"/><path class="cls-41" d="M472.53,74.81c-5.9,2.21-10.57,5.29-14,6.39-6.51,2.34-7.38,4.18-12.17,9.46a70.91,70.91,0,0,1-5.29,5.78,2.74,2.74,0,0,0,.61,1.6c1.72,2.46,4.18,1.6,6.39-.49,23.23-22.13,41.79-3,44.13,8.6,1.11,5.29,1.6,13.52-4.79,26.8,3.07,1.11,5.29,3,5.65,6.27,17.09-20.28,14.75-29.5,19.3-41.92,8.36-23.85,14.14-31.84,18.44-40.32a109,109,0,0,0-19.3-17.58c-4.3,33.93-25.08,30.36-39,35.4"/><path class="cls-42" d="M484.21,219.48c0.61-10.08,4.67-14.75,2.83-24.46-0.49-2.46-6.51-7.5-13.4-9.22l-2.21-.37,1.6-5c1-3.32,5.65-15,9.71-25.08,0.49-1.11,5.65-13,5.41-15.12a4.29,4.29,0,0,0-3.93-3.07c-1.48,0-3,2.7-4.55,5.41-2.21,3.56-3.56,7-5.41,10.45-2,3.69-4.18,7.62-6.51,11.8s-5,9.22-8.11,14.75a7,7,0,0,1-6.51,4.06c-2.46,0-5.29-.74-6-1.35s-19.18-21.51-23.72-25.81a9.76,9.76,0,0,1-6,4.3c6.51,9.83,19.05,28.15,21.51,32,3.69,5.78,3.56,9.46,4.79,15.73,0.74,4.55,8.11,19.79,11.8,29.5a109.3,109.3,0,0,0,27.9-5.78c0.25-4.3.61-8.6,0.86-12.66"/><path class="cls-5" d="M381,350.22a11.06,11.06,0,0,1,4.59,1,11.09,11.09,0,0,1,18.85-1.52,11.1,11.1,0,0,1,15.68,7.08,11.1,11.1,0,0,1,14.26,14.45A11.09,11.09,0,0,1,431,391.51a11.09,11.09,0,0,1-11,10c-13.42,0-25.68-1.5-39.1-1.5a11.1,11.1,0,0,1-10.42-14.9,11.1,11.1,0,0,1-.1-20.92A11.1,11.1,0,0,1,381,350.22Z"/><path class="cls-5" d="M452.34,350.22a11.06,11.06,0,0,1,4.59,1,11.09,11.09,0,0,1,18.85-1.52,11.1,11.1,0,0,1,15.68,7.08,11.1,11.1,0,0,1,14.26,14.45,11.09,11.09,0,0,1-3.41,20.29,11.09,11.09,0,0,1-11,10c-13.42,0-25.68-1.5-39.1-1.5a11.1,11.1,0,0,1-10.42-14.9,11.1,11.1,0,0,1-.1-20.92A11.1,11.1,0,0,1,452.34,350.22Z"/><circle class="cls-43" cx="380.94" cy="384.83" r="5.16"/><circle class="cls-43" cx="393.57" cy="365.77" r="5.16"/><circle class="cls-43" cx="407.27" cy="379.47" r="5.16"/><circle class="cls-43" cx="425.68" cy="369.63" r="5.16"/><circle class="cls-43" cx="462.93" cy="386.97" r="5.16"/><circle class="cls-43" cx="493.76" cy="385.04" r="5.16"/><circle class="cls-43" cx="478.77" cy="374.12" r="5.16"/><circle class="cls-43" cx="459.29" cy="362.35" r="5.16"/><path class="cls-8" d="M309.16,396.44h80v-97.9a17.79,17.79,0,0,0-17.74-17.74H326.9a17.79,17.79,0,0,0-17.74,17.74v97.9Z"/><path class="cls-44" d="M311.12,487.92h31.54c2.73,7.77,2.22,15.54,2.22,23.31H289.72C289.54,498.56,311.12,495.69,311.12,487.92Z"/><path class="cls-45" d="M307.11,494.41a2.05,2.05,0,0,1,.1-4.11s3.78,0,7.53,4.94a2.05,2.05,0,0,1-3.27,2.48C308.94,494.4,307.12,494.41,307.11,494.41Z"/><rect class="cls-46" x="288.81" y="506.64" width="56.68" height="4.58"/><path class="cls-45" d="M300.7,498.84a2.05,2.05,0,0,1,.1-4.11s3.78,0,7.53,4.94a2.05,2.05,0,0,1-3.27,2.48C302.52,498.82,300.7,498.84,300.7,498.84Z"/><path class="cls-44" d="M387.28,487.92H355.74c-2.73,7.77-2.22,15.54-2.22,23.31h55.16C408.85,498.56,387.28,495.69,387.28,487.92Z"/><path class="cls-45" d="M391.18,490.31a2.05,2.05,0,1,1,.1,4.11s-1.83,0-4.35,3.31a2.05,2.05,0,1,1-3.27-2.48C387.4,490.32,391.17,490.31,391.18,490.31Z"/><rect class="cls-46" x="352.9" y="506.64" width="56.68" height="4.58"/><path class="cls-45" d="M397.6,494.73a2.05,2.05,0,1,1,.1,4.11s-1.83,0-4.35,3.31a2.05,2.05,0,1,1-3.27-2.48C393.82,494.74,397.59,494.73,397.6,494.73Z"/><path class="cls-47" d="M389.3,385.68H309.1v102.4h36.16l-2.75-87.36h13.38l-2.75,87.36H389.3V385.68Z"/><path class="cls-48" d="M309.71,317.51c0,0.15-7,52.26-10.92,78.89a3.36,3.36,0,0,1,.66,1.09l3.75,10.16a3.36,3.36,0,0,1-2,4.3h0a3.37,3.37,0,0,1-4.3-2l-1.41-3.82,0.5,13.72a3.39,3.39,0,0,1-3.23,3.5h0a3.34,3.34,0,0,1-3.48-3.21l-0.07-1.82a3.37,3.37,0,0,1-.59.08h0a3.34,3.34,0,0,1-3.48-3.21l-0.07-1.9a3.33,3.33,0,0,1-1.64-2.75l-0.77-20.85a3.36,3.36,0,0,1,.83-2.34c4.15-28.28,9.88-71.81,9.9-72Z"/><path class="cls-8" d="M291.14,319.59l19.74,3.68,7.55-40.52c-14.85-2.54-21.71,11.52-23.18,18.17Z"/><polygon class="cls-49" points="322.11 386.58 326.64 390.54 312.4 407.92 307.88 403.96 322.11 386.58"/><path class="cls-48" d="M404.94,315.51c0.73,6.36,2.41,11.2,4.62,13.46,0.24,0.25,0,.39.17,0.39a4.92,4.92,0,0,0,1.81-1.39c4.93-4.81,10.4-16.46,15.5-37.84l16,3.8c-5.89,24.7-13.11,39-20.07,45.83-4.12,4-8.48,5.9-12.83,6a16.33,16.33,0,0,1-12.4-5.35c-4.7-4.82-8-13.12-9.19-23.06Z"/><path class="cls-8" d="M407.18,319.59l-19.74,3.68-7.55-40.52c14.85-2.54,21.71,11.52,23.18,18.17Z"/><polygon class="cls-49" points="376.2 386.58 371.68 390.54 385.92 407.92 390.44 403.96 376.2 386.58"/><path class="cls-50" d="M371,280.79V282l-0.2.73a22.42,22.42,0,0,1-43.24,0l-0.2-.73v-1.24h10.33a12.2,12.2,0,0,0,4.15,5.71,12.19,12.19,0,0,0,14.68,0,12.2,12.2,0,0,0,4.15-5.71H371Z"/><path class="cls-48" d="M332.86,271.06h32.59c0.14,0.39.26,0.78,0.37,1.18v9.18a17.29,17.29,0,0,1-33.33,0v-9.18C332.6,271.84,332.73,271.44,332.86,271.06Z"/><path class="cls-45" d="M333.3,273.66l32.15-2.6c0.14,0.39.26,0.78,0.37,1.18v9.18a17.31,17.31,0,0,1-12.61,12.21Z"/><path class="cls-48" d="M349.16,156.19c-11.93.26-47.89,1.4-48.52,43.33s8.35,57.29,14,63.56S326.2,275,337.82,278c3,3,6.24,4.2,11.34,4.86V156.19Z"/><path class="cls-51" d="M349.16,156.19c11.93,0.26,47.89,1.4,48.51,43.33s-8.34,57.29-14,63.56S372.12,275,360.49,278c-3,3-6.24,4.2-11.34,4.86V156.19Z"/><path class="cls-44" d="M381.39,176.56c-2.09-3.59-4.73-7.05-16.09-2.57s-29.89,15.29-51.12,13.5c-7.26,13.29-5,37.72-5,37.72L297,217.32s-2-27.78,2.51-36.75c-3.59-.6-6.58-4.19-6.28-12.85,4.48,0.6,7.17,4.18,13.15-.6s19.13-20.92,43-20.33,34.38,13.45,37.66,18.53c16.61,14.17,15.21,31.39,13.77,51.9l-12.12,8C389.54,216.69,387,186.25,381.39,176.56Z"/><path class="cls-48" d="M307.16,220.87c-1.08-2.79-2.4-4.74-5.86-5.46s-9.75,1-9.74,10.85,8.2,18.25,13.37,17.08S307.65,223.49,307.16,220.87Z"/><path class="cls-51" d="M304.86,224.11a5.77,5.77,0,0,0-4-3.37c-2.11-.44-5.15.6-5.14,6.58s4.21,11.13,7.36,10.42c1-.23,1.55-1.68,1.83-3.55-1.91-.56-3.1-2.8-2.7-5.21a4.91,4.91,0,0,1,2.79-3.8C304.91,224.51,304.86,224.11,304.86,224.11Z"/><path class="cls-51" d="M390.38,220.94c1.43-2.65,3.18-4.81,6.64-5.53s9.75,1,9.74,10.85-8.2,18.25-13.37,17.08S390.38,220.94,390.38,220.94Z"/><path class="cls-45" d="M393.45,224.11a5.77,5.77,0,0,1,4-3.37c2.11-.44,5.15.6,5.14,6.58s-4.21,11.13-7.36,10.42c-1-.23-1.55-1.68-1.83-3.55,1.91-.56,3.1-2.8,2.7-5.21a4.91,4.91,0,0,0-2.78-3.8C393.41,224.51,393.45,224.11,393.45,224.11Z"/><circle class="cls-7" cx="326.62" cy="224.38" r="3.97"/><circle class="cls-7" cx="371.69" cy="224.38" r="3.97"/><rect class="cls-7" x="318.42" y="204.33" width="16.42" height="5.17" rx="2.58" ry="2.58"/><rect class="cls-7" x="363.49" y="204.33" width="16.42" height="5.17" rx="2.58" ry="2.58"/><path class="cls-50" d="M364.38,245.28c0,8.06-6.81,14.6-15.22,14.6s-15.22-6.54-15.22-14.6h30.44Z"/><path class="cls-48" d="M426.92,286.54l-3.53-4.22a2.71,2.71,0,0,0-3.81-.35h0a2.7,2.7,0,0,0-.35,3.8l7,8.32c1.83,2.19,10.29,3.56,12.93,4.05,2.85,0.53,3.57-1.17,5-3.84l3.29-6.32,6-11.13a2.72,2.72,0,0,0-1.07-3.67h0a2.7,2.7,0,0,0-3.67,1.06L443,284.7l5.29-16.08a2.73,2.73,0,0,0-1.66-3.44h0a2.69,2.69,0,0,0-3.44,1.66l-3,9.22,2.37-8.87a2.73,2.73,0,0,0-1.85-3.34h0a2.69,2.69,0,0,0-3.34,1.85l-4.15,15.54,0.34-12.64a2.67,2.67,0,0,0-2.63-2.75h0a2.75,2.75,0,0,0-2.77,2.64l-0.43,16Z"/><path class="cls-52" d="M158.92,237.68a23.19,23.19,0,1,0-23.19-23.19A23.23,23.23,0,0,0,158.92,237.68Z"/><path class="cls-52" d="M245.47,237.68a23.19,23.19,0,1,0-23.19-23.19A23.23,23.23,0,0,0,245.47,237.68Z"/><path class="cls-48" d="M186.7,291c-1,.12-12,2.36-12.95,2.44-29.55,2.52-47.35-17-58.08-41.54q-0.43-1.2-.85-2.54c0-.16.07-0.32,0.09-0.49,1.15-.77,1.81-4.76,2-6.09l1.21-6.82a2.83,2.83,0,0,0-2.39-3.24h0a2.86,2.86,0,0,0-3,1.75,3.47,3.47,0,0,0-.45-0.19l-1.65-12.4a2.85,2.85,0,0,0-3.2-2.45h0a2.86,2.86,0,0,0-2.44,3.2l0.54,4.06-2.38-6.52a2.86,2.86,0,0,0-3.65-1.7h0a2.85,2.85,0,0,0-1.7,3.65l4.83,13.25L96.77,223A2.85,2.85,0,0,0,93,221.67h0a2.85,2.85,0,0,0-1.35,3.79l5.89,12.39-4.6-6.06a2.85,2.85,0,0,0-4-.54h0a2.86,2.86,0,0,0-.54,4l4.4,5.79a1.33,1.33,0,0,0,.2,1.61L98.25,251c1.19,1.89,2.1,3.14,3.57,3.42,10.63,31.48,32,57.87,74.56,57.61Z"/><path class="cls-8" d="M181.16,289.47c-1,.12-11.91.61-12.84,0.68a54.13,54.13,0,0,1-15.16-.74l-1.92,21.65a86.78,86.78,0,0,0,19.59,2Z"/><polygon class="cls-48" points="196.88 378.56 179.36 378.56 180.62 472.96 196.64 472.38 196.88 432.34 196.88 378.56"/><polygon class="cls-48" points="210.68 378.56 228.2 378.56 226.94 472.96 210.92 472.38 210.68 432.34 210.68 378.56"/><rect class="cls-43" x="172.15" y="381.39" width="62.95" height="29.89"/><path class="cls-8" d="M238.24,388.22H169.32V304.37a15.33,15.33,0,0,1,15.28-15.28H223a15.33,15.33,0,0,1,15.28,15.28v83.86Z"/><path class="cls-50" d="M183.77,289.1l2.21,2.95,14.22,20.39,3.59,5.15,3.59-5.15,14.22-20.39,2-3h-39Z"/><polygon class="cls-48" points="218 270.08 189.56 270.08 189.56 289.55 203.78 309.94 218 289.55 218 270.08"/><polygon class="cls-45" points="212.41 297.56 189.56 275.06 189.56 270.08 218 270.08 218 289.55 212.41 297.56"/><path class="cls-53" d="M227.6,468.72H210c-2,5.65-3.53,10.12-3,16.94h36.64C243.78,476.45,230.19,472.08,227.6,468.72Z"/><rect class="cls-7" x="206.42" y="483.47" width="37.69" height="2.23"/><path class="cls-54" d="M235.71,475.16a1.32,1.32,0,0,0,.6-2.57s-5.34-1.33-13.22,6.55A1.32,1.32,0,1,0,225,481C231.79,474.17,235.7,475.16,235.71,475.16Z"/><path class="cls-54" d="M232.07,472a1.32,1.32,0,0,0,.6-2.57s-5.34-1.33-13.22,6.55a1.32,1.32,0,1,0,1.87,1.87C228.15,471,232.06,472,232.07,472Z"/><path class="cls-53" d="M179.66,468.72h17.62c2,5.65,3.53,10.12,3,16.94H163.61C163.48,476.45,177.07,472.08,179.66,468.72Z"/><rect class="cls-7" x="163.15" y="483.47" width="37.69" height="2.23"/><path class="cls-54" d="M171.55,475.16a1.32,1.32,0,0,1-.6-2.57s5.34-1.33,13.22,6.55a1.32,1.32,0,1,1-1.87,1.87C175.47,474.17,171.56,475.16,171.55,475.16Z"/><path class="cls-54" d="M175.19,472a1.32,1.32,0,0,1-.6-2.57s5.34-1.33,13.22,6.55a1.32,1.32,0,1,1-1.87,1.87C179.11,471,175.2,472,175.19,472Z"/><path class="cls-48" d="M237.17,320.4c0,0.14,6.25,46.72,9.55,68.88l5.19,0.51,8-7.23c-3.56-24-8.81-63.85-8.83-64Z"/><path class="cls-8" d="M253,322.18l-16.84,3.14-6.44-34.57c12.67-2.17,18.52,9.83,19.77,15.5Z"/><path class="cls-48" d="M248.09,399.26l3.2-8.67a2.87,2.87,0,0,0-1.71-3.67h0a2.88,2.88,0,0,0-3.67,1.71l-3.2,8.67a2.86,2.86,0,0,0,1.71,3.67h0A2.88,2.88,0,0,0,248.09,399.26Z"/><path class="cls-48" d="M255.24,390.17L254.59,408a2.85,2.85,0,0,1-3,2.74h0a2.89,2.89,0,0,1-2.75-3l0.65-17.79a2.85,2.85,0,0,1,3-2.74h0A2.89,2.89,0,0,1,255.24,390.17Z"/><path class="cls-48" d="M258.76,385.94l-0.65,17.79a2.85,2.85,0,0,1-3,2.74h0a2.89,2.89,0,0,1-2.75-3L253,385.69a2.85,2.85,0,0,1,3-2.74h0A2.89,2.89,0,0,1,258.76,385.94Z"/><path class="cls-48" d="M260.22,382l-0.65,17.79a2.85,2.85,0,0,1-3,2.74h0a2.89,2.89,0,0,1-2.75-3l0.65-17.79a2.85,2.85,0,0,1,3-2.74h0A2.89,2.89,0,0,1,260.22,382Z"/><path class="cls-48" d="M203.78,176.56c10.13,0.22,40.64,1.19,41.17,36.77s-7.08,48.62-11.89,53.94-9.8,10.13-19.66,12.69c-2.57,2.58-5.29,3.56-9.62,4.12-4.33-.56-7-1.54-9.62-4.12-9.86-2.56-14.86-7.37-19.66-12.69s-12.42-18.36-11.89-53.94S193.65,176.78,203.78,176.56Z"/><path class="cls-51" d="M203.78,176.56c10.13,0.22,40.64,1.19,41.17,36.77s-7.08,48.62-11.89,53.94-9.8,10.13-19.66,12.69c-2.57,2.58-5.29,3.56-9.62,4.12V176.56Z"/><path class="cls-48" d="M168.14,231.45c-0.91-2.37-2-4-5-4.64s-8.27.88-8.26,9.21,7,15.49,11.35,14.5S168.56,233.68,168.14,231.45Z"/><path class="cls-51" d="M166.19,234.2a4.9,4.9,0,0,0-3.43-2.86c-1.79-.38-4.37.51-4.36,5.58s3.57,9.45,6.24,8.84c0.85-.19,1.31-1.42,1.55-3a3.81,3.81,0,0,1-2.29-4.42,4.17,4.17,0,0,1,2.36-3.23C166.23,234.55,166.19,234.2,166.19,234.2Z"/><path class="cls-51" d="M238.76,231.51c1.21-2.25,2.7-4.08,5.63-4.7s8.27,0.88,8.26,9.21-7,15.49-11.35,14.5S238.76,231.51,238.76,231.51Z"/><path class="cls-45" d="M241.37,234.2a4.9,4.9,0,0,1,3.43-2.86c1.79-.38,4.37.51,4.36,5.58s-3.57,9.45-6.24,8.84c-0.85-.19-1.31-1.42-1.55-3a3.81,3.81,0,0,0,2.29-4.42,4.16,4.16,0,0,0-2.36-3.23C241.34,234.55,241.37,234.2,241.37,234.2Z"/><path class="cls-55" d="M225.88,196.73c4,8.26,3.71,21.43,19.51,30,10.49-38.75-16.65-56.67-42.72-56.1-27.56.6-52.4,19.2-44.51,57.25,18.46-3.89,28.27-13.17,37.1-23.5-2.94,8.8-8.7,13.22-7.17,12.86C205.87,212.9,212.24,211.89,225.88,196.73Z"/><path class="cls-50" d="M215.73,255.8c-0.88,4.23-5.89,7.47-11.95,7.47s-11.07-3.24-11.95-7.47h23.89Z"/><path class="cls-44" d="M223.17,231.42a3.38,3.38,0,0,1,.93.13l0.66-1.25a0.65,0.65,0,0,1,1.16.61l-0.66,1.25,0,0,1.08-.82a0.65,0.65,0,1,1,.79,1l-1,.79h0l1.38-.33a0.65,0.65,0,0,1,.31,1.27l-1.3.31a3.47,3.47,0,0,1,0,.35A3.37,3.37,0,1,1,223.17,231.42Z"/><path class="cls-44" d="M221.13,224.41a1.74,1.74,0,1,1-.14-3.48,18.93,18.93,0,0,1,6.56,1.1,1.75,1.75,0,0,1-1.2,3.28A15,15,0,0,0,221.13,224.41Z"/><path class="cls-44" d="M184.39,231.42a3.38,3.38,0,0,0-.93.13l-0.66-1.25a0.65,0.65,0,0,0-1.16.61l0.66,1.25,0,0-1.08-.82a0.65,0.65,0,1,0-.79,1l1,0.79h0l-1.38-.33a0.65,0.65,0,1,0-.31,1.27l1.3,0.31a3.23,3.23,0,0,0,0,.35A3.37,3.37,0,1,0,184.39,231.42Z"/><path class="cls-44" d="M186.57,220.93a1.74,1.74,0,0,1-.14,3.48,15,15,0,0,0-5.22.89A1.75,1.75,0,0,1,180,222,18.93,18.93,0,0,1,186.57,220.93Z"/><path class="cls-56" d="M206.28,501.39L221.7,504a31.7,31.7,0,0,1-12.51,20.26,38.79,38.79,0,0,1-17.56,7.28A34.63,34.63,0,0,1,173,529.33a26.82,26.82,0,0,1-14.37-14.25c-4.33-10-3.32-18.73,0-25.34,3.05-6,9.09-11.57,15.94-13,3.06-.65,12.76-1,13.14,2.91,0.18,1.82-6.78,1.42-10.58,4.75a18.87,18.87,0,0,0-6.24,13C169,524,203.51,517.33,206.28,501.39Z"/><path class="cls-56" d="M210.65,462.39l17.55,90.92,25.35-4.85L240.35,480c-1.19-6.15-6-33-17.94-35.76C216.34,445.44,216.72,461.23,210.65,462.39Z"/><path class="cls-57" d="M238.77,538.74c-7,.08-14.59,2.42-15.15,10-0.3,4.1.82,9,4.83,9.09,3.36,0.11,4.15-.77,5.68-2.33a8.39,8.39,0,0,0,11.4.56c1.46,1.23,2.05,2,5.4,2s6-3.76,5.83-8.4C256.36,540,245.71,538.66,238.77,538.74Z"/><path class="cls-56" d="M223.06,462.39L205.5,553.31l-25.35-4.85L193.36,480c1.19-6.15,7-35.57,20.71-37.47C220.14,443.74,217,461.23,223.06,462.39Z"/><path class="cls-57" d="M194.94,538.74c7,0.08,14.59,2.42,15.15,10,0.3,4.1-.82,9-4.83,9.09-3.36.11-4.15-.77-5.68-2.33a8.39,8.39,0,0,1-11.4.56c-1.46,1.23-2.05,2-5.4,2s-6-3.76-5.83-8.4C177.35,540,188,538.66,194.94,538.74Z"/><rect class="cls-58" x="205.88" y="441.07" width="63.91" height="66.39" rx="14.23" ry="14.23"/><rect class="cls-58" x="170.42" y="492.66" width="96.13" height="25.77" transform="translate(-293 709.73) rotate(-88.39)"/><path class="cls-59" d="M218.8,542.79c7,0.08,14.59,2.42,15.15,10,0.3,4.1-.82,9-4.83,9.09-3.36.11-4.15-.77-5.68-2.33a8.39,8.39,0,0,1-11.4.56c-1.46,1.23-2.05,2-5.4,2s-6-3.76-5.83-8.4C201.2,544,211.86,542.71,218.8,542.79Z"/><rect class="cls-58" x="244.28" y="457.48" width="25.77" height="96.13" transform="translate(-14.1 7.43) rotate(-1.61)"/><path class="cls-59" d="M256.84,542.79c-7,.08-14.59,2.42-15.15,10-0.3,4.1.82,9,4.83,9.09,3.36,0.11,4.15-.77,5.68-2.33a8.39,8.39,0,0,0,11.4.56c1.46,1.23,2.05,2,5.4,2s6-3.76,5.83-8.4C274.44,544,263.79,542.71,256.84,542.79Z"/><path class="cls-53" d="M228.28,447.54h19.87v18.86a10,10,0,0,1-9.94,9.94h0a10,10,0,0,1-9.94-9.94V447.54Z"/><path class="cls-55" d="M236.39,451.26a1.83,1.83,0,0,1,3.65,0v16.23a1.83,1.83,0,0,1-3.65,0V451.26Z"/><path class="cls-60" d="M207.21,385.38c-12.21,9.13-5.86,28.58-4,36.3,1.66,7,3.19,15.58,11.88,21.29l23.1-4.25L261.38,443c8.69-5.71,10.22-14.24,11.88-21.29,1.82-7.72,8.17-27.17-4-36.3C254,374,222.41,374,207.21,385.38Z"/><path class="cls-61" d="M276.34,406.42c-0.58,6.11-2.27,11.84-3.08,15.26-1.66,7-3.19,15.58-11.88,21.29a7.41,7.41,0,0,1-8.3-5c0.41-1.46-4.75-4-4.64-5.48C249.24,421,249.22,404.89,276.34,406.42Z"/><path class="cls-56" d="M272,369.31c-4.68-.16-3.35-0.48-9-1.13-5.93-.69-7.3,3.88-5.48,12.55,8.4,39.91,20.49,39.91,28.89,0,1.83-8.67.46-13.24-5.48-12.55C275.35,368.83,276.68,369.16,272,369.31Z"/><path class="cls-56" d="M204.43,369.31c-4.69-.16-3.35-0.48-9-1.13-5.93-.69-7.3,3.88-5.48,12.55,8.4,39.91,20.49,39.91,28.89,0,1.83-8.67.46-13.24-5.48-12.55C207.78,368.83,209.11,369.16,204.43,369.31Z"/><path class="cls-59" d="M238.21,449c-0.79,3.79-3.59,7.65-11.83,7.53-12.46-.18-12.08-11.37-11.34-13.64,1-3,7.5-9.81,23.17.6,15.67-10.41,22.19-3.63,23.17-.6,0.73,2.27,1.12,13.45-11.34,13.64C241.81,456.66,239,452.8,238.21,449Z"/><path class="cls-62" d="M233.6,444.2h11a8.91,8.91,0,0,0,8.88-8.88h0a3.91,3.91,0,0,0-3.9-3.9h-21a3.91,3.91,0,0,0-3.9,3.9h0A8.91,8.91,0,0,0,233.6,444.2Z"/><path class="cls-63" d="M227.84,436.6a1.62,1.62,0,1,1,0-3.23H233a1.62,1.62,0,1,1,0,3.23h-5.16Z"/><path class="cls-64" d="M217.45,416.92a4.51,4.51,0,0,1,3,7.82,10,10,0,0,0-7.4-2.13A4.51,4.51,0,0,1,217.45,416.92Z"/><circle class="cls-1" cx="218.97" cy="420.12" r="1.55"/><path class="cls-64" d="M259,416.92a4.51,4.51,0,0,0-3,7.82,10,10,0,0,1,7.4-2.13A4.51,4.51,0,0,0,259,416.92Z"/><circle class="cls-1" cx="260.32" cy="420.12" r="1.55"/></svg>