<svg id="Back" xmlns="http://www.w3.org/2000/svg" xmlns:xlink="http://www.w3.org/1999/xlink" viewBox="0 0 600 570"><defs><style>.cls-1,.cls-12{fill:#fff;}.cls-2,.cls-4{fill:#dfeff4;}.cls-3{fill:#fddb00;}.cls-12,.cls-13,.cls-14,.cls-15,.cls-16,.cls-18,.cls-19,.cls-20,.cls-21,.cls-23,.cls-24,.cls-26,.cls-27,.cls-28,.cls-29,.cls-30,.cls-32,.cls-34,.cls-35,.cls-36,.cls-37,.cls-38,.cls-39,.cls-4,.cls-40,.cls-41,.cls-42,.cls-44,.cls-45,.cls-46,.cls-47,.cls-48,.cls-50,.cls-51,.cls-52,.cls-53,.cls-55,.cls-56,.cls-57,.cls-58,.cls-59,.cls-64,.cls-67,.cls-68,.cls-9,.cls-96,.cls-97{fill-rule:evenodd;}.cls-5{mask:url(#mask);}.cls-6,.cls-7{fill:#9dca00;}.cls-6{opacity:0.5;}.cls-14,.cls-8{fill:#471e04;}.cls-9{fill:#70a30a;}.cls-10,.cls-16{fill:#f5b800;}.cls-11,.cls-21{fill:#ff9;}.cls-13{fill:#5b8408;}.cls-15{fill:#fc0;}.cls-17,.cls-48{fill:#f1502d;}.cls-18{fill:#f6aa32;}.cls-19{fill:#cc3;}.cls-20,.cls-63{fill:#f5e68a;}.cls-22,.cls-58{fill:#9cc;}.cls-23,.cls-62{fill:#a44624;}.cls-24,.cls-43{fill:#333;}.cls-25,.cls-45{fill:#d4a15e;}.cls-26{fill:#c4d621;}.cls-27{fill:#4e2111;}.cls-28{fill:#78331a;}.cls-30{fill:#058e7f;}.cls-31{fill:#fcda9a;}.cls-32{fill:#07b09d;}.cls-33,.cls-40{fill:#d63d3d;}.cls-34{fill:#3b696a;}.cls-35{fill:#a6d0d1;}.cls-36{fill:#d48439;}.cls-37{fill:#9e5a29;}.cls-38{fill:#e44b4b;}.cls-39{fill:#b0642e;}.cls-41{fill:#f66;}.cls-42,.cls-61{fill:#f2d291;}.cls-44{fill:#fcc;}.cls-46{fill:#edba68;}.cls-47{fill:#366;}.cls-49,.cls-50{fill:#1f0f05;}.cls-51{fill:#804921;}.cls-52,.cls-65{fill:#ff6;}.cls-53{fill:#f69883;}.cls-54,.cls-55{fill:#ff1f1f;}.cls-56{fill:#aac905;}.cls-57{fill:#f5e97d;}.cls-59,.cls-60{fill:#bf3611;}.cls-64{fill:#eccf7c;}.cls-66{fill:#ff441f;}.cls-67{fill:#88b02c;}.cls-68{fill:#500d00;}.cls-69{fill:#216194;}.cls-70{fill:#017f9f;}.cls-71{fill:#76b629;}.cls-72{fill:#a53589;}.cls-73{fill:#024f9d;}.cls-74{fill:#50568c;}.cls-75{fill:#c6d200;}.cls-76{fill:#0369b2;}.cls-77{fill:#007d75;}.cls-78{fill:#008d6d;}.cls-79{fill:#008051;}.cls-80{fill:#46942b;}.cls-81{fill:#d5146e;}.cls-82{fill:#15a338;}.cls-83{fill:#0080c7;}.cls-84{fill:#0089d0;}.cls-85{fill:#e9bb00;}.cls-86{fill:#007632;}.cls-87{fill:#c51553;}.cls-88{fill:#593872;}.cls-89{fill:#f19000;}.cls-90{fill:#f9b800;}.cls-91{fill:#e43311;}.cls-92{fill:#b7c200;}.cls-93{fill:#e64e10;}.cls-94{fill:#079de1;}.cls-95{fill:#93bf1f;}.cls-96{fill:#8fdbf3;}.cls-97{fill:#c20212;}.cls-98{fill:#152e56;}</style><mask id="mask" x="-161.4" y="91.4" width="1087.71" height="713.35" maskUnits="userSpaceOnUse"><circle class="cls-1" cx="301.72" cy="330.39" r="238.99"/></mask></defs><title>registration</title><circle class="cls-2" cx="300" cy="332.01" r="238.99"/><circle class="cls-3" cx="438.86" cy="295.31" r="80.84"/><path class="cls-4" d="M538.13,168.86A24.22,24.22,0,0,0,519,178.25a19.58,19.58,0,0,0-19,16.1,11.59,11.59,0,1,0-1.77,23c28.22,0,62.52-1.53,93.54-1.53a8.94,8.94,0,1,0-1.8-17.7,18.13,18.13,0,0,0-29.2-13.77A24.27,24.27,0,0,0,538.13,168.86Z"/><path class="cls-4" d="M82.63,147.25a30.27,30.27,0,0,1,24,11.73,24.46,24.46,0,0,1,23.7,20.12,14.48,14.48,0,1,1,2.21,28.79c-35.26,0-78.12-1.92-116.88-1.92a11.17,11.17,0,1,1,2.25-22.11,22.66,22.66,0,0,1,36.48-17.21A30.33,30.33,0,0,1,82.63,147.25Z"/><path class="cls-4" d="M89.91,50.71a10.35,10.35,0,0,0-8.19,4,8.36,8.36,0,0,0-8.1,6.88,5,5,0,0,0-.75-0.06,5,5,0,1,0,0,9.9c12.06,0,26.71-.65,40-0.65a3.82,3.82,0,1,0,0-7.64,3.87,3.87,0,0,0-.77.08,7.75,7.75,0,0,0-12.47-5.88A10.37,10.37,0,0,0,89.91,50.71Z"/><g class="cls-5"><ellipse class="cls-6" cx="189.6" cy="640.52" rx="350.99" ry="164.22"/><ellipse class="cls-7" cx="254.61" cy="625.53" rx="349.38" ry="127.57"/><ellipse class="cls-6" cx="575.32" cy="640.52" rx="350.99" ry="164.22"/><ellipse class="cls-7" cx="370.48" cy="648.66" rx="272.66" ry="127.57"/></g><rect class="cls-8" x="152.94" y="477.67" width="4.13" height="25.81"/><path class="cls-9" d="M135.69,472a5.9,5.9,0,0,1,.8-2.44,6.45,6.45,0,0,1-2.81-5.92,5.8,5.8,0,0,1,3-4.56,6.22,6.22,0,0,1-.37-2.81,5.81,5.81,0,0,1,5.14-5.24,6.2,6.2,0,0,1-.18-2.22,5.85,5.85,0,0,1,6.74-5.22,6.39,6.39,0,0,1,2.22.75c2.55-3.23,9.66-4.25,12.46.19a6,6,0,0,1,1.52-.51,6.48,6.48,0,0,1,7.41,4.92,6.14,6.14,0,0,1,0,2.6,6.55,6.55,0,0,1,4.54,4.78,6,6,0,0,1-1.33,5.35,6.45,6.45,0,0,1,1.26,2.58,5.89,5.89,0,0,1-3.1,6.69,6.43,6.43,0,0,1,.89,2.08,5.86,5.86,0,0,1-4.6,7.19,6.15,6.15,0,0,1-2.31,0c-3.64,7-11.92,3.56-12.59.39a5.87,5.87,0,0,1-6.2,3.26,6.54,6.54,0,0,1-5.38-4.86,6.18,6.18,0,0,1-1.63,0A6.49,6.49,0,0,1,135.69,472Z"/><circle class="cls-10" cx="152.62" cy="452.42" r="2.69"/><circle class="cls-10" cx="163.65" cy="456.62" r="2.69"/><circle class="cls-10" cx="147.37" cy="471.06" r="2.69"/><circle class="cls-10" cx="159.98" cy="472.64" r="2.69"/><circle class="cls-10" cx="154.46" cy="463.45" r="2.69"/><circle class="cls-10" cx="167.46" cy="466.07" r="2.69"/><circle class="cls-10" cx="144.88" cy="460.16" r="2.69"/><rect class="cls-8" x="396.3" y="510.23" width="3.08" height="19.27"/><path class="cls-9" d="M383.42,506a4.4,4.4,0,0,1,.6-1.82,4.82,4.82,0,0,1-2.1-4.42,4.33,4.33,0,0,1,2.24-3.41,4.64,4.64,0,0,1-.28-2.1,4.34,4.34,0,0,1,3.84-3.91,4.63,4.63,0,0,1-.14-1.66,4.37,4.37,0,0,1,5-3.89,4.77,4.77,0,0,1,1.65.56c1.9-2.41,7.21-3.17,9.31.14a4.44,4.44,0,0,1,1.14-.38,4.84,4.84,0,0,1,5.53,3.67,4.58,4.58,0,0,1,0,1.94,4.89,4.89,0,0,1,3.39,3.57,4.45,4.45,0,0,1-1,4,4.82,4.82,0,0,1,.94,1.93,4.4,4.4,0,0,1-2.31,5,4.8,4.8,0,0,1,.66,1.55,4.38,4.38,0,0,1-3.43,5.37,4.59,4.59,0,0,1-1.72,0c-2.72,5.24-8.9,2.66-9.4.29a4.38,4.38,0,0,1-4.63,2.43,4.88,4.88,0,0,1-4-3.63,4.62,4.62,0,0,1-1.22,0A4.85,4.85,0,0,1,383.42,506Z"/><circle class="cls-11" cx="396.06" cy="491.37" r="2.01"/><circle class="cls-11" cx="404.3" cy="494.51" r="2.01"/><circle class="cls-11" cx="392.14" cy="505.3" r="2.01"/><circle class="cls-11" cx="401.56" cy="506.47" r="2.01"/><circle class="cls-11" cx="397.44" cy="499.61" r="2.01"/><circle class="cls-11" cx="407.15" cy="501.57" r="2.01"/><circle class="cls-11" cx="390.28" cy="497.16" r="2.01"/><rect class="cls-8" x="446.95" y="488.05" width="1.66" height="10.4"/><path class="cls-9" d="M440,485.76a2.38,2.38,0,0,1,.32-1,2.6,2.6,0,0,1-1.13-2.38,2.34,2.34,0,0,1,1.21-1.84,2.51,2.51,0,0,1-.15-1.13,2.34,2.34,0,0,1,2.07-2.11,2.5,2.5,0,0,1-.07-0.9,2.36,2.36,0,0,1,2.72-2.1,2.58,2.58,0,0,1,.89.3c1-1.3,3.89-1.71,5,.08a2.4,2.4,0,0,1,.61-0.2,2.61,2.61,0,0,1,3,2,2.47,2.47,0,0,1,0,1,2.64,2.64,0,0,1,1.83,1.93,2.4,2.4,0,0,1-.53,2.16,2.6,2.6,0,0,1,.51,1,2.37,2.37,0,0,1-1.25,2.7,2.59,2.59,0,0,1,.36.84,2.36,2.36,0,0,1-1.85,2.9,2.48,2.48,0,0,1-.93,0c-1.47,2.83-4.8,1.43-5.08.16a2.37,2.37,0,0,1-2.5,1.31,2.64,2.64,0,0,1-2.17-2,2.49,2.49,0,0,1-.66,0A2.62,2.62,0,0,1,440,485.76Z"/><circle class="cls-11" cx="446.83" cy="477.87" r="1.09"/><circle class="cls-11" cx="451.27" cy="479.56" r="1.09"/><circle class="cls-11" cx="444.71" cy="485.39" r="1.09"/><circle class="cls-11" cx="449.79" cy="486.02" r="1.09"/><circle class="cls-11" cx="447.57" cy="482.32" r="1.09"/><circle class="cls-11" cx="452.81" cy="483.38" r="1.09"/><circle class="cls-11" cx="443.7" cy="480.99" r="1.09"/><rect class="cls-8" x="193.42" y="486.85" width="2.94" height="18.37"/><path class="cls-9" d="M181.15,482.81a4.2,4.2,0,0,1,.57-1.74,4.59,4.59,0,0,1-2-4.21,4.13,4.13,0,0,1,2.14-3.25,4.43,4.43,0,0,1-.27-2,4.14,4.14,0,0,1,3.66-3.73,4.41,4.41,0,0,1-.13-1.58,4.16,4.16,0,0,1,4.8-3.71,4.55,4.55,0,0,1,1.58.53c1.81-2.3,6.88-3,8.87.13a4.23,4.23,0,0,1,1.08-.36,4.61,4.61,0,0,1,5.27,3.5,4.37,4.37,0,0,1,0,1.85,4.66,4.66,0,0,1,3.23,3.4,4.24,4.24,0,0,1-.94,3.81,4.59,4.59,0,0,1,.9,1.84,4.19,4.19,0,0,1-2.21,4.77,4.58,4.58,0,0,1,.63,1.48,4.17,4.17,0,0,1-3.27,5.12,4.38,4.38,0,0,1-1.64,0c-2.59,5-8.48,2.53-9,.28a4.18,4.18,0,0,1-4.41,2.32,4.66,4.66,0,0,1-3.83-3.46,4.4,4.4,0,0,1-1.16,0A4.62,4.62,0,0,1,181.15,482.81Z"/><circle class="cls-10" cx="193.2" cy="468.87" r="1.92"/><circle class="cls-10" cx="201.05" cy="471.86" r="1.92"/><circle class="cls-10" cx="189.46" cy="482.14" r="1.92"/><circle class="cls-10" cx="198.43" cy="483.27" r="1.92"/><circle class="cls-10" cx="194.51" cy="476.72" r="1.92"/><circle class="cls-10" cx="203.76" cy="478.59" r="1.92"/><circle class="cls-10" cx="187.68" cy="474.38" r="1.92"/><path class="cls-4" d="M532.92,91.83a17.85,17.85,0,0,0-14.13,6.92,14.43,14.43,0,0,0-14,11.87,8.67,8.67,0,0,0-1.3-.1,8.54,8.54,0,1,0,0,17.08c20.8,0,46.08-1.13,68.95-1.13a6.59,6.59,0,1,0,0-13.18,6.68,6.68,0,0,0-1.32.13,13.36,13.36,0,0,0-21.52-10.15A17.89,17.89,0,0,0,532.92,91.83Z"/><path class="cls-12" d="M449.81,370.21a17.85,17.85,0,0,0-14.13,6.92,14.43,14.43,0,0,0-14,11.87,8.67,8.67,0,0,0-1.3-.1,8.54,8.54,0,1,0,0,17.08c20.8,0,46.08-1.13,68.95-1.13a6.59,6.59,0,1,0,0-13.18,6.68,6.68,0,0,0-1.32.13,13.36,13.36,0,0,0-21.52-10.15A17.89,17.89,0,0,0,449.81,370.21Z"/><path class="cls-12" d="M153,369.27a15.23,15.23,0,0,0-12.05,5.9A12.31,12.31,0,0,0,129,385.3a7.4,7.4,0,0,0-1.11-.08,7.29,7.29,0,1,0,0,14.57c17.74,0,39.31-1,58.82-1a5.62,5.62,0,1,0,0-11.24,5.7,5.7,0,0,0-1.13.11A11.4,11.4,0,0,0,167.24,379,15.26,15.26,0,0,0,153,369.27Z"/><path class="cls-12" d="M215.67,220.63a23.91,23.91,0,0,0-18.92,9.26A19.32,19.32,0,0,0,178,245.78a11.61,11.61,0,0,0-1.74-.13,11.44,11.44,0,1,0,0,22.87c27.85,0,61.7-1.51,92.32-1.51a8.82,8.82,0,1,0,0-17.65,8.94,8.94,0,0,0-1.77.18A17.9,17.9,0,0,0,238,235.95,24,24,0,0,0,215.67,220.63Z"/><polygon class="cls-13" points="196.6 523.67 204.97 523.67 205.01 515.26 196.6 523.67"/><path class="cls-14" d="M199.32,529.07H205a0.81,0.81,0,1,1,0,1.61h-5.65v2.37h-1.61V520.46a0.81,0.81,0,1,1,1.61,0v5.38H205a0.81,0.81,0,0,1,0,1.61h-5.65v1.61Z"/><polygon class="cls-15" points="204.97 533.1 204.97 513.74 224.33 494.38 250.14 520.2 250.14 533.1 204.97 533.1"/><polygon class="cls-16" points="250.14 520.2 250.14 533.1 285.99 533.1 285.99 513.74 262.35 513.74 268.39 520.2 250.14 520.2"/><polygon class="cls-13" points="270 494.38 224.33 494.38 250.14 520.2 268.39 520.2 262.35 513.74 289.36 513.74 270 494.38"/><rect class="cls-10" x="250.34" y="485.34" width="10.67" height="17.28"/><rect class="cls-10" x="247.38" y="480.93" width="16.6" height="4.71"/><rect class="cls-1" x="210.84" y="514" width="5.77" height="13.22"/><rect class="cls-1" x="221.14" y="514" width="5.77" height="13.22"/><rect class="cls-17" x="233.13" y="517.09" width="5.77" height="16.01"/><rect class="cls-1" x="256.24" y="523.79" width="5.77" height="5.17"/><rect class="cls-1" x="272.49" y="518.03" width="9.61" height="10.14"/><path class="cls-18" d="M272.49,522.58a0.81,0.81,0,0,1,0-1.61h9.61a0.81,0.81,0,0,1,0,1.61h-9.61Z"/><path class="cls-19" d="M223.61,493.63a1.07,1.07,0,0,1,1.52,0L251,519.54a1.07,1.07,0,0,1-1.52,1.52l-25.1-25.16-28.28,28.28a1.07,1.07,0,1,1-1.52-1.52Z"/><path class="cls-19" d="M250.14,521.27a1.07,1.07,0,0,1,0-2.15h18.25a1.07,1.07,0,0,1,0,2.15H250.14Z"/><path class="cls-19" d="M262.35,514.82a1.07,1.07,0,0,1,0-2.15h27a1.07,1.07,0,0,1,0,2.15h-27Z"/><path class="cls-20" d="M356.8,421.12c-4.28,4.22-9.41,9.69-10.45,15-1,4.89,1.62,10.37,8.73,11.47,7.17,0.6,11-4.13,11.17-9.11,0.24-5.45-3.46-12-6.63-17.07l-1.41-.17Z"/><path class="cls-21" d="M356.8,421.12c-4.28,4.22-9.41,9.69-10.45,15a9.75,9.75,0,0,0,.73,6.08,11.44,11.44,0,0,0,5.61,2.35c7.17,0.6,11-4.13,11.17-9.11,0.2-4.44-2.23-9.59-4.85-14.11l-0.81-.1Z"/><path class="cls-20" d="M239.15,407.15c-4.28,4.22-9.4,9.69-10.45,15-1,4.89,1.62,10.37,8.73,11.47,7.17,0.6,11-4.13,11.17-9.11,0.24-5.45-3.46-12-6.63-17.07l-1.41-.17Z"/><path class="cls-21" d="M239.15,407.15c-4.28,4.22-9.4,9.69-10.45,15a9.76,9.76,0,0,0,.73,6.08,11.44,11.44,0,0,0,5.61,2.35c7.17,0.6,11-4.13,11.17-9.11,0.2-4.44-2.23-9.59-4.85-14.11l-0.81-.1Z"/><rect class="cls-22" x="276.99" y="330" width="159.98" height="3.53" transform="translate(-61.53 581.46) rotate(-73.72)"/><rect class="cls-22" x="272.95" y="242.01" width="3.53" height="159.98" transform="translate(-15.06 13.49) rotate(-2.74)"/><rect class="cls-22" x="308.25" y="332.63" width="159.98" height="3.53" transform="translate(-66.3 570.93) rotate(-68.23)"/><rect class="cls-22" x="228.85" y="235.7" width="3.53" height="159.98" transform="translate(-42.82 36.27) rotate(-8.23)"/><path class="cls-23" d="M314.19,383.78a12,12,0,0,0,4.1,3c2.34-5.06,5.21-14.71,8-23.87l-5.25-.62A150.41,150.41,0,0,1,314.19,383.78Z"/><path class="cls-16" d="M322.53,385.92l22.27,2.64L348,361.3a5,5,0,0,0-4.35-5.53l-12.4-1.47a5,5,0,0,0-5.53,4.35Z"/><path class="cls-24" d="M320,411.45l8.78,1a19,19,0,0,1-.15,6.56l-15.36-1.82C313.69,413.7,319.79,413.61,320,411.45Z"/><rect class="cls-25" x="320.39" y="409.55" width="1.29" height="15.89" transform="translate(-131.39 687.09) rotate(-83.23)"/><path class="cls-24" d="M341.25,414l-8.78-1a19,19,0,0,0-1.39,6.42l15.36,1.82C346.91,417.64,341,416.13,341.25,414Z"/><rect class="cls-25" x="338.24" y="411.67" width="1.29" height="15.89" transform="translate(-117.76 706.67) rotate(-83.23)"/><path class="cls-13" d="M345.19,385.57l-22.33-2.65-3.38,28.51,10.07,1.19,2.12-24.41,3.72,0.44-3.65,24.23,10.07,1.19Z"/><polygon class="cls-26" points="326.46 383.6 327.59 384.85 323.05 389.22 321.92 387.97 326.46 383.6"/><polygon class="cls-26" points="341.52 385.39 340.13 386.34 343.52 391.65 344.91 390.7 341.52 385.39"/><path class="cls-12" d="M343.56,355.76l0,0.17,0,0.17-0.08.2a6.28,6.28,0,0,1-12-1.43l0-.21,0-.17,0-.17,2.88,0.34a3.42,3.42,0,0,0,1,1.72,3.42,3.42,0,0,0,4.09.49,3.42,3.42,0,0,0,1.34-1.45Z"/><path class="cls-23" d="M333.27,351.79l9.07,1.08c0,0.11,0,.23.06,0.34l-0.3,2.56a4.85,4.85,0,0,1-9.28-1.1l0.3-2.56Z"/><path class="cls-27" d="M333.31,352.53l9,0.34c0,0.11,0,.23.06,0.34l-0.3,2.56a4.85,4.85,0,0,1-3.91,3Z"/><path class="cls-16" d="M320.14,363.94l5.38,1.68,3.44-11c-4.05-1.2-6.42,2.49-7.05,4.29Z"/><path class="cls-23" d="M341.24,323.41c-3-.29-12.18-1.09-13.6,9.52s0.39,14.77,1.64,16.53A11,11,0,0,0,334.7,354a4.44,4.44,0,0,0,2.73,1.57Z"/><path class="cls-28" d="M341.24,323.41c3,0.43,12.1,1.8,11,12.44s-3.84,14.27-5.46,15.69a11,11,0,0,1-6.32,3.09,4.44,4.44,0,0,1-3,.89Z"/><path class="cls-23" d="M328.65,338.55a1.89,1.89,0,0,0-1.32-1.56c-0.86-.29-2.5,0-2.79,2.46s1.53,4.87,2.88,4.73S328.69,339.23,328.65,338.55Z"/><path class="cls-28" d="M328,339.3a1.47,1.47,0,0,0-.92-1c-0.52-.18-1.32,0-1.5,1.51s0.73,2.95,1.55,2.86a1,1,0,0,0,.57-0.84,1.15,1.15,0,0,1-.53-1.4,1.26,1.26,0,0,1,.82-0.88C328,339.4,328,339.3,328,339.3Z"/><path class="cls-28" d="M349.74,341.07a2.42,2.42,0,0,1,1.85-1.2c0.9-.08,2.44.56,2.14,3s-2.63,4.38-3.9,3.93S349.74,341.07,349.74,341.07Z"/><path class="cls-27" d="M350.42,342a1.47,1.47,0,0,1,1.13-.73c0.55,0,1.29.31,1.11,1.82s-1.4,2.7-2.18,2.42a1,1,0,0,1-.36-1,1.15,1.15,0,0,0,.84-1.24,1.26,1.26,0,0,0-.59-1Z"/><path class="cls-29" d="M343.81,338.4l1.85,0.22a0.66,0.66,0,0,0,.73-0.58h0a0.66,0.66,0,0,0-.58-0.73l-1.85-.22a0.66,0.66,0,0,0-.73.58h0A0.66,0.66,0,0,0,343.81,338.4Z"/><path class="cls-12" d="M343.89,346.63c-0.24,2-2.83,3.42-5.77,3.07s-5.14-2.29-4.89-4.33Z"/><path class="cls-29" d="M333.23,337.15l1.85,0.22a0.66,0.66,0,0,0,.73-0.58h0a0.66,0.66,0,0,0-.58-0.73l-1.85-.22a0.66,0.66,0,0,0-.73.58h0A0.66,0.66,0,0,0,333.23,337.15Z"/><path class="cls-29" d="M327.54,335.9c-1.74-11.29,6.39-15.55,14-14.65s14.47,6.94,10.14,17.51c0.22-2.3.42-5.11-.49-6.73-1.51-2.75-5.69-4.92-10.3-5.29-4.56-.72-9.14.41-11.25,2.73C328.34,330.84,327.87,333.61,327.54,335.9Z"/><circle cx="344.9" cy="341.69" r="1.03" transform="translate(-35.06 643.91) rotate(-83.23)"/><path class="cls-29" d="M346.31,341.73a0.32,0.32,0,1,0,.45-0.45l0,0a2.48,2.48,0,0,0-3.65-.37,0.32,0.32,0,0,0,.35.53,1.93,1.93,0,0,1,2.85.29Z"/><circle cx="333.4" cy="340.32" r="1.03" transform="translate(-43.85 631.28) rotate(-83.23)"/><path class="cls-29" d="M332,340a0.32,0.32,0,1,1-.33-0.54l0,0a2.48,2.48,0,0,1,3.63.5,0.32,0.32,0,1,1-.47.43,1.93,1.93,0,0,0-2.84-.39Z"/><path class="cls-23" d="M353.64,388.46a12,12,0,0,1-4.69,1.95c-1.09-5.47-1.62-15.52-2.21-25.09l5.25,0.62A150.41,150.41,0,0,0,353.64,388.46Z"/><path class="cls-16" d="M352.5,367.78l-5.62.37-0.76-11.53c4.22-.22,5.66,3.93,5.85,5.83Z"/><path class="cls-30" d="M306.22,407.49l-5.71-.68a12.06,12.06,0,0,0-1.61,5.37l11.87,1.41C311.16,410.62,306.93,408.68,306.22,407.49Z"/><rect class="cls-31" x="304.49" y="406.4" width="0.73" height="12.3" transform="translate(-140.75 666.64) rotate(-83.23)"/><path class="cls-32" d="M308.6,409.89a0.43,0.43,0,0,0,.29-0.81s-1.68-.64-4.53,1.61a0.43,0.43,0,1,0,.53.68C307.36,409.42,308.59,409.89,308.6,409.89Z"/><path class="cls-32" d="M307.54,408.74a0.43,0.43,0,0,0,.29-0.81s-1.68-.64-4.53,1.61a0.43,0.43,0,1,0,.53.68C306.31,408.27,307.53,408.74,307.54,408.74Z"/><path class="cls-30" d="M290.69,405.65l5.71,0.68a12.06,12.06,0,0,1,.31,5.6l-11.87-1.41C285.15,407.53,289.72,406.64,290.69,405.65Z"/><rect class="cls-8" x="290.47" y="404.73" width="0.73" height="12.3" transform="translate(-151.47 651.26) rotate(-83.23)"/><path class="cls-32" d="M287.81,407.43a0.43,0.43,0,1,1-.1-0.85s1.78-.22,4,2.63a0.43,0.43,0,0,1-.68.53C289.12,407.26,287.81,407.43,287.81,407.43Z"/><path class="cls-32" d="M289.11,406.55a0.43,0.43,0,0,1-.09-0.85s1.78-.23,4,2.63a0.43,0.43,0,1,1-.68.53C290.42,406.38,289.11,406.55,289.11,406.55Z"/><rect class="cls-33" x="291.24" y="388.82" width="29.53" height="9.67" transform="translate(-120.97 651.13) rotate(-83.23)"/><rect class="cls-33" x="279.46" y="387.42" width="29.53" height="9.67" transform="translate(-129.97 638.19) rotate(-83.23)"/><path class="cls-34" d="M312.26,399l-25.38-3,6.77-44a5.06,5.06,0,0,1,5.54-4.36l12.43,1.48a5.06,5.06,0,0,1,4.36,5.54Z"/><path class="cls-35" d="M321.51,381.33a12,12,0,0,1-4.69,1.95c-1.41-7.09-1.88-21.87-2.77-33.33,4.19-.22,5.75,3.89,5.81,5.78A156.51,156.51,0,0,0,321.51,381.33Z"/><path class="cls-35" d="M282.27,376.68a12,12,0,0,0,4.1,3c3-6.56,6.95-20.82,10.5-31.75-4-1.19-6.5,2.44-7,4.26A156.47,156.47,0,0,1,282.27,376.68Z"/><path class="cls-36" d="M300.47,342.12l11.05,1.31-1.18,10c-0.87,7.31-11.92,6-11.05-1.31Z"/><path class="cls-37" d="M309.58,355.74l-9.34-11.68,0.23-1.94,11.05,1.31-1.18,10A5.94,5.94,0,0,1,309.58,355.74Z"/><path class="cls-38" d="M320.12,323.59c-1.53,2.93-15.8,14-22.78,20-1.36,1.17-4.8,2.13-5.57,5.17-1.29,5.07,7.07,8.61,11.35,9.08,7.38,0.8,14.37,1.86,17.42-4.44,0.54-1.12.26-4.56-2.47-5.31C321,341.36,320.83,328.23,320.12,323.59Z"/><path class="cls-36" d="M309.28,315.14c3,0.42,12,1.79,10.93,12.37s-3.82,14.19-5.43,15.6a11,11,0,0,1-6.29,3.08,4,4,0,0,1-5.71-.68,11,11,0,0,1-5.39-4.46c-1.24-1.75-3-5.89-1.63-16.44S306.26,314.85,309.28,315.14Z"/><path class="cls-39" d="M309.28,315.14c3,0.42,12,1.79,10.93,12.37s-3.82,14.19-5.43,15.6a11,11,0,0,1-6.29,3.08,4.41,4.41,0,0,1-3,.88Z"/><path class="cls-40" d="M317.4,339.38a11.66,11.66,0,0,1-8.91,6.8,4,4,0,0,1-5.71-.68,11.66,11.66,0,0,1-7.07-8.7h0c0,3.54,4.74,11.7,6.88,16.24,9.82,1.22,13.25-8.25,14.82-13.66h0Z"/><path class="cls-41" d="M296.76,320.82c-2.3,15.88,1.36,32.08,21.32,27.3-4.51,8.89-12.34,7.84-14,7.48a12.33,12.33,0,0,1-9.61-11C293.42,336.28,293.69,328.32,296.76,320.82Z"/><path class="cls-12" d="M296.52,332.37c1.95-7.11,6.09-8.85,11.72-8.44l0.84-7.1C300,315.8,295.62,325.67,296.52,332.37Z"/><path class="cls-41" d="M295.7,336.81c1-12.27,5.88-16.18,12.86-15.67l0.71-6c-3-.29-12.11-1.08-13.52,9.47C295.7,325,293.83,332,295.7,336.81Z"/><path class="cls-12" d="M317.65,334.87c-0.23-7.37-3.85-10-9.42-11l0.84-7.1c8.92,1.12,11,12.06,8.76,18.42C317.79,335.36,317.69,335.15,317.65,334.87Z"/><path class="cls-38" d="M317.4,339.38c1.86-12.17-1.93-17.11-8.84-18.25l0.71-6c3,0.42,12,1.79,10.93,12.37C320.16,327.94,320.34,335.16,317.4,339.38Z"/><path class="cls-12" d="M309.72,339.69a3.41,3.41,0,0,1-6.62-.79Z"/><path class="cls-29" d="M314.19,334.39a0.32,0.32,0,0,0,.45-0.45l0,0a2.49,2.49,0,0,0-3.67-.37,0.32,0.32,0,1,0,.36.53,2,2,0,0,1,2.86.29Z"/><circle cx="312.68" cy="334.19" r="0.96" transform="translate(-56.04 605.3) rotate(-83.23)"/><path class="cls-29" d="M314.38,333.24a0.19,0.19,0,1,0-.32-0.23l-0.42.58a0.19,0.19,0,1,0,.32.23Z"/><path class="cls-29" d="M314.81,333.46a0.19,0.19,0,1,0-.25-0.29l-0.65.56a0.19,0.19,0,1,0,.26.29Z"/><path class="cls-29" d="M312.1,330.14a0.46,0.46,0,1,0-.07.91,8.33,8.33,0,0,1,2.07.72,0.46,0.46,0,0,0,.41-0.82A6.64,6.64,0,0,0,312.1,330.14Z"/><path class="cls-29" d="M300,332.7a0.32,0.32,0,0,1-.33-0.55l0,0a2.49,2.49,0,0,1,3.65.5,0.32,0.32,0,0,1-.47.43,2,2,0,0,0-2.85-.39Z"/><circle cx="301.51" cy="332.86" r="0.96" transform="translate(-64.57 593.04) rotate(-83.23)"/><path class="cls-29" d="M300.08,331.54a0.19,0.19,0,1,1,.36-0.15l0.27,0.66a0.19,0.19,0,1,1-.36.15Z"/><path class="cls-29" d="M299.61,331.66a0.19,0.19,0,1,1,.32-0.23l0.5,0.7a0.19,0.19,0,1,1-.32.23Z"/><path class="cls-29" d="M303,329.07a0.46,0.46,0,1,1-.14.9,8.34,8.34,0,0,0-2.19.22,0.46,0.46,0,0,1-.21-0.89A6.65,6.65,0,0,1,303,329.07Z"/><rect x="257.05" y="328.83" width="30.33" height="24.06" transform="translate(-98.35 571) rotate(-83.23)"/><polygon class="cls-42" points="269.64 377.64 275.22 378.3 271.25 408.32 266.17 407.53 267.61 394.77 269.64 377.64"/><polygon class="cls-42" points="265.25 377.12 259.67 376.45 256.5 406.57 261.62 406.99 263.21 394.25 265.25 377.12"/><path class="cls-34" d="M256.45,405.19l5.61,0.67a11.85,11.85,0,0,1,.31,5.51L250.69,410C251,407,255.5,406.17,256.45,405.19Z"/><rect class="cls-43" x="256.23" y="404.29" width="0.72" height="12.09" transform="translate(-181.13 616.77) rotate(-83.23)"/><path class="cls-34" d="M271.72,407l-5.61-.67a11.85,11.85,0,0,0-1.59,5.28L276.19,413C276.58,410.08,272.42,408.17,271.72,407Z"/><rect class="cls-43" x="270.02" y="405.93" width="0.72" height="12.09" transform="translate(-170.6 631.9) rotate(-83.23)"/><path class="cls-44" d="M256.39,376.72l22,2.61,2.84-23.91a4.92,4.92,0,0,0-4.29-5.45l-12.22-1.45a4.92,4.92,0,0,0-5.45,4.29Z"/><path class="cls-42" d="M259,357.59s-3.76,14.65-5.65,21.58l-1.67,0-2.27-2.6c2-7.5,5.22-20,5.23-20Z"/><path class="cls-44" d="M253.89,357.56l5.25,1.64,3.36-10.77c-4-1.17-6.27,2.43-6.88,4.19Z"/><path class="cls-42" d="M252.55,382.3l-0.69-2.88a0.92,0.92,0,0,1,.68-1.1h0a0.92,0.92,0,0,1,1.1.68l0.69,2.88a0.92,0.92,0,0,1-.68,1.1h0A0.92,0.92,0,0,1,252.55,382.3Z"/><path class="cls-42" d="M250.61,379.13l-0.46,5.69a0.91,0.91,0,0,0,.84,1h0a0.93,0.93,0,0,0,1-.85l0.46-5.69a0.91,0.91,0,0,0-.84-1h0A0.93,0.93,0,0,0,250.61,379.13Z"/><path class="cls-42" d="M249.65,377.65l-0.46,5.69a0.91,0.91,0,0,0,.84,1h0a0.93,0.93,0,0,0,1-.85l0.46-5.69a0.91,0.91,0,0,0-.84-1h0A0.93,0.93,0,0,0,249.65,377.65Z"/><path class="cls-42" d="M249.34,376.33L248.87,382a0.91,0.91,0,0,0,.84,1h0a0.93,0.93,0,0,0,1-.85l0.46-5.69a0.91,0.91,0,0,0-.84-1h0A0.93,0.93,0,0,0,249.34,376.33Z"/><path class="cls-12" d="M279.06,350.4v0.09c0,0.21,0,.39,0,0.55a6.47,6.47,0,0,1-3.12,4.69,9.62,9.62,0,0,1-11.61-1.38,6.47,6.47,0,0,1-1.93-5.29c0-.15,0-0.33.09-0.54l0-.08a12.09,12.09,0,0,1,3.36,0l2.52,0.3-0.13,1.1-1.1-.13-1.42-.17c-0.35,0-.7-0.07-1-0.09h-0.09a4.32,4.32,0,0,0,1.33,3.39,7.44,7.44,0,0,0,8.83,1,4.32,4.32,0,0,0,2.08-3l-0.09,0c-0.34-.07-0.69-0.12-1-0.16l-1.42-.17-1.1-.13,0.13-1.1,2.52,0.3A12.06,12.06,0,0,1,279.06,350.4Z"/><path class="cls-42" d="M277.94,350a4.82,4.82,0,0,1,0,.89c-0.38,3.23-3.93,5.47-7.92,5s-6.92-3.48-6.53-6.71a4.82,4.82,0,0,1,.19-0.87,13.87,13.87,0,0,1,2.18.1l1.42,0.17,0.47-3.94,0.11-.27,7,0.83c0,0.09,0,.19,0,0.29l-0.47,3.94,1.42,0.17A13.87,13.87,0,0,1,277.94,350Z"/><path class="cls-45" d="M275.3,354.8l-7.64-9.73,0-.22,1.59,0,0.11-.27,5.41,0.64c0,0.09,0,.19,0,0.29l-0.47,3.94,1.42,0.17a13.87,13.87,0,0,1,2.14.42,4.82,4.82,0,0,1,0,.89A5.39,5.39,0,0,1,275.3,354.8Z"/><path class="cls-42" d="M274.5,317.74c-2.89-.28-11.62-1-13,9.08s0.37,14.09,1.56,15.77a10.54,10.54,0,0,0,5.17,4.28,3.81,3.81,0,0,0,5.48.65,10.54,10.54,0,0,0,6-3c1.55-1.35,4.16-4.81,5.21-15S277.38,318.14,274.5,317.74Z"/><path class="cls-46" d="M274.5,317.74c2.88,0.41,11.54,1.71,10.49,11.87s-3.66,13.61-5.21,15a10.54,10.54,0,0,1-6,2.95,4.23,4.23,0,0,1-2.88.85Z"/><path class="cls-42" d="M262.49,332.17a1.8,1.8,0,0,0-1.26-1.49c-0.82-.28-2.39,0-2.67,2.34s1.46,4.65,2.74,4.51S262.54,332.82,262.49,332.17Z"/><path class="cls-29" d="M280.12,324.23c0.87,2.49.33,6.23,4.55,9.19,4.3-10.68-2.83-16.71-10.27-17.43-7.87-.76-14.2,3.76-13.24,14.87C264,327.73,278.55,325.6,280.12,324.23Z"/><path class="cls-12" d="M275.74,341.17a4,4,0,0,1-7.92-.94Z"/><path class="cls-47" d="M276.66,379l-18.57-2.2-1.39,10.84,18.79,2.23Z"/><path class="cls-29" d="M272.74,331.5a49.29,49.29,0,0,1-11.06-2.89l1.08-6.1c3.38-7.4,11.74-5.82,11.74-5.82s8.49,0.42,10.05,8.41l-0.37,6.18c-0.75.12-2.1,0.15-2.92,0.22-0.48,0,.23-2.51-1.1-5.63,0.38,3.13-.2,5.79-0.78,5.79C277.4,331.7,274.63,331.67,272.74,331.5Z"/><path class="cls-12" d="M266.7,361.4a8,8,0,0,0-2.17-2.13c-0.62-.31-0.7,3-0.55,3.87-0.08,1-.72,2.26.56,4.56,1.2,2.15,2.74,3.16,3.71,2.76,0.85,0.62,2.59,0,4.26-1.81s1.45-3.29,1.61-4.3c0.35-.83,1.05-4.05.37-3.89a8,8,0,0,0-2.6,1.56A5.79,5.79,0,0,0,266.7,361.4Z"/><path class="cls-44" d="M267.47,367.78a0.28,0.28,0,1,1-.53.16,2.34,2.34,0,0,0-1.87-1.46,0.28,0.28,0,1,1,.11-0.54A2.91,2.91,0,0,1,267.47,367.78Z"/><path class="cls-44" d="M269.9,368.3a0.28,0.28,0,0,1-.48-0.28,2.91,2.91,0,0,1,2.66-1.26,0.28,0.28,0,1,1,0,.55A2.35,2.35,0,0,0,269.9,368.3Z"/><path class="cls-44" d="M268.3,370.14a2.81,2.81,0,0,1-.66-0.72c0-.51,1.56-0.33,1.46.17A2.8,2.8,0,0,1,268.3,370.14Z"/><path class="cls-48" d="M249.73,374.84l4.29,1.33a0.89,0.89,0,0,1,.59,1.12h0a0.89,0.89,0,0,1-1.12.59l-4.29-1.33a0.89,0.89,0,0,1-.59-1.12h0A0.89,0.89,0,0,1,249.73,374.84Z"/><path class="cls-46" d="M261.86,332.85a1.41,1.41,0,0,0-.88-0.93c-0.5-.17-1.26,0-1.43,1.44s0.7,2.81,1.48,2.73a1,1,0,0,0,.54-0.81,1.09,1.09,0,0,1-.5-1.34,1.19,1.19,0,0,1,.78-0.84C261.86,332.95,261.86,332.85,261.86,332.85Z"/><path class="cls-29" d="M278.11,334.62a1,1,0,0,1,.26.07l0.23-.33a0.19,0.19,0,0,1,.31.21l-0.23.33h0l0.34-.2a0.19,0.19,0,0,1,.19.32l-0.32.19h0l0.41,0a0.19,0.19,0,0,1,0,.37l-0.38,0a0.92,0.92,0,0,1,0,.1A1,1,0,1,1,278.11,334.62Z"/><path class="cls-29" d="M277.76,332.55a0.5,0.5,0,1,1,.08-1,5.43,5.43,0,0,1,1.83.53,0.5,0.5,0,0,1-.45.89A4.31,4.31,0,0,0,277.76,332.55Z"/><path class="cls-29" d="M267.06,333.31a1,1,0,0,0-.27,0l-0.15-.38a0.19,0.19,0,0,0-.35.13l0.15,0.38h0l-0.28-.27a0.19,0.19,0,0,0-.26.27l0.27,0.26h0l-0.38-.14a0.19,0.19,0,0,0-.13.35l0.36,0.13a0.92,0.92,0,0,0,0,.1A1,1,0,1,0,267.06,333.31Z"/><path class="cls-29" d="M268,330.39a0.5,0.5,0,1,1-.16,1,4.31,4.31,0,0,0-1.52.08,0.5,0.5,0,0,1-.23-1A5.43,5.43,0,0,1,268,330.39Z"/><path class="cls-29" d="M279.44,335.78a0.32,0.32,0,1,0,.34-0.55l0,0a2.52,2.52,0,0,0-3.7.46,0.32,0.32,0,0,0,.47.44,2,2,0,0,1,2.89-.36Z"/><path class="cls-29" d="M265.48,334.12a0.32,0.32,0,1,1-.21-0.61h0a2.52,2.52,0,0,1,3.49,1.32,0.32,0.32,0,0,1-.56.32,2,2,0,0,0-2.72-1h0Z"/><path class="cls-42" d="M280,360.16A165.74,165.74,0,0,0,284.56,383a1.49,1.49,0,0,0,.49.87l1-1.19,2.43-2.49c-1.66-3.06-3.83-19.46-3.66-20.09Z"/><path class="cls-44" d="M285.33,361.29l-5.48.36L279.1,350.4c4.12-.21,5.53,3.83,5.71,5.69Z"/><path class="cls-29" d="M281.7,326.71l4.24,0.5-1.7,30.15c-0.13,2.35-4.42,5.09-6.75,4.81h0Z"/><path class="cls-48" d="M336.33,406.29l2.11-17.75a5,5,0,0,1,5.48-4.31l12.29,1.46a4.94,4.94,0,0,1,4.31,5.48l-2.11,17.75Z"/><circle class="cls-49" cx="340.18" cy="361.87" r="6.71" transform="translate(-59.27 657.03) rotate(-83.23)"/><circle class="cls-49" cx="365.07" cy="364.83" r="6.71" transform="translate(-40.25 684.35) rotate(-83.23)"/><polygon class="cls-36" points="355.19 380.64 346.08 379.56 345.34 385.79 349.27 391.64 354.45 386.87 355.19 380.64"/><polygon class="cls-37" points="352.36 389.23 345.89 381.15 346.08 379.56 355.19 380.64 354.45 386.87 352.36 389.23"/><path class="cls-37" d="M353.91,352.55c-2.94-.28-11.82-1.05-13.2,9.24s0.38,14.34,1.59,16a10.73,10.73,0,0,0,5.26,4.35,3.88,3.88,0,0,0,5.58.66,10.72,10.72,0,0,0,6.14-3c1.58-1.38,4.23-4.9,5.3-15.22S356.83,353,353.91,352.55Z"/><path class="cls-36" d="M353.91,352.55c-2.94-.28-11.82-1.05-13.2,9.24s0.38,14.34,1.59,16a10.73,10.73,0,0,0,5.26,4.35,4.31,4.31,0,0,0,2.65,1.53Z"/><path class="cls-36" d="M341.88,367.27a2.35,2.35,0,0,0-1.47-1.55c-0.83-.28-2.43,0-2.71,2.38s1.48,4.73,2.79,4.59S341.88,367.27,341.88,367.27Z"/><path class="cls-37" d="M341,368a1.43,1.43,0,0,0-.9-0.95c-0.51-.17-1.28,0-1.46,1.47s0.71,2.86,1.51,2.78a1,1,0,0,0,.55-0.82,1.11,1.11,0,0,1-.51-1.36,1.21,1.21,0,0,1,.8-0.85C341,368.06,341,368,341,368Z"/><path class="cls-50" d="M347.34,364.89a0.51,0.51,0,1,0,.16-1,5.48,5.48,0,0,0-1.94.09,0.51,0.51,0,1,0,.24,1A4.39,4.39,0,0,1,347.34,364.89Z"/><path class="cls-50" d="M357.48,365.07a0.51,0.51,0,1,0-.08,1,4.39,4.39,0,0,1,1.48.44,0.51,0.51,0,1,0,.46-0.91A5.48,5.48,0,0,0,357.48,365.07Z"/><path class="cls-50" d="M346.81,357.63c-1.45,2.25-1.81,6.08-6.69,8-1.71-11.59,6.78-15.85,14.31-14.79,8,1.12,14.53,7.37,10.93,18.12-5.22-1.76-7.74-4.79-9.94-8.09,0.55,2.65,2.07,4.13,1.64,4C352.05,363,350.24,362.5,346.81,357.63Z"/><path class="cls-37" d="M362.35,369.68a1.84,1.84,0,0,1,1.6-1.17c0.87-.08,2.37.54,2.08,3s-2.55,4.25-3.79,3.81S362.15,370.31,362.35,369.68Z"/><path class="cls-51" d="M362.82,370.55a1.43,1.43,0,0,1,1.09-.71c0.53,0,1.25.3,1.07,1.77s-1.36,2.62-2.11,2.35a1,1,0,0,1-.35-0.93,1.11,1.11,0,0,0,.82-1.2,1.22,1.22,0,0,0-.57-1Z"/><path class="cls-12" d="M353.63,375.59a2.45,2.45,0,1,1-4.86-.58Z"/><polygon class="cls-52" points="349.27 391.64 354.48 390.76 355.04 385.55 354.61 385.5 349.27 391.64"/><polygon class="cls-52" points="349.27 391.64 344.4 389.56 345.08 384.37 345.5 384.42 349.27 391.64"/><path class="cls-29" d="M359.11,370.24a0.32,0.32,0,0,0,.46-0.46l0,0a2.53,2.53,0,0,0-3.72-.37,0.32,0.32,0,1,0,.36.54,2,2,0,0,1,2.91.29Z"/><circle cx="357.58" cy="370.03" r="0.97" transform="translate(-52.02 681.5) rotate(-83.23)"/><path class="cls-29" d="M359.3,369.07a0.2,0.2,0,1,0-.32-0.23l-0.43.59a0.2,0.2,0,1,0,.32.23Z"/><path class="cls-29" d="M359.74,369.3a0.2,0.2,0,0,0-.26-0.3l-0.66.57a0.2,0.2,0,1,0,.26.3Z"/><path class="cls-29" d="M344.71,368.53a0.32,0.32,0,1,1-.34-0.55l0,0a2.53,2.53,0,0,1,3.71.51,0.32,0.32,0,1,1-.48.44,2,2,0,0,0-2.89-.39Z"/><circle cx="346.24" cy="368.69" r="0.97" transform="translate(-60.69 669.06) rotate(-83.23)"/><path class="cls-29" d="M344.79,367.35a0.2,0.2,0,1,1,.37-0.15l0.27,0.67a0.2,0.2,0,1,1-.37.15Z"/><path class="cls-29" d="M344.32,367.47a0.2,0.2,0,0,1,.32-0.23l0.51,0.71a0.2,0.2,0,0,1-.32.23Z"/><path class="cls-36" d="M335.15,406.15c1.38-4.24,2.81-9,4.24-13.62l-5.33-.63c-1.23,5-2.48,9.35-3.94,13.65Z"/><path class="cls-48" d="M333.12,393.59l5.46,1.7,3.49-11.2c-4.11-1.22-6.52,2.53-7.16,4.36Z"/><polygon class="cls-52" points="333.3 392.9 338.97 394.73 338.36 396.54 332.69 394.71 333.3 392.9"/><path class="cls-53" d="M271.3,398.57l1.54-13a5.08,5.08,0,0,1,5.63-4.44l12.63,1.5a5.08,5.08,0,0,1,4.44,5.63l-1.54,13Z"/><path class="cls-12" d="M278.19,381.16l0.61,1.06,3.89,7.27,1,1.84,1.38-1.55,5.48-6.16,0.77-.9-0.2,0-12.63-1.5Z"/><polygon class="cls-23" points="290.21 376.23 280.85 375.12 280.09 381.53 283.97 388.8 289.45 382.64 290.21 376.23"/><polygon class="cls-27" points="287.3 385.06 280.65 376.76 280.85 375.12 290.21 376.23 289.45 382.64 287.3 385.06"/><path class="cls-23" d="M289.11,349.37c3,0.42,12,1.78,10.91,12.35s-3.81,14.16-5.42,15.57a11,11,0,0,1-6.28,3.07,4,4,0,0,1-5.7-.68,11,11,0,0,1-5.38-4.45c-1.24-1.75-3-5.88-1.63-16.41S286.1,349.07,289.11,349.37Z"/><path class="cls-28" d="M289.11,349.37c3,0.42,12,1.78,10.91,12.35s-3.81,14.16-5.42,15.57a11,11,0,0,1-6.28,3.07,4.4,4.4,0,0,1-3,.88Z"/><path class="cls-12" d="M289.86,373.27a3.57,3.57,0,0,1-7.08-.84Z"/><path class="cls-29" d="M292.56,364.16a0.52,0.52,0,1,1,.08-1,5.66,5.66,0,0,1,1.91.56,0.52,0.52,0,1,1-.47.93A4.49,4.49,0,0,0,292.56,364.16Z"/><path class="cls-29" d="M282.44,361.91a0.52,0.52,0,1,1-.16,1,4.49,4.49,0,0,0-1.58.08,0.52,0.52,0,1,1-.24-1A5.66,5.66,0,0,1,282.44,361.91Z"/><path class="cls-12" d="M283.12,396a3,3,0,0,1,3.12-1.58,2.76,2.76,0,0,1,2.58,2.9,5.66,5.66,0,0,1-1.76,3.13l-8.81-1a5.66,5.66,0,0,1-1-3.46,2.76,2.76,0,0,1,3.19-2.22A3,3,0,0,1,283.12,396Z"/><path class="cls-29" d="M294.3,367.68a0.33,0.33,0,0,0,.46-0.46l0,0c-0.65-.65-1.74-1.73-3.76-0.38a0.33,0.33,0,1,0,.36.54,2,2,0,0,1,2.93.3Z"/><circle cx="292.75" cy="367.48" r="0.98" transform="translate(-106.67 614.88) rotate(-83.23)"/><path class="cls-29" d="M294.49,366.51a0.2,0.2,0,1,0-.32-0.23l-0.43.6a0.2,0.2,0,0,0,.32.23Z"/><path class="cls-29" d="M294.93,366.74a0.2,0.2,0,0,0-.26-0.3L294,367a0.2,0.2,0,1,0,.26.3Z"/><path class="cls-29" d="M279.77,366a0.33,0.33,0,1,1-.34-0.56l0,0c0.78-.48,2.09-1.28,3.74.51a0.33,0.33,0,1,1-.48.44,2,2,0,0,0-2.92-.4Z"/><circle cx="281.32" cy="366.12" r="0.98" transform="translate(-115.41 602.33) rotate(-83.23)"/><path class="cls-29" d="M279.85,364.77a0.2,0.2,0,1,1,.37-0.15l0.28,0.68a0.2,0.2,0,0,1-.37.15Z"/><path class="cls-29" d="M279.37,364.89a0.2,0.2,0,0,1,.32-0.23l0.51,0.72a0.2,0.2,0,1,1-.32.23Z"/><path class="cls-29" d="M303.18,353.32a0.93,0.93,0,1,1,.42,1.82,6.3,6.3,0,0,0-3.8,2.71,0.93,0.93,0,0,1-1.62-.93A8.27,8.27,0,0,1,303.18,353.32Z"/><path class="cls-29" d="M304.89,364.63a0.93,0.93,0,1,1-1.13,1.49,4.08,4.08,0,0,0-3.92-.46,0.93,0.93,0,1,1-.72-1.72A6,6,0,0,1,304.89,364.63Z"/><ellipse class="cls-54" cx="303.53" cy="364.93" rx="1.21" ry="1.18" transform="translate(-94.63 623.33) rotate(-83.23)"/><path class="cls-29" d="M304.82,358.93a0.93,0.93,0,0,1-.57,1.78,4.05,4.05,0,0,0-3.81,1,0.94,0.94,0,1,1-1.29-1.35A6,6,0,0,1,304.82,358.93Z"/><ellipse class="cls-54" cx="303.65" cy="359.69" rx="1.18" ry="1.21" transform="translate(-78.26 84.51) rotate(-14.05)"/><ellipse class="cls-54" cx="302.49" cy="354.41" rx="1.18" ry="1.21" transform="translate(-138.06 202.69) rotate(-30.52)"/><path class="cls-29" d="M299.34,348.84a0.94,0.94,0,0,1,1.33,1.32c-0.14.15-.34,0.32-0.56,0.52a12,12,0,0,0-2.67,3.31,0.93,0.93,0,0,1-1.62-.93,13.69,13.69,0,0,1,3-3.77C299,349.14,299.17,349,299.34,348.84Z"/><ellipse class="cls-54" cx="299.35" cy="349.99" rx="1.18" ry="1.21" transform="translate(-136.29 200.58) rotate(-30.53)"/><path class="cls-29" d="M294.61,345.85a0.93,0.93,0,0,1,1.66.86c-0.11.21-.24,0.43-0.38,0.66a12,12,0,0,0-1.58,3.95,0.93,0.93,0,0,1-1.82-.41,13.69,13.69,0,0,1,1.8-4.49C294.41,346.22,294.52,346,294.61,345.85Z"/><ellipse class="cls-54" cx="295.01" cy="346.94" rx="1.18" ry="1.21" transform="translate(-135.33 197.92) rotate(-30.52)"/><path class="cls-29" d="M273.66,351.58a0.93,0.93,0,0,1,.84-1.67,8.27,8.27,0,0,1,4,4.66,0.93,0.93,0,0,1-1.79.52A6.3,6.3,0,0,0,273.66,351.58Z"/><path class="cls-29" d="M299.58,366.46c4.24-10.54-2.63-16.24-10-17.2-8.66-1.12-16.21,3.3-14.43,14.61,0,0,1.3.58,1.44-.12,0.47-3.49.78-5.06,2-6.39,1.66-1.87,8.74-.84,14.9-2.11a5,5,0,0,1,3.2,2.37c1.63,3.07,2.57,4.51,2.13,8.76A4.36,4.36,0,0,0,299.58,366.46Z"/><path class="cls-55" d="M297.1,352.84h0a0.79,0.79,0,0,1,0,1.11l-2.45,2.36a0.79,0.79,0,0,1-1.11,0h0a0.79,0.79,0,0,1,0-1.11l2.45-2.36A0.79,0.79,0,0,1,297.1,352.84Z"/><path class="cls-55" d="M299,354.27h0a0.79,0.79,0,0,1,0,1.11l-2.45,2.36a0.79,0.79,0,0,1-1.11,0h0a0.79,0.79,0,0,1,0-1.11l2.45-2.35A0.79,0.79,0,0,1,299,354.27Z"/><path class="cls-29" d="M270.94,362.22a0.93,0.93,0,0,1-.75-1.71,6,6,0,0,1,5.78.68,0.93,0.93,0,0,1-1.11,1.5A4.08,4.08,0,0,0,270.94,362.22Z"/><ellipse class="cls-54" cx="271.44" cy="361.12" rx="1.21" ry="1.18" transform="translate(-119.16 588.1) rotate(-83.23)"/><path class="cls-29" d="M271.72,356.85a0.93,0.93,0,0,1-.13-1.86,6,6,0,0,1,5.18,2.69,0.94,0.94,0,1,1-1.57,1A4.05,4.05,0,0,0,271.72,356.85Z"/><ellipse class="cls-54" cx="272.55" cy="356" rx="1.21" ry="1.18" transform="translate(-169.2 432.64) rotate(-62.4)"/><ellipse class="cls-54" cx="274.91" cy="351.14" rx="1.21" ry="1.18" transform="translate(-168.61 304.6) rotate(-45.95)"/><path class="cls-29" d="M277.68,347.43a0.94,0.94,0,0,1,1.6-1c0.12,0.2.24,0.37,0.36,0.55a13.67,13.67,0,0,1,2.07,4.38,0.93,0.93,0,0,1-1.79.52,12,12,0,0,0-1.82-3.84C277.93,347.82,277.78,347.6,277.68,347.43Z"/><ellipse class="cls-54" cx="279" cy="347.58" rx="1.21" ry="1.18" transform="translate(-164.79 306.29) rotate(-45.93)"/><path class="cls-29" d="M282.76,345.1a0.93,0.93,0,1,1,1.81-.45c0.05,0.2.11,0.4,0.18,0.63a13.69,13.69,0,0,1,.7,4.79,0.93,0.93,0,0,1-1.87,0,12,12,0,0,0-.61-4.21C282.89,345.58,282.82,345.33,282.76,345.1Z"/><ellipse class="cls-54" cx="283.93" cy="345.62" rx="1.21" ry="1.18" transform="translate(-161.89 309.34) rotate(-45.94)"/><path class="cls-29" d="M288.19,344.47a0.94,0.94,0,1,1,1.87,0c0,0.31,0,.68,0,1.13,0,0.86.12,2,.09,4a0.93,0.93,0,0,1-1.87,0c0-1.83,0-3-.09-3.84C288.21,345.24,288.19,344.86,288.19,344.47Z"/><ellipse class="cls-54" cx="289.12" cy="345.25" rx="1.21" ry="1.18" transform="translate(-160.03 312.85) rotate(-45.93)"/><path class="cls-23" d="M276.61,364.38a1.88,1.88,0,0,0-1.31-1.55c-0.85-.29-2.48,0-2.77,2.44s1.52,4.84,2.85,4.7S276.66,365.06,276.61,364.38Z"/><path class="cls-28" d="M275.93,365.13a1.46,1.46,0,0,0-.92-1c-0.52-.17-1.31,0-1.49,1.5s0.73,2.93,1.54,2.84a1,1,0,0,0,.57-0.84,1.14,1.14,0,0,1-.52-1.39,1.24,1.24,0,0,1,.81-0.87C275.93,365.23,275.93,365.13,275.93,365.13Z"/><path class="cls-28" d="M297.54,366.89a2.4,2.4,0,0,1,1.84-1.19c0.89-.08,2.42.55,2.12,3s-2.61,4.35-3.87,3.9S297.54,366.89,297.54,366.89Z"/><path class="cls-27" d="M298.22,367.78a1.46,1.46,0,0,1,1.12-.73c0.54,0,1.28.31,1.1,1.81s-1.39,2.67-2.16,2.4a1,1,0,0,1-.35-0.95,1.14,1.14,0,0,0,.83-1.23,1.24,1.24,0,0,0-.59-1Z"/><path class="cls-23" d="M272.4,391.4c-0.69,2.17-1.53,4.56-2.49,7l-5.16-.61c1.6-3.87,2.82-7.11,2.82-7.39Z"/><path class="cls-53" d="M267.15,391l5.59,1.74,3.58-11.48c-4.21-1.25-6.68,2.59-7.34,4.47Z"/><path class="cls-23" d="M294.55,394c0.16,2.27.42,4.79,0.78,7.39l5.16,0.61c-0.65-4.14-1.08-7.57-1-7.85Z"/><path class="cls-53" d="M299.74,394.87l-5.84.39-0.79-12c4.39-.23,5.89,4.08,6.09,6.06Z"/><path class="cls-42" d="M247,378.52c-0.32,0-4,.31-4.35.3-9.81-.32-14.89-7.43-17.46-15.91-0.06-.27-0.12-0.56-0.18-0.87l0-.16A4.43,4.43,0,0,0,226,360l0.66-2.19a0.94,0.94,0,0,0-.66-1.16h0a1,1,0,0,0-1.07.46l-0.14-.08-0.06-4.14a0.94,0.94,0,0,0-1-.93h0a0.94,0.94,0,0,0-.93,1l0,1.36L222.3,352a1,1,0,0,0-1.13-.7h0a0.94,0.94,0,0,0-.7,1.13l1.07,4.54-1.44-4.28a0.94,0.94,0,0,0-1.19-.59h0a0.94,0.94,0,0,0-.59,1.19l1.45,4.3-1.28-2.17a0.94,0.94,0,0,0-1.29-.33h0a0.94,0.94,0,0,0-.33,1.29l1.22,2.07a0.44,0.44,0,0,0,0,.54l1.41,3a2,2,0,0,0,1,1.26c2.26,10.76,8.25,20.26,22.25,21.83Z"/><path class="cls-56" d="M245.23,377.81c-0.32,0-3.94-.27-4.24-0.28a17.89,17.89,0,0,1-5-.84l-1.47,7a28.71,28.71,0,0,0,6.36,1.42Z"/><path class="cls-57" d="M259.86,355c1.06,0.46,4-5.77,5.06-3.27,5.59,5.39-1.21,19.27,5.27,19.09-2.74,7.69-15.85,10.28-20.88,4.8C249.31,375.62,255.67,357.08,259.86,355Z"/><path class="cls-57" d="M251.22,354c-1.14.2-3.12-6.77-4.73-4.58-6.69,3.94-2.76,19.24-9,17.54,0.87,8.12,13,13.71,19.18,9.55C256.64,376.49,254.8,357,251.22,354Z"/><path class="cls-56" d="M239.4,393.69l1.36-11.45a5.07,5.07,0,0,1,5.62-4.43l12.6,1.5a5.07,5.07,0,0,1,4.43,5.62L262,396.38Z"/><path class="cls-12" d="M246.1,377.79l0.61,1.05,3.88,7.25,1,1.83,1.38-1.55,5.47-6.14,0.77-.89-0.2,0-12.6-1.5Z"/><polygon class="cls-42" points="258.09 372.88 248.75 371.77 247.99 378.16 251.87 385.42 257.33 379.27 258.09 372.88"/><polygon class="cls-45" points="255.18 381.69 248.56 373.4 248.75 371.77 258.09 372.88 257.33 379.27 255.18 381.69"/><path class="cls-42" d="M256.68,344.85c3,0.42,12,1.78,10.88,12.32s-3.8,14.13-5.41,15.53a10.94,10.94,0,0,1-6.26,3.06,4,4,0,0,1-5.69-.68,10.94,10.94,0,0,1-5.37-4.44c-1.23-1.74-3-5.87-1.62-16.37S253.68,344.56,256.68,344.85Z"/><path class="cls-46" d="M256.68,344.85c3,0.42,12,1.78,10.88,12.32s-3.8,14.13-5.41,15.53a10.94,10.94,0,0,1-6.26,3.06,4.39,4.39,0,0,1-3,.88Z"/><path class="cls-42" d="M244.22,359.82a1.87,1.87,0,0,0-1.31-1.55c-0.85-.29-2.48,0-2.77,2.43s1.51,4.82,2.85,4.68S244.26,360.5,244.22,359.82Z"/><path class="cls-46" d="M243.54,360.57a1.45,1.45,0,0,0-.91-1c-0.52-.17-1.31,0-1.49,1.5s0.72,2.92,1.53,2.83a1,1,0,0,0,.57-0.84,1.13,1.13,0,0,1-.52-1.39,1.24,1.24,0,0,1,.81-0.87C243.54,360.67,243.54,360.57,243.54,360.57Z"/><path class="cls-46" d="M265.1,362.32a2.4,2.4,0,0,1,1.83-1.19c0.89-.08,2.42.55,2.12,3s-2.6,4.34-3.86,3.89S265.1,362.32,265.1,362.32Z"/><path class="cls-45" d="M265.77,363.21a1.46,1.46,0,0,1,1.11-.72c0.54,0,1.27.3,1.09,1.8s-1.39,2.67-2.16,2.4a1,1,0,0,1-.35-0.95,1.13,1.13,0,0,0,.83-1.23,1.24,1.24,0,0,0-.59-1Z"/><path class="cls-21" d="M262.51,351.59c0.9,2.58.35,6.47,4.72,9.54,4.46-11.09-2.93-17.34-10.66-18.09-8.17-.79-16.17,3.84-15.17,15.37,4.71,0.68,7.15-4.46,7.41-4.49C254.06,354.53,257.94,355.59,262.51,351.59Z"/><path class="cls-12" d="M257.43,368.69c-0.41,1.22-2,2-3.79,1.79s-3.16-1.35-3.27-2.63Z"/><path class="cls-45" d="M260.13,359.6a0.52,0.52,0,1,1,.08-1,5.64,5.64,0,0,1,1.9.55,0.52,0.52,0,0,1-.47.93A4.45,4.45,0,0,0,260.13,359.6Z"/><path class="cls-45" d="M250,357.36a0.52,0.52,0,0,1-.16,1,4.46,4.46,0,0,0-1.58.08,0.52,0.52,0,0,1-.24-1A5.64,5.64,0,0,1,250,357.36Z"/><path class="cls-14" d="M262,362.82a0.33,0.33,0,0,0,.47-0.47l0,0c-0.65-.65-1.75-1.75-3.8-0.38a0.33,0.33,0,1,0,.37.55,2,2,0,0,1,3,.3Z"/><circle class="cls-8" cx="260.43" cy="362.61" r="0.99" transform="translate(-130.35 578.49) rotate(-83.23)"/><path class="cls-14" d="M262.19,361.63a0.2,0.2,0,1,0-.33-0.23l-0.43.6a0.2,0.2,0,0,0,.33.23Z"/><path class="cls-14" d="M262.63,361.86a0.2,0.2,0,1,0-.26-0.3l-0.67.58a0.2,0.2,0,0,0,.26.3Z"/><path class="cls-14" d="M247.32,361.08a0.33,0.33,0,0,1-.34-0.56l0,0c0.79-.48,2.12-1.29,3.78.52a0.33,0.33,0,1,1-.49.45,2,2,0,0,0-2.95-.4Z"/><circle class="cls-8" cx="248.88" cy="361.24" r="0.99" transform="translate(-139.18 565.81) rotate(-83.23)"/><path class="cls-14" d="M247.4,359.87a0.2,0.2,0,0,1,.37-0.15l0.28,0.69a0.2,0.2,0,1,1-.37.15Z"/><path class="cls-14" d="M246.91,360a0.2,0.2,0,1,1,.33-0.23l0.52,0.73a0.2,0.2,0,0,1-.33.23Z"/><path class="cls-48" d="M246.78,349.88h0a0.78,0.78,0,0,1,1.05.34l1.77,3.45a0.78,0.78,0,0,1-.34,1.05h0a0.79,0.79,0,0,1-1.05-.34l-1.77-3.45A0.79,0.79,0,0,1,246.78,349.88Z"/><path class="cls-42" d="M263.59,390.63c0.13,1.86.33,3.89,0.59,6l5.12,0.61a63.72,63.72,0,0,1-.79-6.44Z"/><path class="cls-56" d="M268.78,391.47l-5.84.39-0.79-12c4.39-.23,5.89,4.08,6.09,6.06Z"/><path class="cls-58" d="M326.77,401l1.5-12.61a5,5,0,0,0-4.4-5.58l-12.52-1.49a5,5,0,0,0-5.58,4.4l-1.5,12.61Z"/><path class="cls-12" d="M323.75,382.77l0,0.18,0,0.17-0.08.2a6.35,6.35,0,0,1-12.16-1.44l0-.21,0-.17,0-.18,2.9,0.34a3.45,3.45,0,0,0,1,1.74,3.45,3.45,0,0,0,4.13.49,3.45,3.45,0,0,0,1.36-1.47Z"/><path class="cls-42" d="M313.36,378.76l9.16,1.09c0,0.11,0,.23.06,0.34l-0.31,2.58a4.9,4.9,0,0,1-9.37-1.11l0.31-2.58C313.26,379,313.3,378.87,313.36,378.76Z"/><path class="cls-45" d="M313.39,379.51l9.13,0.34c0,0.11,0,.23.06,0.34l-0.31,2.58a4.9,4.9,0,0,1-4,3Z"/><path class="cls-42" d="M321.38,350.33c-3-.29-12.16-1.08-13.58,9.51s0.39,14.75,1.64,16.51a11,11,0,0,0,5.41,4.48,4.43,4.43,0,0,0,2.72,1.57Z"/><path class="cls-46" d="M321.38,350.33c3,0.42,12.08,1.79,11,12.42s-3.83,14.25-5.45,15.66a11,11,0,0,1-6.31,3.09,4.43,4.43,0,0,1-3,.89Z"/><path class="cls-59" d="M328.92,356.45c-0.42-1-1-1.93-4-1.13s-8,3-13.34,1.88c-2.24,3.14-2.41,9.39-2.41,9.39l-2.83-2.36s0.34-7.09,1.74-9.22c-0.89-.26-1.54-1.26-1.2-3.44,1.12,0.29,1.69,1.27,3.35.24s5.47-4.72,11.5-3.85,8.3,4.44,9,5.82c3.78,4.08,2.91,8.4,1.92,13.55L329.33,369C329.78,366.85,330.06,359.07,328.92,356.45Z"/><path class="cls-42" d="M308.81,365.43a1.89,1.89,0,0,0-1.32-1.56c-0.85-.29-2.5,0-2.79,2.45s1.53,4.86,2.87,4.72S308.85,366.11,308.81,365.43Z"/><path class="cls-46" d="M308.13,366.19a1.47,1.47,0,0,0-.92-1c-0.52-.18-1.32,0-1.5,1.51s0.73,2.94,1.55,2.86a1,1,0,0,0,.57-0.84,1.14,1.14,0,0,1-.53-1.4,1.25,1.25,0,0,1,.82-0.88C308.13,366.29,308.13,366.19,308.13,366.19Z"/><path class="cls-46" d="M329.86,368a2.41,2.41,0,0,1,1.85-1.2c0.9-.08,2.44.56,2.14,3s-2.62,4.37-3.9,3.92S329.86,368,329.86,368Z"/><path class="cls-45" d="M330.55,368.85a1.47,1.47,0,0,1,1.12-.73c0.55,0,1.28.31,1.1,1.82s-1.4,2.69-2.17,2.42a1,1,0,0,1-.36-1,1.14,1.14,0,0,0,.84-1.24,1.25,1.25,0,0,0-.59-1Z"/><rect class="cls-60" x="313.49" y="360.4" width="1.32" height="4.18" rx="0.66" ry="0.66" transform="translate(-82.84 631.72) rotate(-83.23)"/><rect class="cls-60" x="324.9" y="361.75" width="1.32" height="4.18" rx="0.66" ry="0.66" transform="translate(-74.12 644.24) rotate(-83.23)"/><path class="cls-12" d="M321.2,373.17a2.52,2.52,0,1,1-5-.59Z"/><circle class="cls-8" cx="325.58" cy="367.79" r="1.11" transform="translate(-78.02 647.74) rotate(-83.23)"/><path class="cls-14" d="M327.09,367.83a0.34,0.34,0,0,0,.48-0.48l0,0c-0.68-.67-1.81-1.81-3.92-0.39a0.34,0.34,0,1,0,.38.57,2.08,2.08,0,0,1,3.06.31Z"/><circle class="cls-8" cx="313.21" cy="366.32" r="1.11" transform="translate(-87.48 634.16) rotate(-83.23)"/><path class="cls-14" d="M311.72,366a0.34,0.34,0,0,1-.36-0.58l0,0c0.81-.5,2.19-1.33,3.91.54a0.34,0.34,0,1,1-.5.46,2.08,2.08,0,0,0-3-.42Z"/><path class="cls-46" d="M303.59,398.22c0.8-2.59,1.61-5.25,2.42-7.88l-5.43-.64c-0.69,2.79-1.39,5.4-2.12,7.91Z"/><path class="cls-58" d="M299.62,391.42l5.56,1.73,3.56-11.41c-4.19-1.24-6.64,2.58-7.29,4.44Z"/><rect class="cls-1" x="301.9" y="388.82" width="1.47" height="5.98" transform="translate(-167.36 547.36) rotate(-70.63)"/><path class="cls-46" d="M327.5,401.06c-0.17-2.71-.34-5.49-0.51-8.23l5.43,0.64c0,2.87.08,5.57,0.21,8.19Z"/><path class="cls-58" d="M332.95,395.38l-5.81.38-0.79-11.93c4.36-.23,5.86,4.06,6.05,6Z"/><rect class="cls-1" x="326.94" y="394.31" width="5.98" height="1.47" transform="translate(-38.43 35.57) rotate(-5.83)"/><path class="cls-15" d="M240.28,390.81L362.35,405.3,348.8,461.7c-1.35,5.67-5.85,14.57-13.9,13.62l-84.33-10c-8-1-10.34-10.66-10.33-16.49Z"/><path class="cls-16" d="M349.57,458.48l-0.77,3.22c-1.35,5.67-5.85,14.57-13.9,13.62l-84.33-10c-8-1-10.34-10.66-10.33-16.49v-3.31C241.14,451,244,457.26,250.51,458l86.16,10.23C343.19,469,347.42,463.6,349.57,458.48Z"/><polygon class="cls-16" points="240.28 390.81 362.35 405.3 358.81 420 240.27 405.93 240.28 390.81"/><path class="cls-20" d="M241.83,387.66l119.75,14.21a6.63,6.63,0,0,1,5.78,7.34h0A6.63,6.63,0,0,1,360,415L240.27,400.78a6.63,6.63,0,0,1-5.78-7.34h0A6.63,6.63,0,0,1,241.83,387.66Z"/><path class="cls-21" d="M241.83,387.66l119.75,14.21a6.63,6.63,0,0,1,5.78,7.34h0a6.56,6.56,0,0,1-.27,1.25,6.88,6.88,0,0,1-4.94,1.32L239,397.15a6.88,6.88,0,0,1-4.49-2.44,6.59,6.59,0,0,1,0-1.28h0A6.63,6.63,0,0,1,241.83,387.66Z"/><rect class="cls-61" x="303.99" y="394.68" width="4.95" height="2.12" rx="1.06" ry="1.06" transform="translate(-122.64 653.43) rotate(-83.23)"/><rect class="cls-61" x="306.1" y="394.93" width="4.95" height="2.12" rx="1.06" ry="1.06" transform="translate(-121.03 655.74) rotate(-83.23)"/><path class="cls-42" d="M311,393.79h0a1.06,1.06,0,0,1,.93,1.18l-0.33,2.81a1.06,1.06,0,0,1-1.18.93h0a1.06,1.06,0,0,1-.93-1.18l0.33-2.81A1.06,1.06,0,0,1,311,393.79Z"/><path class="cls-42" d="M313.08,394h0a1.06,1.06,0,0,0-1.18.93l-0.33,2.81a1.06,1.06,0,0,0,.93,1.18h0a1.06,1.06,0,0,0,1.18-.93l0.33-2.81A1.06,1.06,0,0,0,313.08,394Z"/><path class="cls-42" d="M321.85,395.08h0a1.06,1.06,0,0,1,.93,1.18l-0.33,2.81a1.06,1.06,0,0,1-1.18.93h0a1.06,1.06,0,0,1-.93-1.18l0.33-2.81A1.06,1.06,0,0,1,321.85,395.08Z"/><path class="cls-42" d="M324,395.33h0a1.06,1.06,0,0,0-1.18.93l-0.33,2.81a1.06,1.06,0,0,0,.93,1.18h0a1.06,1.06,0,0,0,1.18-.93l0.33-2.81A1.06,1.06,0,0,0,324,395.33Z"/><rect class="cls-61" x="323.29" y="396.97" width="4.95" height="2.12" rx="1.06" ry="1.06" transform="translate(-107.89 674.61) rotate(-83.23)"/><path class="cls-42" d="M319.74,394.83h0a1.06,1.06,0,0,0-1.18.93l-0.33,2.81a1.06,1.06,0,0,0,.93,1.18h0a1.06,1.06,0,0,0,1.18-.93l0.33-2.81A1.06,1.06,0,0,0,319.74,394.83Z"/><path class="cls-23" d="M272.38,389.21h0a1.06,1.06,0,0,1,.93,1.18L273,393.19a1.06,1.06,0,0,1-1.18.93h0a1.06,1.06,0,0,1-.93-1.18l0.33-2.81A1.06,1.06,0,0,1,272.38,389.21Z"/><rect class="cls-62" x="271.72" y="390.85" width="4.95" height="2.12" rx="1.06" ry="1.06" transform="translate(-147.31 617.99) rotate(-83.23)"/><rect class="cls-62" x="273.82" y="391.1" width="4.95" height="2.12" rx="1.06" ry="1.06" transform="translate(-145.7 620.31) rotate(-83.23)"/><rect class="cls-62" x="275.93" y="391.35" width="4.95" height="2.12" rx="1.06" ry="1.06" transform="translate(-144.09 622.62) rotate(-83.23)"/><rect class="cls-62" x="281.54" y="392.02" width="4.95" height="2.12" rx="1.06" ry="1.06" transform="translate(-139.8 628.78) rotate(-83.23)"/><path class="cls-23" d="M286.41,390.87h0a1.06,1.06,0,0,0-1.18.93l-0.33,2.81a1.06,1.06,0,0,0,.93,1.18h0a1.06,1.06,0,0,0,1.18-.93l0.33-2.81A1.06,1.06,0,0,0,286.41,390.87Z"/><rect class="cls-62" x="285.75" y="392.52" width="4.95" height="2.12" rx="1.06" ry="1.06" transform="translate(-136.58 633.4) rotate(-83.23)"/><path class="cls-23" d="M290.62,391.37h0a1.06,1.06,0,0,0-1.18.93l-0.33,2.81a1.06,1.06,0,0,0,.93,1.18h0a1.06,1.06,0,0,0,1.18-.93l0.33-2.81A1.06,1.06,0,0,0,290.62,391.37Z"/><path class="cls-21" d="M266.86,409.48s14.79,12.28,30.84,3.68l0.83,1.55c-17.09,9.16-32.74-3.83-32.78-3.87Z"/><path class="cls-21" d="M301.23,413.56s14.79,12.28,30.84,3.68l0.83,1.55c-17.09,9.16-32.74-3.83-32.79-3.87Z"/><path class="cls-21" d="M335.76,417.65s16.1,12.57,23.06,2.3l1.46,1c-8,11.84-25.55-1.85-25.6-1.89Z"/><path class="cls-16" d="M264.27,412.88c-4.28,4.22-9.4,9.69-10.45,15-1,4.89,1.62,10.37,8.73,11.47,7.17,0.6,11-4.13,11.17-9.11,0.24-5.45-3.46-12-6.63-17.07l-1.41-.17Z"/><path class="cls-20" d="M263.6,410.06c-4.28,4.22-9.4,9.69-10.45,15-1,4.89,1.62,10.37,8.73,11.47,7.17,0.6,11-4.13,11.17-9.11,0.24-5.45-3.46-12-6.63-17.07l-1.41-.17Z"/><path class="cls-21" d="M263.6,410.06c-4.28,4.22-9.4,9.69-10.45,15a9.76,9.76,0,0,0,.73,6.08,11.44,11.44,0,0,0,5.61,2.35c7.17,0.6,11-4.13,11.17-9.11,0.2-4.44-2.23-9.59-4.85-14.11l-0.81-.1Z"/><path class="cls-16" d="M298.68,417c-4.28,4.22-9.4,9.69-10.45,15-1,4.89,1.62,10.37,8.73,11.47,7.17,0.6,11-4.13,11.17-9.11,0.24-5.45-3.46-12-6.63-17.07l-1.41-.17Z"/><path class="cls-16" d="M333.34,421.07c-4.28,4.22-9.41,9.69-10.45,15-1,4.89,1.62,10.37,8.73,11.47,7.17,0.6,11-4.13,11.17-9.11,0.24-5.45-3.46-12-6.63-17.07l-1.41-.17Z"/><path class="cls-20" d="M332.35,418.21c-4.28,4.22-9.4,9.69-10.45,15-1,4.89,1.62,10.37,8.73,11.47,7.17,0.6,11-4.13,11.17-9.11,0.24-5.45-3.46-12-6.63-17.07l-1.41-.17Z"/><path class="cls-21" d="M332.35,418.21c-4.28,4.22-9.4,9.69-10.45,15a9.75,9.75,0,0,0,.73,6.08,11.44,11.44,0,0,0,5.61,2.35c7.17,0.6,11-4.13,11.17-9.11,0.2-4.44-2.23-9.59-4.85-14.11l-0.81-.1Z"/><path class="cls-20" d="M298,414.13c-4.28,4.22-9.4,9.69-10.45,15-1,4.89,1.62,10.37,8.73,11.47,7.17,0.6,11-4.13,11.17-9.11,0.24-5.45-3.46-12-6.63-17.07l-1.41-.17Z"/><path class="cls-21" d="M298,414.13c-4.28,4.22-9.4,9.69-10.45,15a9.75,9.75,0,0,0,.73,6.08,11.44,11.44,0,0,0,5.61,2.35c7.17,0.6,11-4.13,11.17-9.11,0.2-4.44-2.23-9.59-4.85-14.11l-0.81-.1Z"/><path class="cls-21" d="M263.57,409.08c-0.05,0-18.86,8.36-23.22-3.25l-1.39.7c5,13.39,25.27,4.18,25.33,4.15Z"/><circle class="cls-63" cx="299.56" cy="412.87" r="2.18" transform="translate(-145.75 661.68) rotate(-83.23)"/><circle class="cls-63" cx="265.19" cy="408.79" r="2.18" transform="translate(-172.02 623.95) rotate(-83.23)"/><circle class="cls-63" cx="333.93" cy="416.95" r="2.18" transform="translate(-119.48 699.41) rotate(-83.23)"/><path class="cls-64" d="M299.81,410.71a2.18,2.18,0,0,1,1.91,2.42v0.09l-4.33-.51v-0.09A2.18,2.18,0,0,1,299.81,410.71Z"/><path class="cls-64" d="M265.44,406.63a2.18,2.18,0,0,1,1.91,2.42v0.09l-4.33-.51v-0.09A2.18,2.18,0,0,1,265.44,406.63Z"/><path class="cls-64" d="M334.18,414.79a2.18,2.18,0,0,1,1.91,2.42v0.09l-4.33-.51V416.7A2.18,2.18,0,0,1,334.18,414.79Z"/><path class="cls-20" d="M359.32,417.89a2.18,2.18,0,0,1-1,4.15Z"/><path class="cls-20" d="M240.27,408a2.18,2.18,0,0,1,0-4.27V408Z"/><path class="cls-36" d="M369.24,397.41l2.07,1.24c0.59,0.35.93-.12,1.83-0.68,0.69-.43,1.27-0.29,2.63-0.31a4.64,4.64,0,0,0,1.76-.67,0.89,0.89,0,0,0,.69-0.8,0.78,0.78,0,0,0,.54-0.87h0a1,1,0,0,1-.32-1.2h0a0.78,0.78,0,0,0-1-.45l-0.14.06a0.73,0.73,0,0,0-.8-0.32,10.73,10.73,0,0,1-2.6.51,0.77,0.77,0,0,0-.13-0.71h0a0.77,0.77,0,0,0-1.09-.11l-1.07.94a2.06,2.06,0,0,0-1.33.5A4.51,4.51,0,0,0,369.24,397.41Z"/><path class="cls-36" d="M364,395.85c0.1,1.88.85,6.82,0.86,6.82s1.51-2.23,4.88-6.84l2.36,2.78c-5.41,9-7.48,9.71-9.78,8-0.88-.94-1.29-3.33-1.77-5.64a25.48,25.48,0,0,0-.91-3.54Z"/><path class="cls-48" d="M364.57,397.44l-5.52.37-0.75-11.32c4.14-.21,5.56,3.85,5.74,5.72Z"/><rect class="cls-65" x="359.37" y="397.28" width="5.64" height="1.91" transform="translate(-33.18 32.92) rotate(-4.98)"/><circle class="cls-66" cx="375.66" cy="391.02" r="4.54" transform="translate(-56.91 717.97) rotate(-83.23)"/><path class="cls-67" d="M373.7,386a2.64,2.64,0,1,0-2.32-.68A2.63,2.63,0,0,0,373.7,386Z"/><path class="cls-68" d="M374.06,387.82a0.23,0.23,0,1,1-.46.09,7.62,7.62,0,0,1,.67-3.77,0.23,0.23,0,1,1,.44.16A7.18,7.18,0,0,0,374.06,387.82Z"/><circle class="cls-2" cx="332.39" cy="150.75" r="145.02" transform="translate(143.51 463.05) rotate(-83.23)"/><path class="cls-69" d="M405.16,72.93A203.65,203.65,0,0,0,377.3,62.8c0.41,4.76.62,9.81,0.83,14.87,12.07-1.81,18.57-.56,27-4.75"/><path class="cls-70" d="M425.64,127.47a30.49,30.49,0,0,1,3.59,1.24c-0.18-2.62-.17-5.38-0.53-7.86a11.19,11.19,0,0,1-1,2,24,24,0,0,0-2,4.63"/><path class="cls-71" d="M310,254.66a25.25,25.25,0,0,1-.23-4.9,1.45,1.45,0,0,0-.07-0.82,143.69,143.69,0,0,1-14.1-3c3.31,28.15,10.57,46.38,20.65,47.58a8,8,0,0,0,3.94-.34c-1.13-4.19-2.64-9.24-3.82-13-3.8-13.11-6.09-21.18-6.38-25.6"/><path class="cls-72" d="M268.12,55.36a200.3,200.3,0,0,1,45.05-6.18c7.06-19.78,15.52-35,24.35-42.4L337,6.72c-26.12,2.58-50.68,20.77-68.92,48.64"/><path class="cls-73" d="M371,55.56C367.72,27.25,360.45,9.18,350.21,8S328.66,22.61,319,49.39a219.09,219.09,0,0,1,52,6.18"/><path class="cls-74" d="M339.25,92.05c7.6-6.57,10.54-5.4,20.9-9.21a129.19,129.19,0,0,1,12.65-4c-0.24-6.2-.67-12.09-1.15-17.67a224,224,0,0,0-54.59-6.48c-2.22,6.39-4.16,13.14-6.13,20.21,10.73,2.57,20.94,6.87,28.32,17.16"/><path class="cls-75" d="M293.63,209.69c0.17,10.9.55,21.33,1.23,30.67,4.73,1.21,9.49,2.1,14.24,3.15a31.34,31.34,0,0,0-2.33-7.74c-1.7-3.45-7.57-15.51-13.14-26.07"/><path class="cls-76" d="M363.1,10.14C369,18,373.47,32.15,376,52.25a24.12,24.12,0,0,1,.41,4.76A199.77,199.77,0,0,1,410.3,69.31a34.31,34.31,0,0,0,4.65-5c-11.25-27-29.36-46.67-51.85-54.21"/><path class="cls-70" d="M434.69,130.49c19.78,7.06,35,15.52,42.4,24.35l0.06-.48c-2-21.5-14.52-41.82-34.6-58.65-2.79,4.38-5.66,9.39-9,15.65,0.54,6.4,1.08,12.79,1.14,19.13"/><path class="cls-77" d="M475.89,167.69c1.2-10.09-14.65-21.54-41.43-31.22a219.09,219.09,0,0,1-6.18,52c28.31-3.3,46.38-10.57,47.6-20.81"/><path class="cls-78" d="M394.74,175.75l-9.68,9.08c-0.83,1.52-1.86,3.35-2.91,5.34a368.06,368.06,0,0,0,40.74-1.33,224,224,0,0,0,6.48-54.59c-1.7-.69-3.75-1.26-5.77-2-0.06.48-.26,0.78-0.31,1.26-4.09,11.2-8.67,23.81-28.55,42.23"/><path class="cls-79" d="M427.13,194.2a202.69,202.69,0,0,1-16.55,42.35c31.54-11.35,55-31,63.26-55.64l0-.16c-7.86,6-22,10.53-42.15,13.18a26.83,26.83,0,0,0-4.58.27"/><path class="cls-80" d="M373,275.12A123.43,123.43,0,0,0,398.26,246c-5.87,1.58-11.84,2.65-18.15,3.85a54.87,54.87,0,0,1-3.77,14c-1.06,3.45-2.28,6.87-3.29,11.3"/><path class="cls-81" d="M214.35,81.61C227.3,71,243.51,63,260.2,57.83c12.37-20.77,29.47-39,50.13-48.92A145,145,0,0,0,206,83.38a69.68,69.68,0,0,1,8.33-1.77"/><path class="cls-82" d="M363.77,224.67l-0.22.46c8.12,4,16.35,11.36,16.87,17.91-0.06.48,0.07,0.82,0,1.3a168,168,0,0,0,22.2-5.16A191.78,191.78,0,0,0,421,194.94a410.77,410.77,0,0,1-42.18,1.16l-2.94,5.66c-5.18,9.45-10.62,19.68-12.14,22.91"/><path class="cls-83" d="M445.38,91c12.56,10.42,23.28,22.73,29.74,36.65a142.73,142.73,0,0,0-19.3-52.13c-1.21,2-2.75,4.06-4.3,6.15-1.64,2.89-3.8,6-6.14,9.34"/><path class="cls-84" d="M388.94,18.08c12.56,10.42,22.59,24.43,29.94,40.41A77.24,77.24,0,0,0,425,40a138.12,138.12,0,0,0-36-22"/><path class="cls-85" d="M240.31,224c-20.77-12.37-39-29.47-48.92-50.13a144.52,144.52,0,0,0,86.34,109.6c-17.79-14.29-30.1-36.37-37.42-59.48"/><path class="cls-86" d="M406.48,243.7c-9.28,15.29-21.21,29.63-34.93,39.85-0.41,2.06-.64,4-1.22,6.19a144.16,144.16,0,0,0,95.76-83.28c-14.61,17.75-36.37,30.1-59.62,37.24"/><path class="cls-87" d="M255.76,65.09a127,127,0,0,0-29.68,14.82A212.18,212.18,0,0,0,251,75.08c1.54-3.39,3.24-6.76,4.76-10"/><path class="cls-88" d="M273.64,69c17.82,3.09,31.71,5.06,31.71,5.06,1.76-6.61,3.68-13.2,5.84-19.11a189.68,189.68,0,0,0-47.32,7.53c-1.86,3.35-3.72,6.7-5.6,10.21,8.48-3.05,7-4.36,15.37-3.69"/><path class="cls-89" d="M269.73,169c-6.85-5.2-12.47-11.22-17.8-16.89a132.84,132.84,0,0,0-13.08-12.92,263.93,263.93,0,0,0-1.67,27.72,379.55,379.55,0,0,0,40.74,11,15.6,15.6,0,0,0-2.62-3.88,34.76,34.76,0,0,0-5.57-5"/><path class="cls-90" d="M237.84,216.06A200.3,200.3,0,0,1,231.67,171c-19.16-6.82-33.8-14.73-41.54-23.44l-0.88.55c3.28,25.71,21.19,49.92,48.59,67.94"/><path class="cls-3" d="M281.36,184.53A426.21,426.21,0,0,1,237.44,173,189.68,189.68,0,0,0,245,220.31a191.78,191.78,0,0,0,44.25,18.4,327.53,327.53,0,0,1-.95-39.89c-2-3.65-3.85-8.57-6.91-14.29"/><path class="cls-91" d="M211.14,134.64l-0.18.14-15.78,9.82c6.32,6.92,19.28,14,36.7,20.43a201,201,0,0,1,2-29.47,28.08,28.08,0,0,0-10.9-3.89,15.51,15.51,0,0,0-11.88,3"/><path class="cls-92" d="M289.81,244.63a202.69,202.69,0,0,1-42.35-16.55c11.35,31.54,31,55,55.64,63.26l0.16,0c-6-7.86-10.53-22-13.18-42.15a16.72,16.72,0,0,0-.27-4.58"/><path class="cls-93" d="M223.71,125.9c13.45,1.6,24,12.75,32.75,22.23,5.35,5.51,10.65,11.49,17,16.47a28.42,28.42,0,0,1,6.4,6.28,26.83,26.83,0,0,1,4.38,6.85c1.3,2.75,2.37,4.66,3.17,4.76,1.6,0.19,5.33-1.15,6.14-3.82,1.93-5.29-2.75-11-6.45-15.38-5-6.11-12.6-16.92-14.47-21.69-15-38.14,30.95-62.4,53.95-38.73,2.85-2.1,5.79-5,8-6.85-11.84-16.5-31.79-15.3-51.47-19.1-2.86-.5-10.79-2.09-13.11-1.72a28.57,28.57,0,0,0-6.6,2.3c-19.45,7.92-44.85,7.18-61,13.7a144.06,144.06,0,0,0-11.87,42.59c-0.29,2.4-.57,4.8-0.71,7.38L208,130a21,21,0,0,1,15.75-4.14"/><path class="cls-94" d="M374.24,84.51c-8,2-14.58,5.25-19.24,6.16-8.85,2-10.25,4.3-17.31,10.45a93,93,0,0,1-7.78,6.71,3.59,3.59,0,0,0,.55,2.18c1.86,3.47,5.2,2.73,8.4.35,33.68-25.22,54.89,2.62,56.14,18,0.62,7.05,0,17.86-10.39,34.16,3.83,1.92,6.43,4.66,6.39,9,25.39-23.77,23.77-36.14,31.61-51.61C437.2,90.2,446,80.69,452.87,70.31a142.92,142.92,0,0,0-22.42-25.88C419.61,88,393.11,80.1,374.24,84.51"/><path class="cls-95" d="M367.08,274.74c2.36-13,8.36-18.49,7.46-31.42-0.26-3.28-7.33-10.77-16-14.08l-2.82-.82,2.86-6.32c1.79-4.17,9.68-18.66,16.52-31.16,0.81-1.36,9.38-16.09,9.38-18.85-0.2-2.46-2.73-4.38-4.65-4.61s-4.26,3.07-6.76,6.34c-3.43,4.3-5.73,8.57-8.66,12.77-3.13,4.5-6.62,9.28-10.31,14.36q-5.56,7.86-12.85,18a9.13,9.13,0,0,1-9.11,4.28c-3.2-.38-6.77-1.78-7.64-2.69s-21.65-31-26.91-37.29a12.8,12.8,0,0,1-8.51,4.67c7,13.81,20.46,39.6,23.07,44.95,3.91,8.09,3.18,12.88,3.81,21.23,0.26,6,7.51,27,10.81,40.24A143.35,143.35,0,0,0,364,291.1c1-5.56,2.13-11.11,3.08-16.36"/><path class="cls-4" d="M163,44.29a25.89,25.89,0,0,0-20.48,10,20.92,20.92,0,0,0-20.27,17.21,12.57,12.57,0,0,0-1.89-.14,12.38,12.38,0,1,0,0,24.77c30.16,0,66.81-1.64,100-1.64a9.55,9.55,0,1,0,0-19.11,9.68,9.68,0,0,0-1.92.19,19.38,19.38,0,0,0-31.2-14.72A25.94,25.94,0,0,0,163,44.29Z"/><path class="cls-96" d="M167.72,295.05c2.43,0.86,4.29,2.11,7,1.43s5.42-1.17,6.39-.5,8.28,8,12.53,20.36-1.93,2.83-4,1.35-7.11-10.44-9.28-11.65-8.44.11-14.24-2c-1.7-.63-4.15.45-5.16,3.15s-1.93,6.53-1.93,6.53-5.38,1-10.92-5.66c1.81-1.85,6.19-4.06,7.18-5.23,0.41-1.12-.83-2.46-2-3.37a64.77,64.77,0,0,1-7.81-6.77c-2.3-2.63-4.87-1.72-7.8-1.58s-8.72,1.25-11.19,1.08-6.23.22-.57-2.3,19.5-7.48,24.5-6.46c3.25,0.67,2.67,1.71,4.19,3.69s4.68,6.38,6.9,4.7a17.2,17.2,0,0,1,4.86-3c1.49-.52,2.92-0.15,2.4,1.56S167.72,295.05,167.72,295.05Z"/><path class="cls-97" d="M171.42,288.28a4,4,0,0,0-3.2.9c-0.66.75,0.57,0.91,0.82,0.78A26,26,0,0,1,171.42,288.28Z"/><ellipse class="cls-98" cx="166.11" cy="289.09" rx="0.48" ry="0.38" transform="translate(-134.32 144.5) rotate(-34.42)"/><path class="cls-96" d="M118.86,326c1.88,0.3,3.4,1,5.29.11s3.78-1.57,4.57-1.21,7.07,4.68,11.8,13.12-1,2.31-2.69,1.5-6.55-6.63-8.28-7.23-6.11,1.2-10.61.42c-1.31-.23-3,0.87-3.33,3s-0.54,5-.54,5-3.78,1.42-8.68-2.66c1.07-1.58,4-3.77,4.52-4.75,0.15-.87-0.93-1.67-1.87-2.19a47.81,47.81,0,0,1-6.57-3.88c-2-1.61-3.77-.61-5.87-0.11s-6.17,2.06-8,2.27-4.5,1-.72-1.6,13.17-8,16.93-7.94c2.45,0.05,2.17.89,3.54,2.12s4.25,4,5.64,2.5a12.69,12.69,0,0,1,3.13-2.81c1-.57,2.1-0.49,1.95.81S118.86,326,118.86,326Z"/><path class="cls-97" d="M120.65,320.64a2.92,2.92,0,0,0-2.21,1.08c-0.38.63,0.53,0.59,0.7,0.46A19.22,19.22,0,0,1,120.65,320.64Z"/><ellipse class="cls-98" cx="116.9" cy="321.94" rx="0.35" ry="0.28" transform="translate(-192.82 175.72) rotate(-44.77)"/><path class="cls-96" d="M117.91,237.8c1.29-.47,2.69-1.4,3.91-4.27s2-2.28,4.38-3.45a25.09,25.09,0,0,1,8.88-1.92c3-.18-2.8,3.39-4,4s-3.8,1.4-4.09,2.34a18.45,18.45,0,0,1-2.63,4.5c-0.76.76-3.16,2.63-2.34,3.68s3.91,2.1,4.27,2.22-1,3.8-4.5,4.33a23.51,23.51,0,0,1-1.76-4c-0.29-.65-1.87-1-3.39.47s-4.32,2.1-5.49,2.4-3,3.27-4.55,4.38-3.45,3-4.33,3.27,0.53-4,1.11-5a63.46,63.46,0,0,1,5.37-7c0.88-.7,2.87-0.64,4.62-1.75s1.75-1.23,1.69-1.81-1.87-2.16-2.1-2.75,0.24-.93,1-0.87A11.35,11.35,0,0,1,117.91,237.8Z"/><path class="cls-97" d="M111.55,236.06a15.21,15.21,0,0,1,1.52,1.25c0.22,0.25.6-.38,0.55-0.58A2.87,2.87,0,0,0,111.55,236.06Z"/><ellipse class="cls-98" cx="114.62" cy="236.83" rx="0.27" ry="0.21"/></svg>