<svg id="new" xmlns="http://www.w3.org/2000/svg" viewBox="0 0 80 80"><title>hc_smilies</title><circle id="_Pfad_" data-name="&lt;Pfad&gt;" cx="40.08" cy="39.96" r="40" style="fill:#cbc9c9"/><ellipse id="_Pfad_2" data-name="&lt;Pfad&gt;" cx="38.44" cy="38.63" rx="37.44" ry="37.61" style="fill:#d7d7d7"/><path d="M17.58,50H63.17S59.5,69.63,40.38,69.63,17.58,50,17.58,50Z" style="fill:#303030"/><path d="M40.38,59.83c8.14,0,9.8,7.72,9.8,7.72a22.62,22.62,0,0,1-9.8,2.08,22.66,22.66,0,0,1-9.7-2S32.24,59.83,40.38,59.83Z" style="fill:#ed6b70"/><path d="M14.22,33.33s15.12-2.59,21.49,7.36a83.51,83.51,0,0,0-21.49,1.19C3.87,44.07,18.79,38.1,28.15,39.1,28.15,39.1,27.35,34.92,14.22,33.33Z" style="fill:#303030"/><path d="M65.78,33.33s-15.12-2.59-21.49,7.36a83.51,83.51,0,0,1,21.49,1.19c10.35,2.19-4.58-3.78-13.93-2.79C51.85,39.1,52.65,34.92,65.78,33.33Z" style="fill:#303030"/></svg>