<svg id="new" xmlns="http://www.w3.org/2000/svg" viewBox="0 0 80 80"><title>hc_smilies</title><circle id="_Pfad_" data-name="&lt;Pfad&gt;" cx="40" cy="39.96" r="40" style="fill:#cbc9c9"/><ellipse id="_Pfad_2" data-name="&lt;Pfad&gt;" cx="38.45" cy="38.14" rx="37.44" ry="37.61" style="fill:#d7d7d7"/><path d="M15.85,24.46v3.25s9.92,1.29,11.91-11C27.76,16.7,21.93,25.53,15.85,24.46Z" style="fill:#303030"/><path d="M64.15,24.46v3.25s-9.92,1.13-11.91-11C52.24,16.7,58.11,25.55,64.15,24.46Z" style="fill:#303030"/><path d="M40.44,51.47c13.08,0,18.34,7.72,18.34,11.63A1.94,1.94,0,0,1,56.84,65c-1.08,0-8.93-6-16.4-6S25.11,65,24,65A1.94,1.94,0,0,1,22.1,63.1C22.1,59.18,27.36,51.47,40.44,51.47Z" style="fill:#303030"/><path d="M40.45,54.92a7.47,7.47,0,0,1,7.66,5.79A20.86,20.86,0,0,0,40.44,59a21.47,21.47,0,0,0-7.58,1.67A7.36,7.36,0,0,1,40.45,54.92Z" style="fill:#ed6b70"/><path d="M35.61,42.2s-4.17-3-11.4-3-11.4,3-11.4,3,1.83-7.29,11.4-7.29S35.61,42.2,35.61,42.2Z" style="fill:#303030"/><path d="M68.1,42.2s-4.17-3-11.4-3-11.4,3-11.4,3,1.83-7.29,11.4-7.29S68.1,42.2,68.1,42.2Z" style="fill:#303030"/><path d="M13.84,42.49c0,11.68,0,23.41,0,35.08,0,3.29,6,3.3,6,0,0-11.63-.06-23.47,0-35.08,0-3.64-6-3.65-6-.36v0.36Z" style="fill:#71caeb"/><path d="M61.11,42.49c0,11.68,0,23.41,0,35.08,0,3.29,6,3.3,6,0,0-11.63-.06-23.47,0-35.08,0-3.64-6-3.65-6-.36v0.36Z" style="fill:#71caeb"/></svg>