<svg id="Ebene_1" data-name="Ebene 1" xmlns="http://www.w3.org/2000/svg" viewBox="0 0 500 500"><title>hc_tools</title><path d="M500,246.49c-1.49-68.79-27-127.86-75.83-175.58S315.57-.71,246.71,0h-0.22C177.7,1.51,118.63,27,70.91,75.85S-0.71,184.43,0,253.29v0.22c1.47,68.77,27,127.85,75.83,175.58C124,476.15,182.66,500,250.23,500l3.06,0h0.22c68.79-1.49,127.86-27,175.58-75.83S500.71,315.57,500,246.71v-0.22ZM190.34,372.1L99.91,281.67l27.79-28.55,62.73,62.73,166.7-166,27.75,27.75Z" fill="#767676"/></svg>