<svg id="Ebene_1" data-name="Ebene 1" xmlns="http://www.w3.org/2000/svg" viewBox="0 0 500 500"><title>hc_tools</title><path d="M333,78.36V61.28h57.07V78.36H333ZM390.08,13.2V44.93H333V13.2a11.71,11.71,0,0,1,3.66-8.54A11.71,11.71,0,0,1,345.21,1h32.67a11.71,11.71,0,0,1,8.54,3.66A11.71,11.71,0,0,1,390.08,13.2Z" fill="#767676"/><path d="M445.86,92.69Q431.63,78.48,413,78.46h-23V248.1l-28.54,32.54L333,248.1V78.46H87A44.57,44.57,0,0,0,53.59,92.69q-13.7,14.23-13.68,32.83V451.59q0,18.62,13.68,32.83A44.51,44.51,0,0,0,87,498.64H413q18.59,0,32.83-14.22t14.22-32.83V125.51Q460.09,106.92,445.86,92.69ZM109.94,184.21H294.11v40H109.94v-40Zm0,69.48H294.11v40H109.94v-40ZM390.06,429.06H109.94v-40H390.06v40Zm0-66.73H109.94v-40H390.06v40Z" fill="#767676"/></svg>