<svg id="Ebene_1" data-name="Ebene 1" xmlns="http://www.w3.org/2000/svg" viewBox="0 0 500 500"><title>hc_tools</title><path d="M456.73,376.2a3.47,3.47,0,0,1,1.2-2.4l2.4-2.4Q500,312.52,500,241.59q0-89-58.33-155l-345,345Q162.55,482,250,482q52.88,0,97.36-18c0.79,0,1.2-.19,1.2-0.6s0.39-.6,1.2-0.6q9.61-2.39,13.22-2.4,9.61,0,14.42,2.4l101,37.26L451.92,394.23Q451.92,385.84,456.73,376.2Zm-48.23-15h-150v-40h150v40Z" fill="#767676"/><path d="M250,0Q146.62,0,73.32,70.91T0,241.59Q0,336.72,66.67,405L413.1,58.61Q344,0,250,0ZM229.49,173.66h-55v55h-40v-55h-55v-40h55v-55h40v55h55v40Z" fill="#767676"/></svg>