<svg width="705" height="256" xmlns="http://www.w3.org/2000/svg" xmlns:xlink="http://www.w3.org/1999/xlink"><defs><path id="a" d="M.027.368h243.605v243.605H.027z"/></defs><g fill="none" fill-rule="evenodd"><g transform="translate(8 6)"><mask id="b" fill="#fff"><use xlink:href="#a"/></mask><path d="M243.632 122.184C243.632 189.46 189.094 244 121.816 244 54.54 244 0 189.461 0 122.184S54.54.368 121.816.368c67.278 0 121.816 54.539 121.816 121.816" fill="#FFFFFE" mask="url(#b)"/><path d="M172.336 51.494a166.168 166.168 0 0 0-23.888-5.424 250.773 250.773 0 0 1 2.21 11.944c9.67-2.645 15.287-2.356 21.678-6.52" fill="#295E87" mask="url(#b)"/><path d="M194.517 94.919c.852.21 1.72.414 2.56.633a226.034 226.034 0 0 0-.963-6.825c-.174.614-.348 1.205-.531 1.84a66.947 66.947 0 0 0-1.066 4.352" fill="#007D93" mask="url(#b)"/><path d="M111.947 208.53c-.254-1.39-.446-2.659-.637-3.858-.031-.233-.07-.435-.1-.656a180.502 180.502 0 0 1-11.392-.967c5.21 22.072 12.578 35.832 20.74 35.832 1.06 0 2.114-.238 3.148-.698-1.345-3.295-2.919-6.975-4.188-9.948-4.3-10.039-6.955-16.377-7.57-19.705" fill="#6CB644" mask="url(#b)"/><path d="M59.72 51.189c11.032-4.367 23.02-7.502 35.56-9.33 3.835-16.798 9.053-29.974 15.63-36.74-.119.01-.223.018-.332.032C89.841 9.574 71.754 26.674 59.72 51.189" fill="#933D86" mask="url(#b)"/><path d="M142.476 40.951c-5.369-22.073-12.935-35.832-21.328-35.832-8.396 0-15.971 13.76-21.33 35.832a186.034 186.034 0 0 1 42.658 0" fill="#005093" mask="url(#b)"/><path d="M120.967 75.077c5.536-6.132 7.974-5.462 16.025-9.616 2.694-1.388 6.02-3.105 9.75-4.51-.78-5.03-1.637-9.818-2.586-14.312a176.583 176.583 0 0 0-44.73 0c-1.13 5.351-2.137 11.13-3.02 17.237 8.929.905 17.52 3.429 24.56 11.2" fill="#4A5580" mask="url(#b)"/><path d="M95.552 174.042c1.115 8.855 2.503 17.094 4.128 24.515 4 .493 8.03.846 12.082 1.08-.54-1.919-1.329-3.727-2.791-5.933-1.762-2.629-7.918-11.631-13.419-19.662" fill="#B9D137" mask="url(#b)"/><path d="M132.427 5.139c-.065-.007-.122-.014-.19-.02 5.659 5.872 10.485 16.863 14.45 32.903.31 1.257.61 2.545.9 3.847 9.856 1.444 19.353 3.718 28.316 6.76 1.174-1.296 2.269-2.81 3.258-4.573C167.353 23.38 150.956 9.12 132.427 5.14" fill="#0067A5" mask="url(#b)"/><path d="M201.749 96.112c16.975 3.834 30.303 9.063 37.132 15.65-.007-.115-.021-.227-.027-.343-3.685-17.109-16.08-32.417-34.186-44.02-1.793 3.746-3.74 8.129-5.885 13.498a169.865 169.865 0 0 1 2.966 15.215" fill="#007D93" mask="url(#b)"/><path d="M238.028 122c0-8.394-13.76-15.965-35.832-21.329a186.137 186.137 0 0 1 0 42.658c22.072-5.364 35.832-12.934 35.832-21.33" fill="#007A70" mask="url(#b)"/><path d="M173.53 137.12l-6.998 8.387a297.693 297.693 0 0 1-1.875 4.647c12.01-1.212 23.057-2.906 32.722-5.003a182.599 182.599 0 0 0 0-45.205 194.48 194.48 0 0 0-4.77-.981c-.076.31-.15.622-.213.937-2.168 9.442-4.625 20.149-18.866 37.218" fill="#008F6D" mask="url(#b)"/><path d="M201.293 148.587c-1.833 12.594-4.96 24.622-9.335 35.693 24.513-12.065 41.62-30.202 46.056-50.99.002-.068.009-.134.014-.2-5.869 5.706-16.856 10.589-32.894 14.582-1.251.316-2.541.616-3.841.915" fill="#008255" mask="url(#b)"/><path d="M165.51 218.406c6.846-7.07 12.898-15.72 17.917-25.595-4.652 1.781-9.482 3.34-14.433 4.696.07 4.43-.834 8.046-1.73 11.563-.716 2.827-1.455 5.75-1.754 9.336" fill="#43913A" mask="url(#b)"/><path d="M19.128 77.134c9.525-9.814 21.72-17.697 34.663-23.497C61.85 35.747 74 19.293 89.581 9.385c-35.242 10.055-63.663 36.2-76.784 69.958 1.228-.63 2.565-1.168 6.331-2.209" fill="#C61A6A" mask="url(#b)"/><path d="M153.68 178.69l-.114.362c6.947 2.4 14.276 7.674 15.225 12.734.066.354.097.682.154 1.025a146.135 146.135 0 0 0 17.489-6.21c4.89-11.233 8.543-23.813 10.643-37.3-10.243 2.107-21.71 3.741-33.927 4.875l-1.894 4.769c-3.36 8.457-6.832 17.202-7.577 19.746" fill="#15A748" mask="url(#b)"/><path d="M207.315 63.177c11.367 7.342 21.297 16.492 28.154 27.257-4.312-15.093-11.53-28.95-20.997-40.951a223.442 223.442 0 0 1-2.829 5.396c-1.324 2.478-2.763 5.158-4.328 8.298" fill="#007FBA" mask="url(#b)"/><path d="M153.566 9.385c11.02 7.178 20.284 17.78 27.573 29.86 1.5-4.112 2.593-9.22 3.14-15.573-9.39-6.211-19.71-11.072-30.713-14.287" fill="#008AC4" mask="url(#b)"/><path d="M52.913 190.225c-17.926-8.054-34.44-20.208-44.382-35.805 11.06 38.67 41.53 69.14 80.196 80.195-15.59-9.935-27.75-26.44-35.814-44.39" fill="#E1B424" mask="url(#b)"/><path d="M189.454 190.39c-5.995 13.406-14.231 25.98-24.438 35.649-.13 1.693-.244 3.408-.359 5.164 33.35-13.344 59.136-41.7 69.105-76.783-9.913 15.654-26.389 27.874-44.308 35.97" fill="#00753C" mask="url(#b)"/><path d="M51.189 60.573c-8.676 4.152-16.428 9.036-23.035 14.504 6.775-1.802 13.794-3.779 19.956-6.176a139.385 139.385 0 0 1 3.079-8.328" fill="#B42554" mask="url(#b)"/><path d="M65.768 60.467c14.7.775 26.104 1.03 26.171 1.034.802-5.372 1.72-10.542 2.76-15.431-13.558 2.035-26.205 5.57-37.5 10.3a133.844 133.844 0 0 0-3.45 8.47c6.527-3.232 5.32-4.227 12.02-4.373" fill="#4F3B68" mask="url(#b)"/><path d="M71.981 143.454c-5.954-3.563-10.995-7.96-15.874-12.214-3.537-3.09-7.5-6.547-11.743-9.24-.012 7.706.446 15.41 1.387 23.018 9.89 2.17 21.24 3.912 33.592 5.136a25.738 25.738 0 0 0-2.505-2.938 24.788 24.788 0 0 0-4.857-3.762" fill="#EB8B2D" mask="url(#b)"/><path d="M51.189 184.28c-4.394-11.203-7.543-23.372-9.379-36.11-16.22-3.73-29.064-8.772-36.081-15.08l-.61.488c4.752 20.658 21.793 38.663 46.07 50.702" fill="#F3B229" mask="url(#b)"/><path d="M82.268 154.38c-12.942-1.122-25.246-2.814-36.198-5.08 2.085 13.457 5.71 26.003 10.561 37.205 11.207 4.858 23.754 8.485 37.215 10.572-1.994-9.636-3.564-20.35-4.685-31.766-1.857-2.765-3.89-6.538-6.893-10.931" fill="#FFDA1A" mask="url(#b)"/><path d="M21.421 120.548l-.177.148-11.86 9.591c5.898 5.033 16.932 9.512 31.567 13.042a186.778 186.778 0 0 1-1.21-24.272c-2.944-1.336-5.995-2.176-9.102-2.176-3.484 0-6.412 1.164-9.218 3.667" fill="#DC3E2A" mask="url(#b)"/><path d="M95.411 202.146c-12.592-1.826-24.62-4.964-35.69-9.335 12.067 24.516 30.205 41.626 51 46.052.055.007.12.014.188.018-5.708-5.868-10.594-16.854-14.585-32.889a198.209 198.209 0 0 1-.913-3.846" fill="#A7BE33" mask="url(#b)"/><path d="M30.303 112.513c11.01 0 20.556 8.028 28.483 14.807 4.76 4.068 9.68 8.276 15.316 11.577a29.742 29.742 0 0 1 5.809 4.414c2.571 2.514 2.75 3.014 4.097 5.107 1.374 2.135 2.252 3.442 3.018 3.442 1.29 0 4.086-1.486 4.608-3.703 1.013-4.51-3.282-8.675-6.657-11.83-4.73-4.42-11.744-12.41-13.703-16.085-15.706-29.488 18.933-53.4 39.85-36.446 2.121-2.03 4.074-4.598 5.757-6.372-11.11-12.207-27.15-9.312-43.284-10.51-2.259-.168-8.96-.685-10.876-.088-1.917.597-3.921 1.728-5.141 2.444-14.716 8.6-35.462 10.538-47.817 17.313a117.494 117.494 0 0 0-5.497 35.606c0 2.017.05 4.022.151 6.016l13.536-10.862c3.667-3.251 7.708-4.83 12.35-4.83" fill="#DF542A" mask="url(#b)"/><path d="M148.825 64.262c-6.31 2.3-11.392 5.591-14.955 6.86-6.925 2.451-7.812 4.465-12.997 10.163-1.517 1.69-3.524 4.173-5.687 6.208-.037.104-.017.852.593 1.74 1.781 2.62 4.559 1.686 6.869-.513 24.89-23.648 44.694-3.22 47.158 9.162 1.145 5.738 1.588 14.456-5.162 28.554 3.319 1.111 5.598 3.176 5.927 6.655 18.263-21.636 15.877-31.491 20.593-44.704 9.057-25.428 15.206-34.007 19.563-43.11a117.692 117.692 0 0 0-20.669-18.83c-4.282 36.346-26.45 32.432-41.233 37.815" fill="#00A3DA" mask="url(#b)"/><path d="M161.339 219.083c.737-10.841 4.953-15.731 3.002-26.136-.51-2.713-6.936-8.052-14.415-9.822l-2.323-.297 1.65-5.25c1.018-3.441 6.09-15.985 10.364-26.8.464-1.105 6.045-13.92 5.89-16.031-.265-1.997-2.692-3.362-4.22-3.362-1.531 0-3.12 2.794-4.823 5.752-2.282 3.893-3.766 7.43-5.868 11.182l-.008-.007c-2.218 3.957-4.47 8.065-7.008 12.683a2247.141 2247.141 0 0 1-8.668 15.708c-1.533 2.75-4.014 4.267-7.002 4.267-2.733 0-5.625-.77-6.463-1.415-.837-.645-20.594-22.858-25.342-27.537-1.446 2.348-3.89 3.952-6.525 4.707 7.101 10.515 20.425 30.11 22.975 33.997 4.02 6.121 3.872 10.151 5.118 16.826.898 4.794 8.663 21.146 12.745 31.333a117.916 117.916 0 0 0 29.973-6.119c.26-4.874.653-9.376.948-13.68" fill="#84BF41" mask="url(#b)"/></g><path d="M352.843 211.335c2.543 0 4.795-.22 6.756-.66a32.875 32.875 0 0 0 5.558-1.758v-12.141h-7.846c-1.163 0-2.07-.312-2.725-.934-.653-.623-.98-1.41-.98-2.363V183.26h28.223v33.788a41.527 41.527 0 0 1-6.347 3.874 40.79 40.79 0 0 1-7.029 2.664c-2.488.696-5.14 1.209-7.955 1.538-2.815.33-5.839.495-9.072.495-5.812 0-11.187-1.035-16.127-3.104-4.94-2.07-9.217-4.926-12.832-8.57-3.614-3.645-6.447-7.967-8.5-12.967-2.052-5-3.078-10.429-3.078-16.29 0-5.97.98-11.454 2.942-16.454 1.962-5 4.768-9.312 8.418-12.938 3.65-3.626 8.064-6.446 13.24-8.46 5.176-2.015 10.96-3.022 17.354-3.022 3.305 0 6.411.274 9.317.824 2.906.549 5.585 1.3 8.036 2.252 2.452.952 4.695 2.088 6.73 3.406 2.034 1.319 3.85 2.747 5.448 4.286l-5.34 8.186c-.508.769-1.117 1.373-1.825 1.813-.708.44-1.48.659-2.315.659-1.09 0-2.216-.366-3.379-1.099a57.091 57.091 0 0 0-4.113-2.28 24.976 24.976 0 0 0-3.95-1.566 25.701 25.701 0 0 0-4.25-.879c-1.49-.183-3.16-.274-5.013-.274-3.45 0-6.556.613-9.317 1.84-2.76 1.227-5.112 2.958-7.056 5.192-1.943 2.234-3.441 4.917-4.495 8.049-1.053 3.131-1.58 6.62-1.58 10.466 0 4.248.581 8.02 1.744 11.317 1.162 3.297 2.77 6.08 4.822 8.351a20.476 20.476 0 0 0 7.3 5.192c2.816 1.19 5.894 1.786 9.236 1.786zm73.228-1.264c2.47 0 4.677-.412 6.62-1.236 1.944-.824 3.587-2.005 4.931-3.544 1.344-1.538 2.37-3.415 3.079-5.631.708-2.216 1.062-4.734 1.062-7.554v-47.413h18.416v47.413c0 4.908-.79 9.413-2.37 13.515s-3.841 7.636-6.783 10.603c-2.943 2.967-6.52 5.274-10.734 6.923-4.214 1.648-8.954 2.472-14.22 2.472-5.304 0-10.062-.824-14.276-2.472-4.213-1.649-7.791-3.956-10.734-6.923-2.942-2.967-5.194-6.501-6.756-10.603-1.562-4.102-2.343-8.607-2.343-13.515v-47.413h18.416v47.358c0 2.82.355 5.338 1.063 7.554s1.734 4.102 3.078 5.659c1.344 1.556 2.988 2.747 4.931 3.57 1.944.825 4.15 1.237 6.62 1.237zm66.254 14.669H473.8v-80.047h18.525v80.047zm86.741-40.051c0 5.787-.99 11.125-2.97 16.015-1.979 4.89-4.767 9.12-8.363 12.69-3.596 3.572-7.927 6.356-12.995 8.352-5.067 1.996-10.688 2.994-16.863 2.994h-30.839v-80.047h30.84c6.174 0 11.795 1.007 16.862 3.021 5.068 2.015 9.4 4.798 12.995 8.351 3.596 3.553 6.384 7.774 8.364 12.664 1.98 4.89 2.97 10.21 2.97 15.96zm-18.852 0c0-3.956-.508-7.527-1.525-10.714-1.017-3.186-2.48-5.887-4.386-8.103-1.907-2.216-4.241-3.92-7.002-5.11-2.76-1.19-5.902-1.785-9.426-1.785h-12.314v51.479h12.314c3.524 0 6.666-.596 9.426-1.786s5.095-2.894 7.002-5.11c1.907-2.215 3.369-4.917 4.386-8.103 1.017-3.187 1.525-6.776 1.525-10.768zM639 144.693v14.284h-32.582v18.68h24.954v13.734h-24.954v19.065H639v14.284h-51.107v-80.047H639z" fill="#15A338"/><g fill="#1A1919"><path d="M351.442 101.7V75.911h-27.706V101.7H310V38h13.736v25.789h27.706V38h13.736v63.7h-13.736M401.964 101.7c-15.215 0-27.59-12.42-27.59-27.688V38h13.735v36.012c0 7.665 6.215 13.901 13.855 13.901 7.637 0 13.85-6.236 13.85-13.9L415.816 38h13.735v36.012c0 15.268-12.374 27.688-27.587 27.688M532.794 74.653h27.71V65.69c0-7.668-6.218-13.905-13.854-13.905-7.642 0-13.856 6.237-13.856 13.905v8.962zm27.71 27.047V86.775h-27.71V101.7h-13.732V65.69c0-15.269 12.374-27.69 27.588-27.69 15.212 0 27.59 12.421 27.59 27.69v36.01h-13.736zM627.778 101.7a6.135 6.135 0 0 1-4.49-2.035 6.09 6.09 0 0 1-.486-.61l-26.858-38.494V101.7H582.21V38h9.559a6.14 6.14 0 0 1 4.544 2.04c.175.195.34.4.486.61l26.854 38.49.003-41.14h13.732v63.7h-9.61M496.134 101.7V60.567l-17.3 24.79a5.966 5.966 0 0 1-4.839 2.432 5.973 5.973 0 0 1-4.854-2.462l-17.278-24.76V101.7h-13.728V38.005h9.33a6.135 6.135 0 0 1 4.765 2.04c.175.192.337.395.486.61l21.28 30.5 21.288-30.505c.143-.2.304-.407.482-.606A6.14 6.14 0 0 1 500.313 38l9.55.005.002 63.695h-13.73M329.227 129.97c.224 0 .419.09.584.269l1.647 1.806a10.49 10.49 0 0 1-3.824 2.926c-1.512.686-3.317 1.029-5.418 1.029-1.865 0-3.55-.325-5.054-.975a11.117 11.117 0 0 1-3.851-2.72c-1.063-1.163-1.88-2.55-2.452-4.16-.573-1.61-.859-3.381-.859-5.314 0-1.932.304-3.706.912-5.323.608-1.616 1.463-3.006 2.567-4.17 1.104-1.162 2.425-2.065 3.966-2.71 1.54-.644 3.236-.966 5.09-.966 1.841 0 3.467.302 4.877.904 1.411.603 2.635 1.404 3.674 2.407l-1.363 1.95a1.517 1.517 0 0 1-.337.34c-.13.096-.307.143-.53.143-.237 0-.505-.11-.806-.331-.301-.221-.685-.465-1.15-.734-.467-.268-1.052-.512-1.754-.733-.702-.22-1.579-.332-2.629-.332-1.216 0-2.331.216-3.346.645a7.236 7.236 0 0 0-2.62 1.878c-.732.824-1.302 1.825-1.709 3.007-.407 1.18-.61 2.522-.61 4.025 0 1.515.212 2.866.637 4.053.424 1.187 1.009 2.189 1.752 3.005a7.487 7.487 0 0 0 2.62 1.87 8.15 8.15 0 0 0 3.24.644c.709 0 1.343-.038 1.904-.116a7.485 7.485 0 0 0 1.549-.376c.472-.172.918-.39 1.337-.653a8.479 8.479 0 0 0 1.248-.966c.236-.214.472-.322.708-.322M356 122.84c0-1.48-.2-2.81-.6-3.992-.4-1.182-.972-2.185-1.716-3.008a7.47 7.47 0 0 0-2.71-1.898c-1.06-.442-2.253-.663-3.576-.663-1.311 0-2.498.221-3.558.663a7.557 7.557 0 0 0-2.719 1.898c-.75.823-1.329 1.826-1.734 3.008-.405 1.181-.608 2.513-.608 3.992 0 1.492.203 2.829.608 4.011.405 1.182.983 2.182 1.734 2.999a7.52 7.52 0 0 0 2.719 1.88c1.06.436 2.247.654 3.558.654 1.323 0 2.515-.218 3.576-.653a7.432 7.432 0 0 0 2.71-1.881c.744-.817 1.317-1.817 1.716-2.999.4-1.182.6-2.519.6-4.01zm4.273 0c0 1.91-.31 3.671-.93 5.282-.62 1.612-1.493 3-2.62 4.163-1.126 1.164-2.48 2.075-4.059 2.73-1.58.657-3.335.985-5.266.985-1.92 0-3.669-.328-5.248-.984-1.58-.656-2.936-1.567-4.068-2.73-1.133-1.165-2.01-2.552-2.629-4.164-.62-1.611-.93-3.371-.93-5.282 0-1.909.31-3.67.93-5.282.62-1.611 1.496-3.001 2.629-4.171 1.132-1.17 2.488-2.083 4.068-2.74 1.58-.656 3.329-.984 5.248-.984 1.931 0 3.687.328 5.266.984 1.58.657 2.933 1.57 4.06 2.74 1.126 1.17 2 2.56 2.62 4.171.619 1.612.929 3.373.929 5.282zM386.636 109.662v25.725h-2.142c-.325 0-.601-.056-.829-.17-.228-.112-.444-.3-.648-.562l-14.24-18.15a20.48 20.48 0 0 1 .109 1.965v16.917h-3.708v-25.725h2.196c.18 0 .333.01.459.027.126.018.243.051.35.099.109.048.21.119.307.214.096.095.198.214.306.357l14.257 18.168a23.118 23.118 0 0 1-.108-2.09v-16.775h3.69M414.837 109.662v25.725h-2.142c-.324 0-.6-.056-.828-.17-.228-.112-.444-.3-.648-.562l-14.239-18.15a20.48 20.48 0 0 1 .108 1.965v16.917h-3.709v-25.725h2.197c.18 0 .333.01.459.027.126.018.243.051.35.099.109.048.21.119.307.214.096.095.198.214.306.357l14.257 18.168a23.557 23.557 0 0 1-.081-1.09c-.018-.356-.027-.69-.027-1v-16.775h3.69M437.521 132.011l-.019 3.377h-16.534v-25.726h16.534v3.377h-12.206v7.753h9.756v3.27h-9.756v7.95h12.225M460.427 129.97a.77.77 0 0 1 .584.269l1.647 1.806a10.518 10.518 0 0 1-3.824 2.926c-1.512.686-3.318 1.029-5.418 1.029-1.865 0-3.552-.325-5.055-.975-1.506-.65-2.79-1.557-3.852-2.72-1.063-1.163-1.878-2.55-2.453-4.16-.572-1.61-.856-3.381-.856-5.314 0-1.932.303-3.706.91-5.323.608-1.616 1.464-3.006 2.567-4.17 1.103-1.162 2.425-2.065 3.968-2.71 1.54-.644 3.234-.966 5.09-.966 1.84 0 3.465.302 4.877.904 1.409.603 2.634 1.404 3.674 2.407l-1.362 1.95a1.61 1.61 0 0 1-.337.34c-.132.096-.307.143-.532.143-.237 0-.506-.11-.806-.331-.3-.221-.684-.465-1.15-.734-.468-.268-1.052-.512-1.752-.733-.703-.22-1.581-.332-2.63-.332-1.216 0-2.332.216-3.347.645a7.255 7.255 0 0 0-2.621 1.878c-.731.824-1.3 1.825-1.71 3.007-.406 1.18-.609 2.522-.609 4.025 0 1.515.213 2.866.638 4.053.425 1.187 1.009 2.189 1.752 3.005a7.496 7.496 0 0 0 2.622 1.87c1.003.43 2.08.644 3.24.644.706 0 1.34-.038 1.902-.116a7.497 7.497 0 0 0 1.55-.376c.472-.172.919-.39 1.337-.653a8.435 8.435 0 0 0 1.247-.966c.237-.214.472-.322.71-.322M485.955 113.147h-8.266v22.24h-4.29v-22.24h-8.289v-3.485h20.845v3.485M489.634 135.387h4.291v-25.725h-4.291zM520.307 122.84c0-1.48-.199-2.81-.6-3.992-.4-1.182-.972-2.185-1.716-3.008a7.466 7.466 0 0 0-2.708-1.898c-1.063-.442-2.253-.663-3.578-.663-1.31 0-2.496.221-3.56.663a7.555 7.555 0 0 0-2.717 1.898c-.75.823-1.328 1.826-1.735 3.008-.404 1.181-.606 2.513-.606 3.992 0 1.492.202 2.829.606 4.011.407 1.182.984 2.182 1.735 2.999a7.517 7.517 0 0 0 2.717 1.88c1.064.436 2.25.654 3.56.654 1.325 0 2.515-.218 3.578-.653a7.428 7.428 0 0 0 2.708-1.881c.744-.817 1.315-1.817 1.716-2.999.401-1.182.6-2.519.6-4.01zm4.272 0c0 1.91-.309 3.671-.927 5.282-.622 1.612-1.493 3-2.62 4.163-1.126 1.164-2.48 2.075-4.06 2.73-1.582.657-3.336.985-5.267.985-1.919 0-3.667-.328-5.248-.984-1.581-.656-2.935-1.567-4.068-2.73-1.132-1.165-2.01-2.552-2.628-4.164-.622-1.611-.931-3.371-.931-5.282 0-1.909.31-3.67.93-5.282.62-1.611 1.497-3.001 2.63-4.171 1.132-1.17 2.486-2.083 4.067-2.74 1.58-.656 3.33-.984 5.248-.984 1.93 0 3.685.328 5.266.984 1.581.657 2.935 1.57 4.062 2.74 1.126 1.17 1.997 2.56 2.619 4.171.618 1.612.927 3.373.927 5.282zM550.942 109.662v25.725h-2.141c-.324 0-.6-.056-.83-.17-.228-.112-.444-.3-.647-.562l-14.24-18.15a19.098 19.098 0 0 1 .11 1.965v16.917h-3.71v-25.725h2.195c.181 0 .334.01.46.027.128.018.242.051.35.099.108.048.21.119.308.214.096.095.197.214.305.357l14.257 18.168c-.035-.369-.06-.732-.08-1.09-.019-.356-.028-.69-.028-1v-16.775h3.691M555.847 133.559c0-.34.062-.658.187-.957a2.395 2.395 0 0 1 2.248-1.502c.34 0 .66.065.962.194.3.128.56.304.785.527a2.445 2.445 0 0 1 .722 1.738c0 .351-.062.673-.193.966-.127.293-.305.55-.53.773a2.385 2.385 0 0 1-.784.518 2.526 2.526 0 0 1-.962.184c-.343 0-.66-.061-.962-.184a2.283 2.283 0 0 1-.776-.518 2.442 2.442 0 0 1-.698-1.739M584.678 122.84c0-1.48-.199-2.81-.6-3.992-.397-1.182-.971-2.185-1.716-3.008a7.465 7.465 0 0 0-2.707-1.898c-1.063-.442-2.253-.663-3.578-.663-1.31 0-2.496.221-3.556.663a7.539 7.539 0 0 0-2.72 1.898c-.75.823-1.328 1.826-1.732 3.008-.407 1.181-.609 2.513-.609 3.992 0 1.492.202 2.829.609 4.011.404 1.182.981 2.182 1.732 2.999a7.502 7.502 0 0 0 2.72 1.88c1.06.436 2.247.654 3.556.654 1.325 0 2.515-.218 3.578-.653a7.427 7.427 0 0 0 2.707-1.881c.745-.817 1.319-1.817 1.716-2.999.401-1.182.6-2.519.6-4.01zm4.275 0c0 1.91-.312 3.671-.93 5.282-.619 1.612-1.493 3-2.62 4.163-1.126 1.164-2.48 2.075-4.06 2.73-1.578.657-3.335.985-5.266.985-1.918 0-3.666-.328-5.247-.984-1.578-.656-2.934-1.567-4.067-2.73-1.133-1.165-2.01-2.552-2.628-4.164-.622-1.611-.931-3.371-.931-5.282 0-1.909.309-3.67.93-5.282.619-1.611 1.496-3.001 2.629-4.171 1.133-1.17 2.49-2.083 4.067-2.74 1.58-.656 3.329-.984 5.247-.984 1.93 0 3.688.328 5.266.984 1.58.657 2.934 1.57 4.06 2.74 1.127 1.17 2.001 2.56 2.62 4.171.618 1.612.93 3.373.93 5.282zM601.34 121.989c.955 0 1.792-.116 2.506-.349.717-.231 1.314-.555 1.79-.973a3.989 3.989 0 0 0 1.075-1.492 5.015 5.015 0 0 0 .357-1.92c0-1.405-.465-2.477-1.397-3.216-.928-.738-2.337-1.107-4.223-1.107h-3.402v9.057h3.295zm12.137 13.398h-3.74c-.743 0-1.28-.286-1.611-.858l-6.014-8.664c-.206-.297-.427-.511-.664-.643-.24-.13-.597-.196-1.074-.196h-2.328v10.361h-4.188v-25.725h7.59c1.693 0 3.153.174 4.375.519 1.226.345 2.23.836 3.017 1.473a5.815 5.815 0 0 1 1.746 2.296c.376.893.563 1.888.563 2.984 0 .893-.133 1.726-.401 2.5a6.976 6.976 0 0 1-1.166 2.108 7.38 7.38 0 0 1-1.87 1.644 9.47 9.47 0 0 1-2.524 1.09c.515.31.954.744 1.327 1.304l6.962 9.807zM638 123.028v10.198c-2.568 1.85-5.556 2.774-8.958 2.774-2.093 0-3.98-.325-5.673-.975-1.691-.65-3.133-1.557-4.325-2.72-1.195-1.163-2.115-2.55-2.76-4.16-.646-1.61-.968-3.381-.968-5.314 0-1.944.31-3.725.933-5.34.62-1.617 1.508-3.006 2.668-4.17 1.158-1.163 2.555-2.063 4.193-2.702 1.635-.637 3.475-.957 5.518-.957 1.04 0 2.005.081 2.896.242a14.32 14.32 0 0 1 2.48.67 11.65 11.65 0 0 1 3.888 2.399l-1.201 1.914c-.19.298-.436.483-.734.555-.297.071-.62 0-.967-.215-.348-.203-.715-.417-1.1-.644a9.62 9.62 0 0 0-1.338-.635 9.7 9.7 0 0 0-1.736-.483c-.658-.126-1.436-.189-2.33-.189-1.363 0-2.59.225-3.684.672a7.863 7.863 0 0 0-2.802 1.914c-.778.83-1.375 1.834-1.793 3.015-.417 1.18-.626 2.5-.626 3.954 0 1.539.219 2.914.661 4.124.443 1.21 1.069 2.237 1.882 3.077a8.025 8.025 0 0 0 2.947 1.924c1.154.442 2.44.662 3.864.662 1.062 0 2.007-.113 2.839-.34a12.984 12.984 0 0 0 2.444-.948v-5.118h-3.601c-.275 0-.49-.073-.645-.223a.769.769 0 0 1-.231-.581v-2.38H638"/></g></g></svg>