<?xml version="1.0" encoding="UTF-8"?>
<svg width="256px" height="256px" viewBox="0 0 256 256" version="1.1" xmlns="http://www.w3.org/2000/svg" xmlns:xlink="http://www.w3.org/1999/xlink">
    <!-- Generator: Sketch 49.1 (51147) - http://www.bohemiancoding.com/sketch -->
    <title>Logo-Globe-Alpha</title>
    <desc>Created with Sketch.</desc>
    <defs></defs>
    <g id="Logo-Globe-Alpha" stroke="none" stroke-width="1" fill="none" fill-rule="evenodd">
        <g id="HC-Globe/Color" transform="translate(6.000000, 6.000000)">
            <path d="M243.63245,122.183775 C243.63245,189.46135 189.0938,244 121.816225,244 C54.5390926,244 0,189.46135 0,122.183775 C0,54.9066425 54.5390926,0.367549909 121.816225,0.367549909 C189.0938,0.367549909 243.63245,54.9066425 243.63245,122.183775" id="Fill-1" fill="#FFFFFE"></path>
            <path d="M172.335664,51.4943739 C164.777511,49.1718087 156.787258,47.3342279 148.447552,46.0699301 C149.25875,49.8861062 149.989098,53.8872266 150.658358,58.013986 C160.327153,55.3685373 165.944899,55.6584736 172.335664,51.4943739" id="Fill-4" fill="#295E87"></path>
            <path d="M194.517483,94.9189732 C195.369496,95.1290225 196.237378,95.333369 197.076923,95.5524476 C196.792415,93.2509351 196.462189,90.979837 196.113827,88.7272727 C195.939646,89.3412628 195.765843,89.9324422 195.582972,90.5673421 C195.165088,92.0414887 194.823149,93.4828447 194.517483,94.9189732" id="Fill-5" fill="#007D93"></path>
            <path d="M111.947173,208.529729 C111.693264,207.139389 111.501432,205.871445 111.31003,204.671885 C111.278561,204.439291 111.240626,204.23675 111.210019,204.015916 C107.425529,203.811199 103.626813,203.498024 99.8181818,203.048951 C105.027837,225.121026 112.396363,238.881119 120.558946,238.881119 C121.61769,238.881119 122.672122,238.643298 123.706294,238.1829 C122.360879,234.887813 120.787421,231.207682 119.518309,228.234916 C115.217379,218.196334 112.563193,211.858355 111.947173,208.529729" id="Fill-6" fill="#6CB644"></path>
            <path d="M59.7202797,51.1888112 C70.7521347,46.8220121 82.7397196,43.6873076 95.2809233,41.8589523 C99.1148541,25.0613823 104.333492,11.8849519 110.909091,5.11888112 C110.791056,5.12910781 110.686674,5.13666668 110.578329,5.15089512 C89.8407496,9.57371868 71.7536693,26.6736431 59.7202797,51.1888112" id="Fill-7" fill="#933D86"></path>
            <path d="M142.475524,40.951049 C137.107172,18.8780015 129.5405,5.11888112 121.147518,5.11888112 C112.751876,5.11888112 105.176781,18.8793082 99.8181818,40.951049 C114.134526,39.3154438 128.175139,39.3154438 142.475524,40.951049" id="Fill-8" fill="#005093"></path>
            <path d="M120.966781,75.0769231 C126.502756,68.9453705 128.941295,69.6145695 136.991973,65.461401 C139.686012,64.0726671 143.012379,62.3562998 146.741259,60.9518358 C145.962804,55.9218324 145.105086,51.1327227 144.15615,46.6388874 C129.363291,44.7414004 114.199358,44.744097 99.4250966,46.6388874 C98.2954955,51.9902322 97.2894376,57.7689834 96.4055944,63.8762668 C105.334801,64.7809663 113.926589,67.3045072 120.966781,75.0769231" id="Fill-9" fill="#4A5580"></path>
            <path d="M95.5524476,174.041958 C96.6672204,182.896907 98.0545936,191.135948 99.6798151,198.556869 C103.679909,199.050037 107.710242,199.402804 111.762238,199.636364 C111.222904,197.717997 110.433086,195.910009 108.970792,193.703777 C107.208819,191.07502 101.053197,182.072606 95.5524476,174.041958" id="Fill-10" fill="#B9D137"></path>
            <path d="M132.426778,5.13890374 C132.361585,5.13222953 132.305143,5.12466543 132.237762,5.11888112 C137.895536,10.9908483 142.721555,21.9819322 146.686503,38.0218312 C146.996716,39.2788068 147.297303,40.5673737 147.586952,41.868844 C157.443318,43.3131424 166.94003,45.5868222 175.902511,48.6293706 C177.076857,47.3327947 178.171571,45.8190846 179.160839,44.0562041 C167.353064,23.3799561 150.955539,9.11984567 132.426778,5.13890374" id="Fill-11" fill="#0067A5"></path>
            <path d="M201.748604,96.1123209 C218.724303,99.9456109 232.051918,105.17475 238.881119,111.762238 C238.874377,111.646652 238.859995,111.534596 238.853703,111.419452 C235.169216,94.3101585 222.773284,79.001704 204.66815,67.3986014 C202.875344,71.1445405 200.927932,75.5279642 198.783217,80.8969525 C199.984113,85.8556564 200.98546,90.9334752 201.748604,96.1123209" id="Fill-12" fill="#007D93"></path>
            <path d="M238.027972,121.999113 C238.027972,113.606059 224.268315,106.034974 202.195804,100.671329 C203.831805,114.984433 203.829192,129.028867 202.195804,143.328671 C224.268315,137.964582 238.027972,130.394828 238.027972,121.999113" id="Fill-13" fill="#007A70"></path>
            <path d="M173.529726,137.119898 L166.531715,145.507112 C165.999912,146.857319 165.379992,148.405335 164.657343,150.153846 C176.666078,148.941927 187.71438,147.247568 197.378932,145.151324 C199.252861,130.197012 199.249762,114.88378 197.378932,99.9464746 C195.823818,99.6054545 194.232395,99.2787555 192.608205,98.965035 C192.532929,99.2751753 192.459867,99.5871057 192.396104,99.9017213 C190.228155,109.34377 187.771058,120.050547 173.529726,137.119898" id="Fill-14" fill="#008F6D"></path>
            <path d="M201.292664,148.587142 C199.460436,161.180703 196.333326,173.209278 191.958042,184.27972 C216.470933,172.214922 233.578847,154.077527 238.013738,133.28925 C238.016407,133.221664 238.022634,133.155845 238.027972,133.090909 C232.15897,138.795979 221.171828,143.678529 205.13416,147.672299 C203.882872,147.987701 202.592883,148.288084 201.292664,148.587142" id="Fill-15" fill="#008255"></path>
            <path d="M165.51049,218.405594 C172.356451,211.335698 178.408172,202.686412 183.426573,192.811189 C178.774848,194.591988 173.94538,196.150406 168.994135,197.506977 C169.063531,201.937131 168.160496,205.552905 167.263281,209.069504 C166.548286,211.896676 165.809113,214.82084 165.51049,218.405594" id="Fill-16" fill="#43913A"></path>
            <path d="M19.1280322,77.1342996 C28.6531953,67.3197679 40.8486183,59.4370538 53.7910783,53.6367572 C61.8495412,35.7470782 73.999047,19.2929418 89.5804196,9.38461538 C54.3394353,19.4404592 25.9184748,45.5845081 12.7972028,79.3426573 C14.025487,78.7120754 15.362383,78.1748478 19.1280322,77.1342996" id="Fill-17" fill="#C61A6A"></path>
            <path d="M153.679085,178.690747 L153.566434,179.051976 C160.512844,181.452697 167.842271,186.72567 168.791195,191.785949 C168.856577,192.140147 168.888385,192.467538 168.945373,192.811189 C175.062579,191.060416 180.906329,188.977418 186.433771,186.601745 C191.323736,175.368058 194.976743,162.787892 197.076923,149.300699 C186.833574,151.408307 175.366518,153.042186 163.149777,154.176409 L161.256345,158.944892 C157.896233,167.401689 154.423912,176.147204 153.679085,178.690747" id="Fill-18" fill="#15A748"></path>
            <path d="M207.314685,63.1770299 C218.681702,70.518864 228.612472,79.6691182 235.468531,90.4335664 C231.157091,75.3411674 223.938479,61.484875 214.471595,49.4825175 C213.579853,51.2589421 212.638119,53.025002 211.64324,54.8789368 C210.319137,57.3565579 208.880189,60.0369673 207.314685,63.1770299" id="Fill-19" fill="#007FBA"></path>
            <path d="M153.566434,9.38461538 C164.585575,16.5633714 173.849547,27.165028 181.13928,39.2447552 C182.639737,35.1332738 183.73248,30.0247058 184.27972,23.6718913 C174.888392,17.4608826 164.569927,12.5999193 153.566434,9.38461538" id="Fill-20" fill="#008AC4"></path>
            <path d="M52.9129014,190.224505 C34.9873883,182.170782 18.4724219,170.017319 8.53146853,154.41958 C19.5910552,193.089287 50.0608944,223.560398 88.7272727,234.615385 C73.13795,224.680075 60.9765117,208.175111 52.9129014,190.224505" id="Fill-21" fill="#E1B424"></path>
            <path d="M189.453725,190.390908 C183.459116,203.795713 175.222758,216.369731 165.015829,226.03888 C164.886633,227.732389 164.771988,229.446746 164.657343,231.202797 C198.00712,217.859203 223.792536,189.502458 233.762238,154.41958 C223.849417,170.074118 207.373173,182.294176 189.453725,190.390908" id="Fill-22" fill="#00753C"></path>
            <path d="M51.1888112,60.5734266 C42.5126806,64.724719 34.7611293,69.6086689 28.1538462,75.0769231 C34.9287037,73.2749932 41.9475101,71.2982493 48.1095755,68.9007369 C49.0557194,66.072913 50.0809333,63.294974 51.1888112,60.5734266" id="Fill-23" fill="#B42554"></path>
            <path d="M65.7684603,60.4665864 C80.4680318,61.2422416 91.8717967,61.4962323 91.9390129,61.5013635 C92.7407434,56.1290747 93.6592179,50.9586102 94.6993007,46.0699301 C81.1410786,48.1048491 68.4942555,51.6393396 57.1988325,56.3693824 C55.9672719,59.1128244 54.818405,61.9396471 53.7482517,64.8391608 C60.2761864,61.6078343 59.068063,60.6128235 65.7684603,60.4665864" id="Fill-24" fill="#4F3B68"></path>
            <path d="M71.9811014,143.453779 C66.0273663,139.891098 60.9857095,135.493996 56.1072529,131.240156 C52.5699332,128.149475 48.6070646,124.69323 44.3636364,122 C44.3520151,129.706043 44.8100285,137.41029 45.750623,145.017532 C55.6417815,147.187565 66.9907738,148.92961 79.3426573,150.153846 C78.6165921,149.173918 77.8045396,148.180068 76.8380612,147.215858 C75.3955823,145.775606 73.8096452,144.548675 71.9811014,143.453779" id="Fill-25" fill="#EB8B2D"></path>
            <path d="M51.1888112,184.27972 C46.7954732,173.07683 43.6460726,160.907649 41.8103376,148.170141 C25.5899855,144.440017 12.7456514,139.397957 5.72900487,133.090909 L5.11888112,133.577855 C9.87069471,154.236174 26.9121438,172.24066 51.1888112,184.27972" id="Fill-26" fill="#F3B229"></path>
            <path d="M82.2683307,154.379646 C69.3264247,153.2584 57.0224938,151.566002 46.0699301,149.300699 C48.154859,162.756968 51.7792592,175.302992 56.6313778,186.504924 C67.8378161,191.36278 80.3850983,194.99016 93.8461538,197.076923 C91.8524268,187.441489 90.2822627,176.727799 89.1606542,165.310917 C87.3037301,162.546405 85.2705407,158.773386 82.2683307,154.379646" id="Fill-27" fill="#FFDA1A"></path>
            <path d="M21.4211513,120.54832 L21.2442019,120.696241 L9.38461538,130.287004 C15.2823366,135.319909 26.3164545,139.798666 40.951049,143.328671 C40.0105633,135.182266 39.6208324,127.123898 39.7407155,119.056592 C36.796721,117.721277 33.7461146,116.881119 30.6388843,116.881119 C27.1551943,116.881119 24.2271253,118.044827 21.4211513,120.54832" id="Fill-28" fill="#DC3E2A"></path>
            <path d="M95.4113705,202.146154 C82.8191137,200.319902 70.7917837,197.181561 59.7202797,192.811189 C71.7882456,217.326814 89.9259716,234.436914 110.720488,238.862883 C110.776141,238.869999 110.841512,238.876671 110.909091,238.881119 C105.201078,233.013185 100.3155,222.026765 96.3243521,205.992135 C96.0098659,204.734752 95.709514,203.448459 95.4113705,202.146154" id="Fill-29" fill="#A7BE33"></path>
            <path d="M30.3028221,112.512625 C41.3133661,112.512625 50.8589292,120.540515 58.7862558,127.31982 C63.5455668,131.388465 68.4656414,135.595744 74.1016443,138.897256 C76.4658417,140.281375 78.357023,141.793497 79.9107773,143.311378 C82.4821125,145.825381 82.6609841,146.324992 84.0084839,148.418223 C85.3815999,150.553089 86.2596168,151.86014 87.0263358,151.86014 C88.31642,151.86014 91.111676,150.373707 91.6341579,148.156902 C92.6468806,143.646224 88.3521943,139.482351 84.9774825,136.326116 C80.2477626,131.907565 73.2329022,123.916437 71.2737055,120.241546 C55.5683327,90.7542734 90.206718,66.8420112 111.123218,83.7960301 C113.245387,81.7652506 115.1984,79.1976544 116.881119,77.4237674 C105.770318,65.2173876 89.7310519,68.1123003 73.5972704,66.913321 C71.3381877,66.745898 64.6369047,66.2285696 62.7209906,66.8256232 C60.8037514,67.4226768 58.7995056,68.5538896 57.5796451,69.2696453 C42.8635871,77.8702289 22.1180086,79.8075526 9.76261475,86.5828708 C6.19798978,97.813502 4.26573427,109.772734 4.26573427,122.189499 C4.26573427,124.206106 4.31608332,126.210753 4.4172231,128.20477 L17.9527282,117.34309 C21.6202596,114.091628 25.6609923,112.512625 30.3028221,112.512625" id="Fill-30" fill="#DF542A"></path>
            <path d="M148.824767,64.26172 C142.515089,66.5626019 137.432896,69.8533673 133.870003,71.1227889 C126.945254,73.5731707 126.058295,75.5865529 120.873368,81.2852386 C119.355839,82.9757367 117.349,85.4579645 115.186289,87.4930199 C115.149092,87.5974044 115.168576,88.3449035 115.778776,89.2334986 C117.560223,91.8528417 120.337561,90.9186889 122.64773,88.7195377 C147.537503,65.0715844 167.341983,85.4990991 169.805808,97.8819308 C170.950929,103.620424 171.393744,112.338299 164.643908,126.435513 C167.96281,127.547031 170.241538,129.612163 170.57055,133.090909 C188.834032,111.454569 186.448142,101.599965 191.163684,88.387365 C200.221032,62.958683 206.370411,54.3801353 210.727273,45.2778959 C204.622618,38.2129234 197.6775,31.8866038 190.057974,26.4475524 C185.775506,62.7932601 163.608605,58.8788416 148.824767,64.26172" id="Fill-31" fill="#00A3DA"></path>
            <path d="M161.338957,219.082827 C162.076124,208.241767 166.291621,203.35203 164.341393,192.947262 C163.830397,190.234127 157.40473,184.895291 149.925967,183.124511 L147.602933,182.827762 L149.25234,177.578128 C150.271222,174.136809 155.343416,161.593416 159.616677,150.778852 C160.081462,149.673108 165.661541,136.857695 165.507353,134.746889 C165.241635,132.749573 162.814625,131.384615 161.287857,131.384615 C159.755757,131.384615 158.167225,134.178562 156.464053,137.13678 C154.182343,141.029847 152.698232,144.567874 150.595594,148.31919 C150.594261,148.31654 150.591595,148.314774 150.58804,148.311683 C148.369872,152.269221 146.117489,156.377343 143.579837,160.99506 C141.015969,165.683432 138.193493,170.812953 134.912008,176.703336 C133.378575,179.452682 130.897799,180.969989 127.910026,180.969989 C125.177307,180.969989 122.284624,180.199854 121.447479,179.554689 C120.609889,178.909966 100.852997,156.697496 96.1051752,152.018398 C94.659278,154.365896 92.2149385,155.969754 89.5804196,156.725316 C96.6814901,167.240482 110.004718,186.834759 112.555255,190.721643 C116.575685,196.842978 116.427274,200.873379 117.672772,207.548469 C118.570792,212.342381 126.335714,228.694497 130.417907,238.881119 C140.839565,238.131297 150.898193,236.033298 160.390725,232.761992 C160.651111,227.888152 161.043912,223.38569 161.338957,219.082827" id="Fill-32" fill="#84BF41"></path>
        </g>
        <polygon id="Rectangle" fill="#FFFFFF" points="111.356189 216 256 216 256 256 95.7116864 256"></polygon>
        <text id="ALPHA" font-family="Lato-Black, Lato" font-size="41" font-weight="700" fill="#DC3E2A" fill-opacity="0.8">
            <tspan x="108" y="256">ALPHA</tspan>
        </text>
    </g>
</svg>