<svg width="256" height="256" xmlns="http://www.w3.org/2000/svg"><g fill="none" fill-rule="evenodd"><path d="M249.632 128.184C249.632 195.46 195.094 250 127.816 250 60.54 250 6 195.461 6 128.184S60.54 6.368 127.816 6.368c67.278 0 121.816 54.539 121.816 121.816" fill="#FFFFFE"/><path d="M178.336 57.494a166.168 166.168 0 0 0-23.888-5.424 250.773 250.773 0 0 1 2.21 11.944c9.67-2.645 15.287-2.356 21.678-6.52" fill="#295E87"/><path d="M200.517 100.919c.852.21 1.72.414 2.56.633a226.034 226.034 0 0 0-.963-6.825c-.174.614-.348 1.205-.531 1.84a66.947 66.947 0 0 0-1.066 4.352" fill="#007D93"/><path d="M117.947 214.53c-.254-1.39-.446-2.659-.637-3.858-.031-.233-.07-.435-.1-.656a180.502 180.502 0 0 1-11.392-.967c5.21 22.072 12.578 35.832 20.74 35.832 1.06 0 2.114-.238 3.148-.698-1.345-3.295-2.919-6.975-4.188-9.948-4.3-10.039-6.955-16.377-7.57-19.705" fill="#6CB644"/><path d="M65.72 57.189c11.032-4.367 23.02-7.502 35.56-9.33 3.835-16.798 9.053-29.974 15.63-36.74-.119.01-.223.018-.332.032-20.737 4.423-38.824 21.523-50.858 46.038" fill="#933D86"/><path d="M148.476 46.951c-5.369-22.073-12.935-35.832-21.328-35.832-8.396 0-15.971 13.76-21.33 35.832a186.034 186.034 0 0 1 42.658 0" fill="#005093"/><path d="M126.967 81.077c5.536-6.132 7.974-5.462 16.025-9.616 2.694-1.388 6.02-3.105 9.75-4.51-.78-5.03-1.637-9.818-2.586-14.312a176.583 176.583 0 0 0-44.73 0c-1.13 5.351-2.137 11.13-3.02 17.237 8.929.905 17.52 3.429 24.56 11.2" fill="#4A5580"/><path d="M101.552 180.042c1.115 8.855 2.503 17.094 4.128 24.515 4 .493 8.03.846 12.082 1.08-.54-1.919-1.329-3.727-2.791-5.933-1.762-2.629-7.918-11.631-13.419-19.662" fill="#B9D137"/><path d="M138.427 11.139c-.065-.007-.122-.014-.19-.02 5.659 5.872 10.485 16.863 14.45 32.903.31 1.257.61 2.545.9 3.847 9.856 1.444 19.353 3.718 28.316 6.76 1.174-1.296 2.269-2.81 3.258-4.573-11.808-20.676-28.205-34.936-46.734-38.917" fill="#0067A5"/><path d="M207.749 102.112c16.975 3.834 30.303 9.063 37.132 15.65-.007-.115-.021-.227-.027-.343-3.685-17.109-16.08-32.417-34.186-44.02-1.793 3.746-3.74 8.129-5.885 13.498a169.865 169.865 0 0 1 2.966 15.215" fill="#007D93"/><path d="M244.028 128c0-8.394-13.76-15.965-35.832-21.329a186.137 186.137 0 0 1 0 42.658c22.072-5.364 35.832-12.934 35.832-21.33" fill="#007A70"/><path d="M179.53 143.12l-6.998 8.387a297.693 297.693 0 0 1-1.875 4.647c12.01-1.212 23.057-2.906 32.722-5.003a182.599 182.599 0 0 0 0-45.205 194.48 194.48 0 0 0-4.77-.981c-.076.31-.15.622-.213.937-2.168 9.442-4.625 20.149-18.866 37.218" fill="#008F6D"/><path d="M207.293 154.587c-1.833 12.594-4.96 24.622-9.335 35.693 24.513-12.065 41.62-30.202 46.056-50.99.002-.068.009-.134.014-.2-5.869 5.706-16.856 10.589-32.894 14.582-1.251.316-2.541.616-3.841.915" fill="#008255"/><path d="M171.51 224.406c6.846-7.07 12.898-15.72 17.917-25.595-4.652 1.781-9.482 3.34-14.433 4.696.07 4.43-.834 8.046-1.73 11.563-.716 2.827-1.455 5.75-1.754 9.336" fill="#43913A"/><path d="M25.128 83.134c9.525-9.814 21.72-17.697 34.663-23.497C67.85 41.747 80 25.293 95.581 15.385c-35.242 10.055-63.663 36.2-76.784 69.958 1.228-.63 2.565-1.168 6.331-2.209" fill="#C61A6A"/><path d="M159.68 184.69l-.114.362c6.947 2.4 14.276 7.674 15.225 12.734.066.354.097.682.154 1.025a146.135 146.135 0 0 0 17.489-6.21c4.89-11.233 8.543-23.813 10.643-37.3-10.243 2.107-21.71 3.741-33.927 4.875l-1.894 4.769c-3.36 8.457-6.832 17.202-7.577 19.746" fill="#15A748"/><path d="M213.315 69.177c11.367 7.342 21.297 16.492 28.154 27.257-4.312-15.093-11.53-28.95-20.997-40.951a223.442 223.442 0 0 1-2.829 5.396c-1.324 2.478-2.763 5.158-4.328 8.298" fill="#007FBA"/><path d="M159.566 15.385c11.02 7.178 20.284 17.78 27.573 29.86 1.5-4.112 2.593-9.22 3.14-15.573-9.39-6.211-19.71-11.072-30.713-14.287" fill="#008AC4"/><path d="M58.913 196.225c-17.926-8.054-34.44-20.208-44.382-35.805 11.06 38.67 41.53 69.14 80.196 80.195-15.59-9.935-27.75-26.44-35.814-44.39" fill="#E1B424"/><path d="M195.454 196.39c-5.995 13.406-14.231 25.98-24.438 35.649-.13 1.693-.244 3.408-.359 5.164 33.35-13.344 59.136-41.7 69.105-76.783-9.913 15.654-26.389 27.874-44.308 35.97" fill="#00753C"/><path d="M57.189 66.573c-8.676 4.152-16.428 9.036-23.035 14.504 6.775-1.802 13.794-3.779 19.956-6.176a139.385 139.385 0 0 1 3.079-8.328" fill="#B42554"/><path d="M71.768 66.467c14.7.775 26.104 1.03 26.171 1.034.802-5.372 1.72-10.542 2.76-15.431-13.558 2.035-26.205 5.57-37.5 10.3a133.844 133.844 0 0 0-3.45 8.47c6.527-3.232 5.32-4.227 12.02-4.373" fill="#4F3B68"/><path d="M77.981 149.454c-5.954-3.563-10.995-7.96-15.874-12.214-3.537-3.09-7.5-6.547-11.743-9.24-.012 7.706.446 15.41 1.387 23.018 9.89 2.17 21.24 3.912 33.592 5.136a25.738 25.738 0 0 0-2.505-2.938 24.788 24.788 0 0 0-4.857-3.762" fill="#EB8B2D"/><path d="M57.189 190.28c-4.394-11.203-7.543-23.372-9.379-36.11-16.22-3.73-29.064-8.772-36.081-15.08l-.61.488c4.752 20.658 21.793 38.663 46.07 50.702" fill="#F3B229"/><path d="M88.268 160.38c-12.942-1.122-25.246-2.814-36.198-5.08 2.085 13.457 5.71 26.003 10.561 37.205 11.207 4.858 23.754 8.485 37.215 10.572-1.994-9.636-3.564-20.35-4.685-31.766-1.857-2.765-3.89-6.538-6.893-10.931" fill="#FFDA1A"/><path d="M27.421 126.548l-.177.148-11.86 9.591c5.898 5.033 16.932 9.512 31.567 13.042a186.778 186.778 0 0 1-1.21-24.272c-2.944-1.336-5.995-2.176-9.102-2.176-3.484 0-6.412 1.164-9.218 3.667" fill="#DC3E2A"/><path d="M101.411 208.146c-12.592-1.826-24.62-4.964-35.69-9.335 12.067 24.516 30.205 41.626 51 46.052.055.007.12.014.188.018-5.708-5.868-10.594-16.854-14.585-32.889a198.209 198.209 0 0 1-.913-3.846" fill="#A7BE33"/><path d="M36.303 118.513c11.01 0 20.556 8.028 28.483 14.807 4.76 4.068 9.68 8.276 15.316 11.577a29.742 29.742 0 0 1 5.809 4.414c2.571 2.514 2.75 3.014 4.097 5.107 1.374 2.135 2.252 3.442 3.018 3.442 1.29 0 4.086-1.486 4.608-3.703 1.013-4.51-3.282-8.675-6.657-11.83-4.73-4.42-11.744-12.41-13.703-16.085-15.706-29.488 18.933-53.4 39.85-36.446 2.121-2.03 4.074-4.598 5.757-6.372-11.11-12.207-27.15-9.312-43.284-10.51-2.259-.168-8.96-.685-10.876-.088-1.917.597-3.921 1.728-5.141 2.444-14.716 8.6-35.462 10.538-47.817 17.313a117.494 117.494 0 0 0-5.497 35.606c0 2.017.05 4.022.151 6.016l13.536-10.862c3.667-3.251 7.708-4.83 12.35-4.83" fill="#DF542A"/><path d="M154.825 70.262c-6.31 2.3-11.392 5.591-14.955 6.86-6.925 2.451-7.812 4.465-12.997 10.163-1.517 1.69-3.524 4.173-5.687 6.208-.037.104-.017.852.593 1.74 1.781 2.62 4.559 1.686 6.869-.513 24.89-23.648 44.694-3.22 47.158 9.162 1.145 5.738 1.588 14.456-5.162 28.554 3.319 1.111 5.598 3.176 5.927 6.655 18.263-21.636 15.877-31.491 20.593-44.704 9.057-25.428 15.206-34.007 19.563-43.11a117.692 117.692 0 0 0-20.669-18.83c-4.282 36.346-26.45 32.432-41.233 37.815" fill="#00A3DA"/><path d="M167.339 225.083c.737-10.841 4.953-15.731 3.002-26.136-.51-2.713-6.936-8.052-14.415-9.822l-2.323-.297 1.65-5.25c1.018-3.441 6.09-15.985 10.364-26.8.464-1.105 6.045-13.92 5.89-16.031-.265-1.997-2.692-3.362-4.22-3.362-1.531 0-3.12 2.794-4.823 5.752-2.282 3.893-3.766 7.43-5.868 11.182l-.008-.007c-2.218 3.957-4.47 8.065-7.008 12.683a2247.141 2247.141 0 0 1-8.668 15.708c-1.533 2.75-4.014 4.267-7.002 4.267-2.733 0-5.625-.77-6.463-1.415-.837-.645-20.594-22.858-25.342-27.537-1.446 2.348-3.89 3.952-6.525 4.707 7.101 10.515 20.425 30.11 22.975 33.997 4.02 6.121 3.872 10.151 5.118 16.826.898 4.794 8.663 21.146 12.745 31.333a117.916 117.916 0 0 0 29.973-6.119c.26-4.874.653-9.376.948-13.68" fill="#84BF41"/><path fill="#FFF" d="M111.356 216H256v40H95.712z"/><path d="M138.258 256h-5.371c-.601 0-1.097-.14-1.486-.42a2.17 2.17 0 0 1-.81-1.077l-1.763-5.206h-11.357l-1.763 5.207c-.137.382-.403.727-.8 1.035-.396.307-.881.461-1.455.461h-5.412l11.562-29.869h7.093L138.258 256zm-19.188-11.418h8.159l-2.747-8.18c-.178-.52-.386-1.13-.625-1.835a46.649 46.649 0 0 1-.707-2.286 40.742 40.742 0 0 1-.677 2.317c-.232.71-.451 1.326-.656 1.845l-2.747 8.138zm28.536 5.883h11.07V256h-17.999v-29.869h6.929v24.334zm21.279-4.448V256h-6.929v-29.869h10.537c2.105 0 3.912.25 5.422.749 1.51.499 2.754 1.185 3.731 2.06a8.032 8.032 0 0 1 2.163 3.096c.465 1.189.697 2.473.697 3.853 0 1.49-.24 2.857-.718 4.1a8.227 8.227 0 0 1-2.193 3.198c-.984.889-2.231 1.582-3.741 2.081-1.51.5-3.297.749-5.361.749h-3.608zm0-5.228h3.608c1.804 0 3.102-.43 3.895-1.291.793-.862 1.189-2.064 1.189-3.608 0-.684-.102-1.306-.308-1.866a3.796 3.796 0 0 0-.932-1.445c-.417-.403-.943-.714-1.579-.933-.635-.219-1.39-.328-2.265-.328h-3.608v9.471zM214.19 256h-6.97v-12.628h-12.136V256h-6.97v-29.869h6.97v12.485h12.136v-12.485h6.97V256zm32.718 0h-5.371c-.601 0-1.097-.14-1.486-.42a2.17 2.17 0 0 1-.81-1.077l-1.763-5.206h-11.357l-1.763 5.207c-.137.382-.403.727-.8 1.035-.396.307-.881.461-1.455.461h-5.412l11.562-29.869h7.093L246.908 256zm-19.188-11.418h8.159l-2.747-8.18c-.178-.52-.386-1.13-.625-1.835a46.649 46.649 0 0 1-.708-2.286 40.742 40.742 0 0 1-.676 2.317c-.232.71-.451 1.326-.656 1.845l-2.747 8.138z" fill-opacity=".8" fill="#DC3E2A"/></g></svg>