<svg width="828" height="260" xmlns="http://www.w3.org/2000/svg" xmlns:xlink="http://www.w3.org/1999/xlink"><defs><path id="a" d="M.028.392h259.58v259.58H.028z"/></defs><g fill="none" fill-rule="evenodd"><g transform="translate(11)"><mask id="b" fill="#fff"><use xlink:href="#a"/></mask><path d="M259.608 130.196c0 71.689-58.115 129.804-129.804 129.804S0 201.885 0 130.196 58.115.392 129.804.392c71.69 0 129.804 58.115 129.804 129.804" fill="#FFFFFE" mask="url(#b)"/><path d="M183.636 54.871a177.064 177.064 0 0 0-25.454-5.78c.864 4.066 1.642 8.33 2.356 12.727 10.302-2.819 16.289-2.51 23.098-6.947" fill="#295E87" mask="url(#b)"/><path d="M207.273 101.143c.908.224 1.832.442 2.727.675a240.86 240.86 0 0 0-1.026-7.273c-.186.655-.371 1.285-.566 1.961a71.338 71.338 0 0 0-1.135 4.637" fill="#007D93" mask="url(#b)"/><path d="M119.288 222.204c-.27-1.482-.475-2.833-.679-4.111-.033-.248-.074-.464-.107-.699a192.34 192.34 0 0 1-12.138-1.03c5.55 23.52 13.403 38.181 22.1 38.181 1.129 0 2.252-.253 3.354-.744-1.433-3.51-3.11-7.432-4.462-10.6-4.583-10.697-7.412-17.45-8.068-20.997" fill="#6CB644" mask="url(#b)"/><path d="M63.636 54.545c11.756-4.653 24.53-7.993 37.893-9.941 4.085-17.9 9.646-31.94 16.653-39.15-.126.011-.237.02-.353.035-22.097 4.713-41.37 22.934-54.193 49.056" fill="#933D86" mask="url(#b)"/><path d="M151.818 43.636c-5.72-23.52-13.783-38.181-22.726-38.181-8.947 0-17.018 14.662-22.728 38.181 15.255-1.742 30.216-1.742 45.454 0" fill="#005093" mask="url(#b)"/><path d="M128.899 80c5.899-6.534 8.497-5.82 17.076-10.246 2.87-1.48 6.415-3.309 10.389-4.805-.83-5.36-1.744-10.463-2.755-15.252a188.162 188.162 0 0 0-47.664 0c-1.204 5.702-2.276 11.86-3.218 18.368 9.515.964 18.67 3.653 26.172 11.935" fill="#4A5580" mask="url(#b)"/><path d="M101.818 185.455c1.188 9.435 2.666 18.214 4.398 26.122 4.263.525 8.557.901 12.875 1.15-.575-2.044-1.416-3.97-2.975-6.321-1.877-2.801-8.436-12.394-14.298-20.951" fill="#B9D137" mask="url(#b)"/><path d="M141.11 5.476c-.069-.007-.13-.015-.2-.021 6.028 6.257 11.17 17.968 15.395 35.06.33 1.34.651 2.713.96 4.1 10.502 1.538 20.622 3.961 30.172 7.203 1.251-1.381 2.418-2.994 3.472-4.873-12.582-22.032-30.055-37.227-49.798-41.47" fill="#0067A5" mask="url(#b)"/><path d="M214.978 102.415c18.089 4.084 32.29 9.656 39.567 16.676-.007-.123-.022-.243-.029-.365-3.926-18.232-17.135-34.544-36.427-46.908-1.91 3.992-3.985 8.663-6.27 14.384a181.003 181.003 0 0 1 3.159 16.213" fill="#007D93" mask="url(#b)"/><path d="M253.636 130c0-8.944-14.662-17.012-38.181-22.727a198.343 198.343 0 0 1 0 45.454c23.52-5.716 38.181-13.782 38.181-22.728" fill="#007A70" mask="url(#b)"/><path d="M184.909 146.111l-7.457 8.938a317.198 317.198 0 0 1-1.997 4.951c12.796-1.291 24.569-3.097 34.867-5.33a194.573 194.573 0 0 0 0-48.17 207.236 207.236 0 0 0-5.084-1.045c-.08.33-.158.662-.226.998-2.31 10.06-4.928 21.47-20.103 39.658" fill="#008F6D" mask="url(#b)"/><path d="M214.492 158.33c-1.952 13.42-5.284 26.237-9.947 38.034 26.12-12.856 44.35-32.183 49.076-54.334.003-.072.01-.143.015-.212-6.253 6.08-17.961 11.282-35.05 15.538-1.334.336-2.708.656-4.094.975" fill="#008255" mask="url(#b)"/><path d="M176.364 232.727c7.295-7.533 13.743-16.75 19.09-27.272-4.956 1.897-10.102 3.558-15.378 5.003.074 4.72-.889 8.574-1.845 12.321-.762 3.013-1.55 6.128-1.867 9.948" fill="#43913A" mask="url(#b)"/><path d="M20.382 82.192c10.15-10.458 23.145-18.857 36.936-25.038C65.905 38.09 78.851 20.558 95.455 10 57.903 20.715 27.618 48.574 13.636 84.545c1.31-.671 2.734-1.244 6.746-2.353" fill="#C61A6A" mask="url(#b)"/><path d="M163.756 190.408l-.12.385c7.402 2.558 15.212 8.177 16.223 13.57.07.377.104.725.165 1.092a155.718 155.718 0 0 0 18.635-6.617c5.21-11.97 9.103-25.375 11.341-39.747-10.915 2.246-23.134 3.987-36.152 5.195l-2.017 5.082c-3.58 9.01-7.28 18.33-8.075 21.04" fill="#15A748" mask="url(#b)"/><path d="M220.91 67.32c12.111 7.823 22.693 17.573 30 29.044-4.595-16.082-12.287-30.847-22.375-43.637a238.098 238.098 0 0 1-3.014 5.75c-1.41 2.64-2.944 5.497-4.612 8.843" fill="#007FBA" mask="url(#b)"/><path d="M163.636 10c11.742 7.65 21.614 18.946 29.381 31.818 1.6-4.38 2.764-9.824 3.347-16.594C186.356 18.606 175.36 13.426 163.636 10" fill="#008AC4" mask="url(#b)"/><path d="M56.383 202.698c-19.101-8.582-36.7-21.532-47.292-38.153C20.876 205.751 53.344 238.22 94.545 250c-16.611-10.587-29.57-28.174-38.162-47.302" fill="#E1B424" mask="url(#b)"/><path d="M201.877 202.876c-6.388 14.283-15.164 27.682-26.04 37.985-.138 1.805-.26 3.631-.382 5.503 35.536-14.219 63.012-44.435 73.636-81.819-10.563 16.682-28.12 29.703-47.214 38.33" fill="#00753C" mask="url(#b)"/><path d="M54.545 64.545C45.3 68.97 37.041 74.173 30 80c7.22-1.92 14.698-4.026 21.264-6.581 1.008-3.013 2.1-5.974 3.281-8.874" fill="#B42554" mask="url(#b)"/><path d="M70.081 64.432c15.664.826 27.815 1.097 27.887 1.102.854-5.724 1.833-11.234 2.941-16.443-14.447 2.168-27.923 5.935-39.96 10.975a142.62 142.62 0 0 0-3.676 9.025c6.956-3.443 5.668-4.504 12.808-4.66" fill="#4F3B68" mask="url(#b)"/><path d="M76.701 152.86c-6.344-3.796-11.716-8.481-16.915-13.014-3.769-3.293-7.992-6.976-12.513-9.846a197.66 197.66 0 0 0 1.478 24.527c10.54 2.312 22.633 4.168 35.794 5.473a27.426 27.426 0 0 0-2.668-3.13 26.414 26.414 0 0 0-5.176-4.01" fill="#EB8B2D" mask="url(#b)"/><path d="M54.545 196.364c-4.681-11.938-8.037-24.905-9.993-38.478-17.284-3.975-30.97-9.347-38.447-16.068l-.65.52c5.063 22.012 23.222 41.197 49.09 54.026" fill="#F3B229" mask="url(#b)"/><path d="M87.663 164.503c-13.79-1.195-26.901-2.998-38.572-5.412 2.222 14.339 6.084 27.707 11.254 39.644C72.286 203.91 85.656 207.776 100 210c-2.124-10.267-3.798-21.683-4.993-33.849-1.978-2.946-4.145-6.966-7.344-11.648" fill="#FFDA1A" mask="url(#b)"/><path d="M22.826 128.453l-.189.158L10 138.83c6.284 5.362 18.042 10.135 33.636 13.896a199.025 199.025 0 0 1-1.29-25.863c-3.136-1.423-6.387-2.319-9.698-2.319-3.712 0-6.832 1.24-9.822 3.908" fill="#DC3E2A" mask="url(#b)"/><path d="M101.668 215.402c-13.418-1.946-26.234-5.29-38.032-9.947 12.86 26.123 32.187 44.355 54.345 49.071.06.008.129.015.2.02-6.081-6.253-11.287-17.96-15.54-35.046-.335-1.34-.655-2.71-.973-4.098" fill="#A7BE33" mask="url(#b)"/><path d="M32.29 119.89c11.732 0 21.904 8.555 30.351 15.779 5.071 4.335 10.314 8.818 16.32 12.336a31.692 31.692 0 0 1 6.19 4.704c2.74 2.679 2.93 3.211 4.366 5.442 1.463 2.274 2.399 3.667 3.216 3.667 1.375 0 4.353-1.584 4.91-3.946 1.08-4.806-3.497-9.243-7.093-12.606-5.04-4.709-12.515-13.224-14.603-17.14-16.735-31.42 20.175-56.9 42.463-38.835 2.261-2.164 4.342-4.9 6.135-6.79-11.839-13.007-28.93-9.922-46.122-11.2-2.407-.178-9.548-.73-11.59-.093-2.042.636-4.178 1.841-5.478 2.604-15.68 9.164-37.787 11.229-50.952 18.448a125.199 125.199 0 0 0-5.858 37.942c0 2.149.054 4.285.162 6.41l14.423-11.574c3.908-3.465 8.214-5.147 13.16-5.147" fill="#DF542A" mask="url(#b)"/><path d="M158.584 68.476c-6.724 2.451-12.14 5.958-15.936 7.31-7.378 2.612-8.324 4.757-13.849 10.83-1.617 1.8-3.755 4.446-6.06 6.614-.04.111-.018.908.632 1.855 1.898 2.791 4.858 1.796 7.32-.548 26.521-25.198 47.624-3.431 50.25 9.763 1.22 6.115 1.692 15.405-5.5 30.426 3.536 1.185 5.964 3.385 6.315 7.092 19.46-23.055 16.918-33.556 21.943-47.635 9.651-27.096 16.204-36.237 20.846-45.936a125.41 125.41 0 0 0-22.024-20.065c-4.563 38.729-28.184 34.558-43.937 40.294" fill="#00A3DA" mask="url(#b)"/><path d="M171.919 233.449c.785-11.552 5.277-16.762 3.199-27.85-.545-2.89-7.392-8.58-15.36-10.466l-2.476-.317 1.757-5.593c1.086-3.667 6.49-17.033 11.044-28.557.496-1.178 6.442-14.834 6.277-17.083-.283-2.129-2.869-3.583-4.496-3.583-1.632 0-3.325 2.977-5.14 6.13-2.431 4.148-4.013 7.918-6.253 11.915l-.008-.008c-2.364 4.217-4.764 8.595-7.468 13.515a2394.523 2394.523 0 0 1-9.236 16.738c-1.634 2.93-4.278 4.547-7.461 4.547-2.912 0-5.995-.82-6.887-1.508-.892-.687-21.945-24.356-27.004-29.342-1.54 2.501-4.145 4.21-6.952 5.015 7.566 11.205 21.763 32.084 24.48 36.226 4.285 6.523 4.127 10.817 5.454 17.93.957 5.108 9.231 22.533 13.58 33.387a125.649 125.649 0 0 0 31.94-6.52c.277-5.193.695-9.991 1.01-14.576" fill="#84BF41" mask="url(#b)"/></g><g fill="#1A1919"><path d="M380.394 151.95v-37.63h-40.376v37.63H320V59h20.018v37.63h40.376V59h20.017v92.95h-20.017M454.02 151.95c-22.172 0-40.207-18.124-40.207-40.402V59h20.017v52.548c0 11.185 9.057 20.285 20.19 20.285 11.13 0 20.185-9.1 20.185-20.285L474.207 59h20.017v52.548c0 22.278-18.033 40.402-40.204 40.402M644.682 112.483h40.381V99.406c0-11.189-9.06-20.29-20.188-20.29-11.137 0-20.193 9.101-20.193 20.29v13.077zm40.381 39.467v-21.778h-40.381v21.778h-20.013V99.404C624.67 77.125 642.702 59 664.875 59c22.168 0 40.205 18.125 40.205 40.404v52.546h-20.017zM783.103 151.95a8.935 8.935 0 0 1-6.544-2.97 8.884 8.884 0 0 1-.708-.889l-39.14-56.17v60.029h-20.016V59h13.93c2.52 0 4.935 1.098 6.623 2.975.254.286.495.585.707.891l39.135 56.166.005-60.032h20.012v92.95h-14.004M591.256 151.95V91.93l-25.212 36.172c-1.65 2.241-4.23 3.55-7.05 3.55-2.817 0-5.397-1.309-7.075-3.593l-25.18-36.13v60.021h-20.006V59.007h13.598c.106-.005.212-.007.319-.007 2.506 0 4.924 1.088 6.625 2.983.255.282.49.578.708.89l31.01 44.506 31.024-44.512c.208-.293.444-.594.703-.884 1.706-1.895 4.12-2.983 6.626-2.983l13.917.007.004 92.943h-20.01M348.02 193.201c.327 0 .61.13.852.392l2.399 2.636a15.29 15.29 0 0 1-5.573 4.27c-2.203 1-4.834 1.501-7.896 1.501-2.717 0-5.173-.475-7.365-1.423-2.193-.949-4.064-2.272-5.612-3.968-1.548-1.697-2.74-3.721-3.573-6.07-.835-2.35-1.252-4.935-1.252-7.755 0-2.82.443-5.408 1.329-7.768.886-2.358 2.133-4.385 3.741-6.083 1.608-1.697 3.535-3.015 5.78-3.955 2.244-.94 4.716-1.41 7.417-1.41 2.684 0 5.053.44 7.108 1.319 2.056.88 3.84 2.05 5.354 3.512l-1.986 2.845a2.213 2.213 0 0 1-.491.496c-.19.14-.447.209-.774.209-.344 0-.735-.16-1.174-.483a18.513 18.513 0 0 0-1.677-1.07c-.68-.392-1.531-.748-2.554-1.07-1.024-.322-2.3-.484-3.832-.484-1.771 0-3.397.314-4.876.94a10.545 10.545 0 0 0-3.819 2.742c-1.067 1.201-1.896 2.662-2.49 4.386-.593 1.723-.89 3.68-.89 5.874 0 2.21.31 4.182.93 5.914.618 1.732 1.47 3.194 2.554 4.385a10.91 10.91 0 0 0 3.818 2.73c1.462.625 3.036.939 4.721.939 1.033 0 1.957-.057 2.775-.17a10.897 10.897 0 0 0 2.257-.548c.688-.252 1.337-.57 1.948-.953.61-.382 1.217-.853 1.82-1.41.343-.313.687-.47 1.031-.47M387.035 182.798c0-2.16-.29-4.102-.872-5.826-.583-1.725-1.417-3.188-2.502-4.39a10.886 10.886 0 0 0-3.948-2.769c-1.547-.645-3.284-.967-5.212-.967-1.911 0-3.64.322-5.186.967a11.013 11.013 0 0 0-3.961 2.77c-1.095 1.201-1.937 2.664-2.528 4.389-.59 1.724-.886 3.666-.886 5.826 0 2.177.296 4.127.886 5.852.59 1.725 1.433 3.183 2.528 4.376a10.958 10.958 0 0 0 3.961 2.744c1.546.635 3.275.953 5.186.953 1.928 0 3.665-.318 5.212-.953 1.546-.636 2.862-1.55 3.948-2.744 1.085-1.193 1.92-2.651 2.502-4.376.581-1.725.872-3.675.872-5.852zm6.229 0c0 2.787-.452 5.356-1.355 7.707-.904 2.351-2.177 4.376-3.818 6.075-1.642 1.698-3.614 3.026-5.916 3.984-2.302.957-4.86 1.436-7.674 1.436-2.797 0-5.347-.479-7.649-1.436-2.302-.958-4.278-2.286-5.928-3.984-1.65-1.7-2.928-3.724-3.831-6.075-.904-2.351-1.355-4.92-1.355-7.707s.451-5.356 1.355-7.708c.903-2.351 2.18-4.38 3.831-6.087 1.65-1.706 3.626-3.04 5.928-3.998 2.302-.957 4.852-1.436 7.649-1.436 2.814 0 5.372.48 7.674 1.436 2.302.959 4.274 2.292 5.916 3.998 1.641 1.707 2.914 3.736 3.818 6.087.903 2.352 1.355 4.921 1.355 7.708zM431.682 163.569v37.537h-3.121c-.473 0-.876-.083-1.207-.248-.333-.164-.647-.439-.945-.82l-20.75-26.485c.051.504.09 1.003.117 1.499.027.494.04.95.04 1.369v24.685h-5.405V163.57h3.2c.263 0 .486.013.67.039.184.026.354.074.51.143.159.07.307.174.447.313.14.14.289.313.446.521l20.777 26.51a33.774 33.774 0 0 1-.157-3.05V163.57h5.378M472.781 163.569v37.537h-3.122c-.472 0-.874-.083-1.207-.248-.332-.164-.647-.439-.944-.82l-20.75-26.485c.052.504.091 1.003.118 1.499.026.494.039.95.039 1.369v24.685h-5.405V163.57h3.2c.263 0 .487.013.67.039.184.026.354.074.511.143.158.07.306.174.447.313.14.14.288.313.445.521l20.777 26.51a34.417 34.417 0 0 1-.118-1.59 29.51 29.51 0 0 1-.039-1.46V163.57h5.378M505.84 196.18l-.03 4.926h-24.094V163.57h24.095v4.926h-17.788v11.314h14.218v4.77h-14.218v11.6h17.816M539.22 193.201c.328 0 .61.13.852.392l2.399 2.636a15.33 15.33 0 0 1-5.573 4.27c-2.204 1-4.835 1.501-7.895 1.501-2.718 0-5.177-.475-7.367-1.423-2.195-.949-4.066-2.272-5.614-3.968-1.548-1.697-2.737-3.721-3.574-6.07-.834-2.35-1.248-4.935-1.248-7.755 0-2.82.442-5.408 1.325-7.768.888-2.358 2.135-4.385 3.743-6.083 1.607-1.697 3.533-3.015 5.782-3.955 2.245-.94 4.713-1.41 7.417-1.41 2.682 0 5.05.44 7.108 1.319 2.053.88 3.838 2.05 5.354 3.512l-1.985 2.845a2.349 2.349 0 0 1-.492.496c-.19.14-.446.209-.774.209-.346 0-.737-.16-1.174-.483a18.341 18.341 0 0 0-1.676-1.07c-.683-.392-1.534-.748-2.554-1.07-1.025-.322-2.304-.484-3.834-.484-1.771 0-3.397.314-4.877.94-1.48.627-2.75 1.54-3.82 2.742-1.065 1.201-1.894 2.662-2.49 4.386-.592 1.723-.888 3.68-.888 5.874 0 2.21.31 4.182.929 5.914.619 1.732 1.47 3.194 2.554 4.385a10.925 10.925 0 0 0 3.82 2.73c1.462.625 3.033.939 4.722.939 1.029 0 1.953-.057 2.773-.17.815-.112 1.57-.296 2.258-.548.688-.252 1.339-.57 1.949-.953.61-.382 1.215-.853 1.817-1.41.346-.313.687-.47 1.033-.47M576.422 168.653h-12.046v32.453h-6.251v-32.453h-12.08v-5.084h30.377v5.084M581.783 201.106h6.254V163.57h-6.254zM626.484 182.798c0-2.16-.29-4.102-.874-5.826-.584-1.725-1.416-3.188-2.502-4.39a10.88 10.88 0 0 0-3.945-2.769c-1.55-.645-3.284-.967-5.215-.967-1.909 0-3.638.322-5.188.967a11.01 11.01 0 0 0-3.96 2.77c-1.094 1.201-1.935 2.664-2.528 4.389-.589 1.724-.883 3.666-.883 5.826 0 2.177.294 4.127.883 5.852.593 1.725 1.434 3.183 2.529 4.376a10.955 10.955 0 0 0 3.96 2.744c1.55.635 3.278.953 5.187.953 1.931 0 3.665-.318 5.215-.953 1.545-.636 2.86-1.55 3.945-2.744 1.086-1.193 1.918-2.651 2.502-4.376.584-1.725.874-3.675.874-5.852zm6.226 0c0 2.787-.45 5.356-1.352 7.707-.906 2.351-2.175 4.376-3.817 6.075-1.641 1.698-3.614 3.026-5.918 3.984-2.304.957-4.86 1.436-7.675 1.436-2.796 0-5.344-.479-7.648-1.436-2.304-.958-4.277-2.286-5.928-3.984-1.65-1.7-2.929-3.724-3.83-6.075-.906-2.351-1.357-4.92-1.357-7.707s.45-5.356 1.357-7.708c.901-2.351 2.18-4.38 3.83-6.087 1.651-1.706 3.624-3.04 5.928-3.998 2.304-.957 4.852-1.436 7.648-1.436 2.814 0 5.37.48 7.675 1.436 2.304.959 4.277 2.292 5.918 3.998 1.642 1.707 2.911 3.736 3.817 6.087.902 2.352 1.352 4.921 1.352 7.708zM671.129 163.569v37.537h-3.12c-.472 0-.875-.083-1.208-.248-.334-.164-.649-.439-.945-.82l-20.753-26.485c.056.504.093 1.003.12 1.499.028.494.042.95.042 1.369v24.685h-5.407V163.57h3.199c.264 0 .486.013.671.039.185.026.352.074.51.143.157.07.305.174.448.313.14.14.287.313.445.521l20.776 26.51a38.722 38.722 0 0 1-.116-1.59 27.522 27.522 0 0 1-.041-1.46V163.57h5.379M678.277 198.438c0-.495.09-.96.272-1.397.177-.435.427-.815.744-1.14a3.523 3.523 0 0 1 2.532-1.051c.495 0 .963.095 1.403.283.435.187.817.443 1.143.768a3.568 3.568 0 0 1 1.053 2.537c0 .513-.09.982-.281 1.41a3.614 3.614 0 0 1-.772 1.128 3.476 3.476 0 0 1-1.143.755c-.44.18-.908.269-1.402.269-.5 0-.963-.09-1.403-.27a3.327 3.327 0 0 1-1.13-.754 3.568 3.568 0 0 1-1.017-2.538M720.293 182.798c0-2.16-.29-4.102-.874-5.826-.58-1.725-1.416-3.188-2.501-4.39a10.878 10.878 0 0 0-3.945-2.769c-1.55-.645-3.283-.967-5.215-.967-1.908 0-3.637.322-5.182.967a10.987 10.987 0 0 0-3.963 2.77c-1.095 1.201-1.936 2.664-2.525 4.389-.593 1.724-.887 3.666-.887 5.826 0 2.177.294 4.127.887 5.852.589 1.725 1.43 3.183 2.525 4.376a10.932 10.932 0 0 0 3.963 2.744c1.545.635 3.274.953 5.182.953 1.932 0 3.665-.318 5.215-.953 1.545-.636 2.86-1.55 3.945-2.744 1.085-1.193 1.922-2.651 2.501-4.376.584-1.725.874-3.675.874-5.852zm6.23 0c0 2.787-.455 5.356-1.356 7.707s-2.175 4.376-3.817 6.075c-1.641 1.698-3.614 3.026-5.917 3.984-2.3.957-4.86 1.436-7.675 1.436-2.795 0-5.343-.479-7.646-1.436-2.3-.958-4.276-2.286-5.927-3.984-1.65-1.7-2.93-3.724-3.83-6.075-.906-2.351-1.357-4.92-1.357-7.707s.45-5.356 1.357-7.708c.9-2.351 2.18-4.38 3.83-6.087 1.65-1.706 3.628-3.04 5.927-3.998 2.303-.957 4.85-1.436 7.646-1.436 2.814 0 5.376.48 7.675 1.436 2.303.959 4.276 2.292 5.917 3.998 1.642 1.707 2.916 3.736 3.817 6.087.901 2.352 1.356 4.921 1.356 7.708zM744.576 181.555c1.39 0 2.61-.169 3.65-.508 1.045-.339 1.915-.811 2.61-1.42a5.82 5.82 0 0 0 1.566-2.177c.345-.843.52-1.777.52-2.803 0-2.05-.677-3.614-2.035-4.692-1.353-1.077-3.406-1.616-6.154-1.616h-4.958v13.216h4.801zm17.686 19.551h-5.45c-1.082 0-1.865-.418-2.348-1.252l-8.765-12.642c-.299-.434-.621-.747-.966-.939-.35-.19-.87-.286-1.566-.286h-3.392v15.12h-6.104v-37.538h11.062c2.467 0 4.594.252 6.375.756 1.786.504 3.25 1.22 4.396 2.15 1.15.93 1.998 2.046 2.546 3.35.548 1.304.82 2.755.82 4.354 0 1.303-.194 2.52-.586 3.649a10.183 10.183 0 0 1-1.698 3.075c-.737.922-1.643 1.72-2.725 2.399-1.077.677-2.302 1.208-3.678 1.59.75.452 1.39 1.087 1.933 1.903l10.146 14.311zM798 183.07v14.883c-3.742 2.698-8.096 4.047-13.055 4.047-3.05 0-5.801-.475-8.266-1.423-2.466-.949-4.567-2.272-6.304-3.968-1.742-1.697-3.083-3.721-4.023-6.07-.94-2.35-1.41-4.935-1.41-7.755 0-2.836.452-5.435 1.36-7.793.903-2.359 2.197-4.386 3.889-6.084 1.686-1.697 3.723-3.01 6.11-3.942 2.382-.93 5.064-1.396 8.04-1.396 1.517 0 2.922.117 4.222.352 1.295.235 2.502.561 3.612.979a16.968 16.968 0 0 1 5.668 3.499l-1.75 2.793c-.277.435-.637.705-1.07.81-.433.104-.903 0-1.41-.314a512.2 512.2 0 0 1-1.603-.94c-.567-.33-1.217-.64-1.95-.926-.728-.288-1.576-.523-2.53-.705-.958-.184-2.091-.275-3.396-.275-1.986 0-3.774.327-5.368.98-1.59.652-2.954 1.584-4.083 2.793-1.133 1.21-2.004 2.676-2.612 4.399-.609 1.724-.913 3.647-.913 5.77 0 2.245.318 4.252.963 6.018s1.558 3.263 2.742 4.49c1.184 1.228 2.617 2.164 4.295 2.807 1.682.644 3.557.966 5.63.966 1.55 0 2.927-.165 4.139-.495a18.908 18.908 0 0 0 3.562-1.384v-7.468h-5.249c-.4 0-.714-.108-.94-.326-.226-.217-.336-.5-.336-.848v-3.473H798"/></g></g></svg>