<svg id="Ebene_1" xmlns="http://www.w3.org/2000/svg" xmlns:xlink="http://www.w3.org/1999/xlink" viewBox="0 0 449.6 140.8"><style>.st0{clip-path:url(#SVGID_2_);fill:#216196;} .st1{clip-path:url(#SVGID_4_);fill:#007FA1;} .st2{clip-path:url(#SVGID_6_);fill:#76B82A;} .st3{clip-path:url(#SVGID_8_);fill:#A7358B;} .st4{clip-path:url(#SVGID_10_);fill:#004F9F;} .st5{clip-path:url(#SVGID_12_);fill:#50568E;} .st6{clip-path:url(#SVGID_14_);fill:#C8D400;} .st7{clip-path:url(#SVGID_16_);fill:#0069B4;} .st8{clip-path:url(#SVGID_18_);fill:#007FA1;} .st9{clip-path:url(#SVGID_20_);fill:#007D75;} .st10{clip-path:url(#SVGID_22_);fill:#008F6D;} .st11{clip-path:url(#SVGID_24_);fill:#008251;} .st12{clip-path:url(#SVGID_26_);fill:#46962B;} .st13{clip-path:url(#SVGID_28_);fill:#D7006E;} .st14{clip-path:url(#SVGID_30_);fill:#13A538;} .st15{clip-path:url(#SVGID_32_);fill:#0080C9;} .st16{clip-path:url(#SVGID_34_);fill:#008BD2;} .st17{clip-path:url(#SVGID_36_);fill:#EBBD00;} .st18{clip-path:url(#SVGID_38_);fill:#007632;} .st19{clip-path:url(#SVGID_40_);fill:#C71553;} .st20{clip-path:url(#SVGID_42_);fill:#593872;} .st21{clip-path:url(#SVGID_44_);fill:#F39200;} .st22{clip-path:url(#SVGID_46_);fill:#FBBA00;} .st23{clip-path:url(#SVGID_48_);fill:#FFDD00;} .st24{clip-path:url(#SVGID_50_);fill:#E63312;} .st25{clip-path:url(#SVGID_52_);fill:#B9C400;} .st26{clip-path:url(#SVGID_54_);fill:#E84E0F;} .st27{clip-path:url(#SVGID_56_);fill:#009FE3;} .st28{clip-path:url(#SVGID_58_);fill:#95C11F;} .st29{clip-path:url(#SVGID_60_);} .st30{clip-path:url(#SVGID_62_);} .st31{clip-path:url(#SVGID_64_);} .st32{clip-path:url(#SVGID_66_);} .st33{clip-path:url(#SVGID_68_);} .st34{clip-path:url(#SVGID_70_);} .st35{clip-path:url(#SVGID_72_);} .st36{clip-path:url(#SVGID_74_);} .st37{clip-path:url(#SVGID_76_);} .st38{clip-path:url(#SVGID_78_);} .st39{clip-path:url(#SVGID_80_);} .st40{clip-path:url(#SVGID_82_);} .st41{clip-path:url(#SVGID_84_);} .st42{clip-path:url(#SVGID_86_);} .st43{clip-path:url(#SVGID_88_);}</style><defs><path id="SVGID_1_" d="M0 0h465.3v140.8H0z"/></defs><clipPath id="SVGID_2_"><use xlink:href="#SVGID_1_" overflow="visible"/></clipPath><path class="st0" d="M100.8 28.4c-4.5-1.4-9.2-2.5-14-3.3l1.2 7.3c5.7-1.6 9-1.4 12.8-4"/><defs><path id="SVGID_3_" d="M0 0h465.3v140.8H0z"/></defs><clipPath id="SVGID_4_"><use xlink:href="#SVGID_3_" overflow="visible"/></clipPath><path class="st1" d="M114 53.7c.5 0 1 .2 1.7.4l-.7-3.7c0 .3-.2.7-.4 1l-.7 2.4"/><defs><path id="SVGID_5_" d="M0 0h465.3v140.8H0z"/></defs><clipPath id="SVGID_6_"><use xlink:href="#SVGID_5_" overflow="visible"/></clipPath><path class="st2" d="M65 122.2l-.3-2.4v-.4c-2.4 0-4.8-.3-7-.6 3 13.5 7.7 22 12.7 22 .7 0 1.3-.2 2-.5l-2.7-6c-2.6-6.2-4.2-10-4.6-12"/><defs><path id="SVGID_7_" d="M0 0h465.3v140.8H0z"/></defs><clipPath id="SVGID_8_"><use xlink:href="#SVGID_7_" overflow="visible"/></clipPath><path class="st3" d="M33.2 27.8c6.7-2.6 14-4.5 21.5-5.6 2.3-10 5.5-18 9.4-22C51.3 3 40.4 13.2 33 27.8"/><defs><path id="SVGID_9_" d="M0 0h465.3v140.8H0z"/></defs><clipPath id="SVGID_10_"><use xlink:href="#SVGID_9_" overflow="visible"/></clipPath><path class="st4" d="M83.2 22C80 8.3 75.4 0 70.4 0s-9.6 8.4-12.8 22c8.6-1 17-1 25.6 0"/><defs><path id="SVGID_11_" d="M0 0h465.3v140.8H0z"/></defs><clipPath id="SVGID_12_"><use xlink:href="#SVGID_11_" overflow="visible"/></clipPath><path class="st5" d="M70 41.5c3.2-3.6 4.7-3.2 9.5-5.7C81 35 83 34 85.5 33c-.6-3-1-5.7-1.7-8.4-9-1-18-1-27 0l-1.7 10.2c5.5.6 10.7 2 15 6.7"/><defs><path id="SVGID_13_" d="M0 0h465.3v140.8H0z"/></defs><clipPath id="SVGID_14_"><use xlink:href="#SVGID_13_" overflow="visible"/></clipPath><path class="st6" d="M54.5 101.3c.7 5.3 1.5 10.3 2.4 14.8 2.3.4 4.6.6 7 .8-.3-1.2-.8-2.2-1.6-3.6l-8-12"/><defs><path id="SVGID_15_" d="M0 0h465.3v140.8H0z"/></defs><clipPath id="SVGID_16_"><use xlink:href="#SVGID_15_" overflow="visible"/></clipPath><path class="st7" d="M76.8.3C80 3.8 83 10.3 85.5 20l.5 2.3c6 1 11.8 2.2 17.2 4 .7-.8 1.4-1.7 2-2.7-7-12.4-17-21-28.4-23.3"/><defs><path id="SVGID_17_" d="M0 0h465.3v140.8H0z"/></defs><clipPath id="SVGID_18_"><use xlink:href="#SVGID_17_" overflow="visible"/></clipPath><path class="st8" d="M118.5 54.7c10 2.3 18 5.5 22 9.4-2.2-10.4-9.5-19.6-20.2-26.6l-3.5 8c.7 3 1.3 6.2 1.7 9.3"/><defs><path id="SVGID_19_" d="M0 0h465.3v140.8H0z"/></defs><clipPath id="SVGID_20_"><use xlink:href="#SVGID_19_" overflow="visible"/></clipPath><path class="st9" d="M140.7 70.4c0-5-8.4-9.6-22-12.8 1 8.6 1 17 0 25.6 13.6-3.2 22-7.8 22-12.8"/><defs><path id="SVGID_21_" d="M0 0h465.3v140.8H0z"/></defs><clipPath id="SVGID_22_"><use xlink:href="#SVGID_21_" overflow="visible"/></clipPath><path class="st10" d="M101.7 79l-4.2 5-1 2.8c7-.7 13.7-1.7 19.6-3 1.2-9 1.2-18 0-27-.8 0-1.8-.3-2.8-.5v.6c-1.4 5.5-3 12-11.5 22"/><defs><path id="SVGID_23_" d="M0 0h465.3v140.8H0z"/></defs><clipPath id="SVGID_24_"><use xlink:href="#SVGID_23_" overflow="visible"/></clipPath><path class="st11" d="M118.5 86c-1 7.7-3 15-5.6 21.6 14.6-7.3 24.8-18.2 27.4-30.7v-.2c-3.5 3.4-10 6.4-19.7 8.8-.6 0-1.4.3-2.2.5"/><defs><path id="SVGID_25_" d="M0 0h465.3v140.8H0z"/></defs><clipPath id="SVGID_26_"><use xlink:href="#SVGID_25_" overflow="visible"/></clipPath><path class="st12" d="M97 128.5c4-4.3 7.6-9.6 10.5-15.6-2.8 1-5.6 2-8.6 2.8 0 2.7-.6 5-1 7-.5 1.8-1 3.5-1 5.7"/><defs><path id="SVGID_27_" d="M0 0h465.3v140.8H0z"/></defs><clipPath id="SVGID_28_"><use xlink:href="#SVGID_27_" overflow="visible"/></clipPath><path class="st13" d="M8.6 43.6c5.7-6 13-10.7 21-14.2C34.2 18.6 41.5 8.7 51 2.7c-21.2 6-38.4 22-46.3 42.3.8-.4 1.6-.7 4-1.4"/><defs><path id="SVGID_29_" d="M0 0h465.3v140.8H0z"/></defs><clipPath id="SVGID_30_"><use xlink:href="#SVGID_29_" overflow="visible"/></clipPath><path class="st14" d="M89.5 104.5v.2c4 1.5 8.5 4.6 9 7.7l.2.6c3.7-1 7.2-2.3 10.5-3.8 3-6.8 5-14.4 6.4-22.6-6.2 1.3-13 2.3-20.4 3l-1 3c-2 5-4.2 10.3-4.7 12"/><defs><path id="SVGID_31_" d="M0 0h465.3v140.8H0z"/></defs><clipPath id="SVGID_32_"><use xlink:href="#SVGID_31_" overflow="visible"/></clipPath><path class="st15" d="M121.4 35C128 39 134 44.5 138 51c-2.5-9-6.8-17-12.4-24.2L124 30l-2.6 5"/><defs><path id="SVGID_33_" d="M0 0h465.3v140.8H0z"/></defs><clipPath id="SVGID_34_"><use xlink:href="#SVGID_33_" overflow="visible"/></clipPath><path class="st16" d="M89.8 2.7c6.7 4.3 12.4 10.6 17 18 .8-2.6 1.5-5.6 1.8-9.4-5.8-3.8-12-6.7-18.8-8.6"/><defs><path id="SVGID_35_" d="M0 0h465.3v140.8H0z"/></defs><clipPath id="SVGID_36_"><use xlink:href="#SVGID_35_" overflow="visible"/></clipPath><path class="st17" d="M29.4 111.3c-10.8-4.8-20.7-12-26.7-21.5C9.4 113 27.7 131.4 51 138c-9.4-6-16.7-16-21.6-26.7"/><defs><path id="SVGID_37_" d="M0 0h465.3v140.8H0z"/></defs><clipPath id="SVGID_38_"><use xlink:href="#SVGID_37_" overflow="visible"/></clipPath><path class="st18" d="M111.3 111.3c-3.6 8-8.6 15.6-14.7 21.4 0 1 0 2-.2 3 20-8 35.7-25 41.7-46-6 9.5-15.8 16.8-26.7 21.6"/><defs><path id="SVGID_39_" d="M0 0h465.3v140.8H0z"/></defs><clipPath id="SVGID_40_"><use xlink:href="#SVGID_39_" overflow="visible"/></clipPath><path class="st19" d="M27.8 33.2c-5 2.5-9.7 5.5-13.6 9 4-1.2 8.2-2.4 11.8-4l1.8-5"/><defs><path id="SVGID_41_" d="M0 0h465.3v140.8H0z"/></defs><clipPath id="SVGID_42_"><use xlink:href="#SVGID_41_" overflow="visible"/></clipPath><path class="st20" d="M36.7 34c8.8.6 15.7.7 15.7.7.5-3.3 1-6.6 1.7-9.6-8 1.4-15.7 3.6-22.5 6.5l-2 5.3c4-2 3-2.6 7.2-2.7"/><defs><path id="SVGID_43_" d="M0 0h465.3v140.8H0z"/></defs><clipPath id="SVGID_44_"><use xlink:href="#SVGID_43_" overflow="visible"/></clipPath><path class="st21" d="M40.6 83C37 80.7 34 78 31 75.6c-2-1.8-4.5-4-7-5.5 0 4.6.2 9 .7 13.6 6 1.3 13 2.3 20.4 3-.3-.6-.8-1.2-1.4-1.7-1-.7-2-1.5-3-2"/><defs><path id="SVGID_45_" d="M0 0h465.3v140.8H0z"/></defs><clipPath id="SVGID_46_"><use xlink:href="#SVGID_45_" overflow="visible"/></clipPath><path class="st22" d="M27.8 107.6c-2.6-6.7-4.5-14-5.6-21.5C12.5 84 5 81 .7 77l-.4.4c3 12.3 13 23 27.5 30.2"/><defs><path id="SVGID_47_" d="M0 0h465.3v140.8H0z"/></defs><clipPath id="SVGID_48_"><use xlink:href="#SVGID_47_" overflow="visible"/></clipPath><path class="st23" d="M47 89.8c-7.8-.7-15.2-1.7-22-3 1.4 8 3.6 15.7 6.5 22.5 6.8 3 14.4 5 22.6 6.4-1-5.8-2-12.3-2.7-19.3-1.2-1.7-2.4-4-4.2-6.6"/><defs><path id="SVGID_49_" d="M0 0h465.3v140.8H0z"/></defs><clipPath id="SVGID_50_"><use xlink:href="#SVGID_49_" overflow="visible"/></clipPath><path class="st24" d="M10 69.6l-7 5.8c3.4 3 10 5.7 19 7.8-.7-4.8-1-9.6-.8-14.4-1.8-.8-3.6-1.3-5.5-1.3-2 0-4 .6-5.6 2"/><defs><path id="SVGID_51_" d="M0 0h465.3v140.8H0z"/></defs><clipPath id="SVGID_52_"><use xlink:href="#SVGID_51_" overflow="visible"/></clipPath><path class="st25" d="M54.7 118.5c-7.6-1-14.8-3-21.5-5.6 7.3 14.6 18.2 24.8 30.7 27.4-3.4-3.5-6.4-10-8.8-19.7 0-.6-.3-1.4-.5-2.2"/><defs><path id="SVGID_53_" d="M0 0h465.3v140.8H0z"/></defs><clipPath id="SVGID_54_"><use xlink:href="#SVGID_53_" overflow="visible"/></clipPath><path class="st26" d="M15.7 64.6c6.6 0 12.4 4.8 17.2 9 2.8 2.3 5.7 5 9 7 1.5.7 2.7 1.6 3.6 2.6 1.5 1.5 1.7 1.8 2.5 3s1.5 2.2 2 2.2c.7 0 2.4-1 2.7-2.2.6-2.7-2-5.2-4-7-2.8-2.8-7-7.6-8.3-9.8-9.5-17.7 11.4-32 24-22 1.3-1 2.5-2.7 3.5-3.7-6.8-7.3-16.4-5.6-26.2-6.3-1.4 0-5.4-.4-6.5 0-1.2.3-2.4 1-3 1.4-9 5-21.5 6-29 10.2C1.3 55.7 0 63 0 70.4V74l8.3-6.5c2.2-2 4.6-3 7.4-3"/><defs><path id="SVGID_55_" d="M0 0h465.3v140.8H0z"/></defs><clipPath id="SVGID_56_"><use xlink:href="#SVGID_55_" overflow="visible"/></clipPath><path class="st27" d="M86.5 35.8c-3.8 1.4-6.8 3.4-9 4-4.2 1.6-4.7 2.8-7.8 6.2-1 1-2 2.5-3.4 3.7 0 0 0 .5.4 1 1 1.6 2.7 1 4-.3 15-14.2 27-2 28.4 5.5.8 3.3 1 8.6-3 17 2 .8 3.4 2 3.6 4 11-13 9.5-18.8 12.4-26.8 5.4-15.3 9-20.4 11.8-26-3.7-4-7.8-8-12.4-11.2-2.7 22-16 19.6-25 22.8"/><defs><path id="SVGID_57_" d="M0 0h465.3v140.8H0z"/></defs><clipPath id="SVGID_58_"><use xlink:href="#SVGID_57_" overflow="visible"/></clipPath><path class="st28" d="M94 128.7c.4-6.5 3-9.5 1.8-15.7-.3-1.6-4.2-4.8-8.6-6h-1.4l1-3.3c.6-2 3.6-9.6 6.2-16 .3-.8 3.6-8.5 3.5-9.8-.2-1.3-1.6-2-2.5-2s-2 1.6-3 3.4C89.8 81.7 89 84 87.7 86l-4.2 7.7-5.2 9.5c-1 1.7-2.4 2.6-4.2 2.6-1.6 0-3.4-.5-4-1S58 91.2 55 88.4c-1 1.4-2.4 2.4-4 2.8l13.8 20.6c2.4 3.7 2.3 6 3 10 .6 3 5.3 12.8 7.7 19 6.2-.5 12.3-1.7 18-3.7 0-3 .3-5.7.5-8.3"/><defs><path id="SVGID_59_" d="M0 0h465.3v140.8H0z"/></defs><clipPath id="SVGID_60_"><use xlink:href="#SVGID_59_" overflow="visible"/></clipPath><path class="st29" d="M188 114.6c-7.8 0-14-6.3-14-14s6.2-14 14-14c3.7 0 7.4 1.6 10 4.3l-2.6 2c-2-2-4.7-3-7.5-3-6 0-10.7 4.7-10.7 10.5S182 111 188 111c2.7 0 5.4-1 7.4-3l2.6 2c-2.6 3-6.2 4.6-10 4.6"/><defs><path id="SVGID_61_" d="M0 0h465.3v140.8H0z"/></defs><clipPath id="SVGID_62_"><use xlink:href="#SVGID_61_" overflow="visible"/></clipPath><path class="st30" d="M338 114.6c-7.8 0-14-6.3-14-14s6.2-14 14-14c3.7 0 7.4 1.6 10 4.3l-2.6 2c-2-2-4.7-3-7.5-3-6 0-10.7 4.7-10.7 10.5S332 111 338 111c2.7 0 5.4-1 7.4-3l2.6 2c-2.6 3-6.2 4.6-10 4.6"/><defs><path id="SVGID_63_" d="M0 0h465.3v140.8H0z"/></defs><clipPath id="SVGID_64_"><use xlink:href="#SVGID_63_" overflow="visible"/></clipPath><path class="st31" d="M406.5 114.6c-7.7 0-14-6.3-14-14s6.3-14 14-14 14 6.3 14 14c0 7.8-6.3 14-14 14m0-24.5c-6 0-10.6 5-10.6 10.7s4.7 10.6 10.5 10.6c6 0 10.6-4.8 10.6-10.6S412.5 90 406.6 90"/><defs><path id="SVGID_65_" d="M0 0h465.3v140.8H0z"/></defs><clipPath id="SVGID_66_"><use xlink:href="#SVGID_65_" overflow="visible"/></clipPath><path class="st32" d="M216 114.6c-7.7 0-14-6.3-14-14s6.3-14 14-14 14 6.3 14 14-6.4 14-14 14m0-24.5c-6 0-10.6 5-10.6 10.7 0 6 4.8 10.6 10.6 10.6 6 0 10.6-4.8 10.6-10.6 0-6-4.8-10.6-10.6-10.6"/><defs><path id="SVGID_67_" d="M0 0h465.3v140.8H0z"/></defs><clipPath id="SVGID_68_"><use xlink:href="#SVGID_67_" overflow="visible"/></clipPath><path class="st33" d="M235.8 114V87.4h3.3c.4 0 .6 0 .8.2l.6.5 15.3 21.8V87.3h3.3V114h-3.4c-.2 0-.5 0-.7-.2l-.7-.5L239 91.5V114h-3.2z"/><defs><path id="SVGID_69_" d="M0 0h465.3v140.8H0z"/></defs><clipPath id="SVGID_70_"><use xlink:href="#SVGID_69_" overflow="visible"/></clipPath><path class="st34" d="M266.7 114V87.4h3.3c.3 0 .5 0 .7.2l.6.5 15.3 21.8V87.3h3.3V114h-3.5c-.2 0-.5 0-.7-.2l-.6-.5L270 91.6V114h-3.3z"/><defs><path id="SVGID_71_" d="M0 0h465.3v140.8H0z"/></defs><clipPath id="SVGID_72_"><use xlink:href="#SVGID_71_" overflow="visible"/></clipPath><path class="st35" d="M426.3 114V87.4h3.3c.3 0 .5 0 .7.2l.6.5 15.2 21.8V87.3h3.3V114H446s-.4 0-.6-.2l-.6-.5-15.3-21.8V114h-3.2z"/><defs><path id="SVGID_73_" d="M0 0h465.3v140.8H0z"/></defs><clipPath id="SVGID_74_"><use xlink:href="#SVGID_73_" overflow="visible"/></clipPath><path class="st36" d="M383.4 87.3h3.3V114h-3.3z"/><defs><path id="SVGID_75_" d="M0 0h465.3v140.8H0z"/></defs><clipPath id="SVGID_76_"><use xlink:href="#SVGID_75_" overflow="visible"/></clipPath><path class="st37" d="M363 114V90h-10.7v-2.7h25.3V90h-11v24z"/><defs><path id="SVGID_77_" d="M0 0h465.3v140.8H0z"/></defs><clipPath id="SVGID_78_"><use xlink:href="#SVGID_77_" overflow="visible"/></clipPath><path class="st38" d="M297.7 114V87.4h22.6v3.4H301v8.6h15.2v2.8H301v8.7h19.3v3.4z"/><defs><path id="SVGID_79_" d="M0 0h465.3v140.8H0z"/></defs><clipPath id="SVGID_80_"><use xlink:href="#SVGID_79_" overflow="visible"/></clipPath><path class="st39" d="M209.5 80.2V58.5h-23.3v21.7h-11.6V26.7h11.6v21.7h23.3V26.7H221v53.5z"/><defs><path id="SVGID_81_" d="M0 0h465.3v140.8H0z"/></defs><clipPath id="SVGID_82_"><use xlink:href="#SVGID_81_" overflow="visible"/></clipPath><path class="st40" d="M251.4 80.2c-12.8 0-23.2-10.4-23.2-23.2V26.7h11.6V57c0 6.3 5.2 11.6 11.7 11.6 6.4 0 11.7-5.2 11.7-11.7V26.6h11.6V57c0 12.7-10.6 23.2-23.4 23.2"/><defs><path id="SVGID_83_" d="M0 0h465.3v140.8H0z"/></defs><clipPath id="SVGID_84_"><use xlink:href="#SVGID_83_" overflow="visible"/></clipPath><path class="st41" d="M384.4 80.2V67.6H361V80h-11.6V50c0-12.8 10.4-23.2 23.2-23.2s23.2 10.4 23.2 23.2v30.2h-11.4zM361 57.5h23.3V50c0-6.4-5.2-11.7-11.7-11.7-6.4 0-11.7 5.2-11.7 11.7v7.5z"/><defs><path id="SVGID_85_" d="M0 0h465.3v140.8H0z"/></defs><clipPath id="SVGID_86_"><use xlink:href="#SVGID_85_" overflow="visible"/></clipPath><path class="st42" d="M441.5 80.2c-1.4 0-2.8-.6-3.8-1.7l-.4-.5-22.6-32.3v34.5H403V26.8h8c1.6 0 3 .6 4 1.7 0 .2.2.3.3.5L438 61.2V26.7h11.6V80l-8 .2z"/><defs><path id="SVGID_87_" d="M0 0h465.3v140.8H0z"/></defs><clipPath id="SVGID_88_"><use xlink:href="#SVGID_87_" overflow="visible"/></clipPath><path class="st43" d="M330.7 80.2V45.7L316 66.5c-1 1.3-2.3 2-4 2-1.6 0-3-.8-4-2l-14.7-21v34.6h-11.6V26.8h8c1.6 0 3 .6 4 1.7 0 .2.2.3.3.5l18 25.5L330 29c0-.3.3-.4.4-.6 1-1 2.4-1.7 3.8-1.7h8V80l-11.5.2z"/></svg>