<svg id="Ebene_1" xmlns="http://www.w3.org/2000/svg" viewBox="0 0 349.5 310.3"><style>.st0{fill:#216194;} .st1{fill:#017F9F;} .st2{fill:#76B629;} .st3{fill:#A53589;} .st4{fill:#024F9D;} .st5{fill:#50568C;} .st6{fill:#C6D200;} .st7{fill:#0369B2;} .st8{fill:#007D75;} .st9{fill:#008D6D;} .st10{fill:#008051;} .st11{fill:#46942B;} .st12{fill:#D5146E;} .st13{fill:#15A338;} .st14{fill:#0080C7;} .st15{fill:#0089D0;} .st16{fill:#E9BB00;} .st17{fill:#007632;} .st18{fill:#C51553;} .st19{fill:#593872;} .st20{fill:#F19000;} .st21{fill:#F9B800;} .st22{fill:#FDDB00;} .st23{fill:#E43311;} .st24{fill:#B7C200;} .st25{fill:#E64E10;} .st26{fill:#079DE1;} .st27{fill:#93BF1F;}</style><path class="st0" d="M208.9 36c-5.7-1.8-11.7-3.2-17.9-4.2.6 2.9 1.1 6 1.6 9.1 7.3-2 11.4-1.7 16.3-4.9"/><path class="st1" d="M225.5 68.1c.8.1 1.5.3 2.3.5-.3-1.6-.5-3.3-.9-4.8-.1.4-.3.9-.5 1.3-.4.9-.7 2-.9 3"/><path class="st2" d="M163.6 154.9c-.3-1-.4-2-.5-3 0-.1 0-.4-.1-.5-2.9-.1-6-.4-8.9-.8 4.1 17.1 9.9 27.8 16.2 27.8.9 0 1.6-.1 2.4-.5-1-2.5-2.3-5.5-3.3-7.7-3.3-7.8-5.3-12.6-5.8-15.3"/><path class="st3" d="M123.2 35.2c8.5-3.3 17.6-5.7 27.3-7.1 2.9-12.7 7-22.7 11.9-27.9h-.3c-15.9 3.5-29.7 16.5-38.9 35"/><path class="st4" d="M186.6 27.8C182.5 10.6 176.7 0 170.3 0s-12.2 10.6-16.2 27.8c10.9-1.3 21.5-1.3 32.5 0"/><path class="st5" d="M169.7 52.6c4.2-4.6 6.1-4.1 12.2-7.2 2-1 4.6-2.3 7.5-3.4-.6-3.8-1.3-7.4-2-10.8-11.3-1.4-22.8-1.4-34.1 0-.9 4.1-1.6 8.4-2.3 12.9 6.8.8 13.4 2.7 18.7 8.5"/><path class="st6" d="M150.2 128.4c.9 6.7 1.9 13.1 3 18.8 3 .4 6 .6 9 .9-.4-1.5-1-2.8-2-4.6-1.3-2-5.8-9-10-15.1"/><path class="st7" d="M178.4.4c4.2 4.4 8 12.8 11 25 .3 1 .5 1.9.6 2.9 7.6 1.1 15 2.8 21.8 5.1.9-1 1.8-2.2 2.5-3.4-8.9-15.8-21.5-26.6-35.9-29.6"/><path class="st1" d="M231.3 69.3c12.7 2.9 22.7 7 27.9 11.9v-.3c-2.8-13.1-12-24.7-25.6-33.6-1.4 2.9-2.8 6.2-4.4 10.3.8 3.9 1.6 7.8 2.1 11.7"/><path class="st8" d="M259.4 89.2c0-6.3-10.6-12.2-27.8-16.2 1.3 10.9 1.3 21.6 0 32.5 17.2-4.1 27.8-9.9 27.8-16.3"/><path class="st9" d="M210 100.1l-5.3 6.3c-.4 1-.9 2.2-1.4 3.5 9.1-.9 17.5-2.2 25-3.8 1.4-11.3 1.4-22.8 0-34.1-1.1-.3-2.4-.5-3.7-.8 0 .3-.1.5-.1.8-1.7 7.2-3.6 15.3-14.5 28.1"/><path class="st10" d="M231.3 109.1c-1.4 9.6-3.8 18.8-7.1 27.3 18.6-9.3 31.6-23.1 34.9-38.9v-.1c-4.4 4.3-12.8 8.1-25 11.2-.8 0-1.8.3-2.8.5"/><path class="st11" d="M203.9 162.9c5.2-5.5 9.8-12.2 13.4-19.8-3.5 1.4-7.1 2.5-10.9 3.7 0 3.4-.6 6.2-1.3 8.9-.4 2.2-.9 4.4-1.2 7.2"/><path class="st12" d="M92 55.3c7.2-7.5 16.6-13.6 26.5-18 6.1-13.7 15.3-26.2 27.3-33.8C118.9 11.2 97.1 31.2 87 57c1.1-.5 2.1-.8 5-1.7"/><path class="st13" d="M194.5 132.5l-.1.3c5.3 1.9 10.9 5.8 11.7 9.8 0 .3.1.5.1.8 4.7-1.4 9.1-2.9 13.3-4.8 3.7-8.6 6.5-18.3 8.1-28.6-7.9 1.6-16.6 2.9-25.9 3.8l-1.4 3.7c-2.5 6.2-5.1 12.9-5.8 15"/><path class="st14" d="M235 44.2c8.5 5.5 16 12.3 21 20.4-3.2-11.3-8.6-21.7-15.7-30.7-.6 1.3-1.4 2.7-2.2 4.1-.8 1.9-1.9 4-3.1 6.2"/><path class="st15" d="M194.9 3.4c8.5 5.5 15.7 13.4 21.4 22.7 1.1-3.2 2-7 2.4-11.8-7.3-4.8-15.3-8.5-23.8-10.9"/><path class="st16" d="M118.4 141.1c-13.7-6.1-26.2-15.3-33.8-27.3 8.5 29.5 31.7 52.7 61.2 61.2-12-7.5-21.2-20.2-27.4-33.9"/><path class="st17" d="M222.2 141.1c-4.6 10.1-10.9 19.8-18.6 27.1-.1 1.3-.1 2.5-.3 3.9 25.5-10.1 45.3-31.7 52.9-58.3-7.7 12-20.2 21.2-34 27.3"/><path class="st18" d="M116.3 42.1c-6.5 3.2-12.3 7-17.2 11.3 5.1-1.4 10.4-2.9 15-4.8.7-2.2 1.5-4.4 2.2-6.5"/><path class="st19" d="M127.6 43.2c11.2.6 19.9.8 19.9.8.6-4.2 1.3-8.4 2.2-12.2-10.4 1.6-20 4.4-28.6 8.1-.9 2.2-1.8 4.4-2.7 6.7 5-2.5 4-3.2 9.2-3.4"/><path class="st20" d="M132.5 105.1c-4.6-2.7-8.5-6-12.2-9.1-2.7-2.3-5.7-4.9-9-7 0 5.8.4 11.5 1 17.2 7.6 1.6 16.4 2.9 25.9 3.8-.5-.8-1.1-1.5-1.9-2.2-1.1-.9-2.4-2-3.8-2.7"/><path class="st21" d="M116.3 136.4c-3.3-8.5-5.7-17.6-7.1-27.3-12.3-2.8-21.9-6.6-27.3-11.4l-.5.4c3.9 15.6 16.7 29.2 34.9 38.3"/><path class="st22" d="M140.8 113.8c-10-.9-19.4-2.2-27.9-3.9 1.6 10.4 4.4 20 8.1 28.6 8.6 3.7 18.3 6.5 28.6 8.1-1.5-7.4-2.8-15.6-3.5-24.5-1.5-2.1-3-5-5.3-8.3"/><path class="st23" d="M93.9 88.2l-.1.1-9 7.2c4.4 3.8 12.9 7.2 24.1 9.9-.8-6.1-1-12.2-.9-18.3-2.3-1-4.6-1.6-7-1.6-2.7-.1-5 .8-7.1 2.7"/><path class="st24" d="M150.4 150.2c-9.6-1.4-18.8-3.8-27.3-7.1 9.3 18.6 23.1 31.6 38.9 34.9h.1c-4.3-4.4-8.1-12.8-11.2-25 0-.8-.2-1.8-.5-2.8"/><path class="st25" d="M101 81.9c8.4 0 15.7 6.1 21.8 11.3 3.7 3 7.4 6.3 11.7 8.9 1.8 1 3.3 2.2 4.4 3.4 1.9 1.9 2.2 2.3 3.2 3.9s1.8 2.7 2.3 2.7c1 0 3.2-1.1 3.5-2.8.8-3.4-2.5-6.6-5.1-9-3.5-3.4-9-9.5-10.5-12.3-12-22.4 14.5-40.7 30.4-27.8 1.6-1.5 3.2-3.5 4.4-4.8-8.5-9.3-20.7-7.1-33.1-8-1.8-.1-6.8-.5-8.2-.1-1.5.5-3 1.3-3.9 1.9-11.4 6.3-27.1 7.7-36.6 12.9-2.7 8.5-4.2 17.6-4.2 27.1 0 1.5 0 3 .1 4.6l10.4-8.2c2.8-2.6 5.8-3.7 9.4-3.7"/><path class="st26" d="M190.7 45.4c-4.8 1.8-8.6 4.3-11.4 5.2-5.3 1.9-6 3.4-9.9 7.7-1.1 1.3-2.7 3.2-4.3 4.7 0 .1 0 .6.5 1.3 1.4 2 3.4 1.3 5.2-.4 18.9-18 34-2.4 35.9 7 .9 4.3 1.3 11-3.9 21.8 2.5.9 4.3 2.4 4.6 5.1 13.9-16.5 12-24 15.7-34.1 6.8-19.4 11.5-25.9 15-32.8-4.7-5.3-9.9-10.3-15.7-14.3-3.5 27.6-20.4 24.7-31.7 28.8"/><path class="st27" d="M200.2 163.1c.5-8.2 3.8-12 2.3-19.9-.4-2-5.3-6.1-10.9-7.5l-1.8-.3 1.3-4.1c.8-2.7 4.6-12.2 7.9-20.4.4-.9 4.6-10.6 4.4-12.3-.3-1.5-2-2.5-3.2-2.5s-2.4 2.2-3.7 4.4c-1.8 2.9-2.9 5.7-4.4 8.5-1.6 3-3.4 6.2-5.3 9.6-1.9 3.5-4.1 7.5-6.6 12-1.1 2.2-3 3.3-5.3 3.3-2 0-4.3-.6-4.9-1.1-.6-.5-15.6-17.5-19.3-21-1.1 1.8-2.9 3-4.9 3.5 5.3 8 15.5 22.9 17.5 26 3 4.7 2.9 7.7 3.9 12.8.6 3.7 6.6 16.1 9.6 24 7.9-.6 15.6-2.2 22.7-4.7.2-3.5.5-7 .7-10.3"/><path d="M17.7 310.3c-9.8 0-17.7-8-17.7-17.7 0-9.8 8-17.7 17.7-17.7 4.8 0 9.5 2 12.8 5.5l-3.3 2.7c-2.5-2.5-6-3.9-9.5-3.9-7.5 0-13.4 6.1-13.4 13.4 0 7.4 6.1 13.4 13.4 13.4 3.5 0 7-1.4 9.5-3.9l3.3 2.7c-3.2 3.6-7.8 5.5-12.8 5.5m190.2 0c-9.8 0-17.7-8-17.7-17.7 0-9.8 8-17.7 17.7-17.7 4.8 0 9.5 2 12.8 5.5l-3.3 2.7c-2.5-2.5-6-3.9-9.5-3.9-7.5 0-13.4 6.1-13.4 13.4 0 7.4 6.1 13.4 13.4 13.4 3.5 0 7-1.4 9.5-3.9l3.3 2.7c-3.3 3.6-7.9 5.5-12.8 5.5m87 0c-9.8 0-17.7-8-17.7-17.7 0-9.8 8-17.7 17.7-17.7s17.7 8 17.7 17.7c0 9.8-8 17.7-17.7 17.7m0-31.1c-7.5 0-13.4 6.1-13.4 13.4 0 7.4 6.1 13.4 13.4 13.4 7.5 0 13.4-6.1 13.4-13.4 0-7.3-6-13.4-13.4-13.4M53.4 310.3c-9.8 0-17.7-8-17.7-17.7 0-9.8 8-17.7 17.7-17.7s17.7 8 17.7 17.7-8.1 17.7-17.7 17.7m0-31.1c-7.5 0-13.4 6.1-13.4 13.4 0 7.5 6.1 13.4 13.4 13.4 7.5 0 13.4-6.1 13.4-13.4 0-7.4-6.1-13.4-13.4-13.4m25.1 30.4v-34h4.2c.4 0 .6.1.9.3.3.1.6.4.8.6l19.4 27.6v-28.5h4.2v33.8h-4.3c-.3 0-.6-.1-.9-.3-.3-.1-.5-.4-.8-.6L82.5 281v28.5l-4 .1zm39.1 0v-34h4.2c.4 0 .6.1.9.3.3.1.6.4.8.6l19.4 27.6v-28.5h4.2v33.8h-4.3c-.3 0-.6-.1-.9-.3s-.5-.4-.8-.6L121.8 281v28.5h-4.2zm202.4 0v-34h4.2c.4 0 .6.1.9.3.3.1.6.4.8.6l19.4 27.6v-28.5h4.2v33.8h-4.3c-.3 0-.6-.1-.9-.3s-.5-.4-.8-.6L324 281v28.5l-4 .1zm-54.4-33.9h4.2v33.8h-4.2zm-25.8 33.9v-30.4h-13.7v-3.5h32.1v3.5h-14.1v30.4zm-82.9 0v-33.9h28.7v4.3h-24.5v10.9h19.3v3.5h-19.3v10.9h24.5v4.3zM45.1 266.7v-27.5H15.6v27.5H.9v-67.9h14.7v27.6h29.5v-27.6h14.6v67.9zm53.1 0c-16.2 0-29.4-13.2-29.4-29.4v-38.4h14.7v38.3c0 8.1 6.6 14.8 14.8 14.8 8.1 0 14.8-6.6 14.8-14.8v-38.3h14.7v38.3c0 16.2-13.3 29.5-29.6 29.5m168.6 0v-16h-29.7v15.8h-14.7v-38.2c0-16.2 13.2-29.4 29.4-29.4s29.4 13.2 29.4 29.4v38.3h-14.4zm-29.6-28.8h29.5v-9.5c0-8.1-6.6-14.8-14.8-14.8-8.1 0-14.8 6.6-14.8 14.8v9.5h.1zm102 28.8c-1.8 0-3.5-.8-4.8-2.2-.3-.3-.4-.4-.5-.6L305.3 223v43.7h-14.7V199h10.1c1.9 0 3.7.8 4.8 2.2.1.3.4.4.5.6l28.8 40.8v-43.7h14.7v67.7l-10.3.1zm-140.4 0V223l-18.5 26.4c-1.3 1.6-3 2.5-5.2 2.5-2 0-3.9-1-5.2-2.7l-18.5-26.4v43.7h-14.7v-67.7H147c1.9 0 3.5.8 4.8 2.2.1.3.4.4.5.6l22.7 32.5 22.9-32.5c.1-.3.4-.4.5-.6 1.3-1.4 3-2.2 4.8-2.2h10.1v67.7l-14.5.2z"/></svg>