<svg width="256" height="256" xmlns="http://www.w3.org/2000/svg" xmlns:xlink="http://www.w3.org/1999/xlink"><defs><path id="a" d="M.017.241H159.76v159.742H.017z"/></defs><g fill="none" fill-rule="evenodd"><g transform="translate(48 17)"><mask id="b" fill="#fff"><use xlink:href="#a"/></mask><path d="M159.759 80.12c0 44.117-35.763 79.88-79.88 79.88C35.763 160 0 124.237 0 80.12 0 36.005 35.763.242 79.88.242c44.116 0 79.879 35.763 79.879 79.88" fill="#FFFFFE" mask="url(#b)"/><path d="M113.007 33.767a108.962 108.962 0 0 0-15.664-3.557c.532 2.502 1.01 5.126 1.45 7.832 6.34-1.735 10.023-1.545 14.214-4.275" fill="#295E87" mask="url(#b)"/><path d="M127.552 62.242c.56.138 1.128.272 1.679.415a148.22 148.22 0 0 0-.632-4.475c-.114.402-.228.79-.348 1.206a43.9 43.9 0 0 0-.699 2.854" fill="#007D93" mask="url(#b)"/><path d="M73.408 136.74c-.167-.91-.292-1.742-.418-2.529-.02-.152-.045-.285-.065-.43-2.482-.134-4.973-.34-7.47-.634 3.416 14.473 8.248 23.496 13.6 23.496a5.05 5.05 0 0 0 2.064-.457c-.882-2.161-1.914-4.574-2.746-6.524-2.82-6.582-4.561-10.738-4.965-12.921" fill="#6CB644" mask="url(#b)"/><path d="M39.16 33.566c7.235-2.863 15.096-4.919 23.32-6.118 2.513-11.014 5.935-19.655 10.247-24.091-.077.006-.146.011-.217.02-13.598 2.9-25.458 14.114-33.35 30.19" fill="#933D86" mask="url(#b)"/><path d="M93.427 26.853C89.907 12.38 84.945 3.357 79.44 3.357c-5.505 0-10.473 9.023-13.986 23.496a121.99 121.99 0 0 1 27.972 0" fill="#005093" mask="url(#b)"/><path d="M79.322 49.23c3.63-4.02 5.23-3.581 10.509-6.304 1.766-.911 3.948-2.037 6.393-2.958a175.688 175.688 0 0 0-1.695-9.385 115.792 115.792 0 0 0-29.332 0c-.74 3.509-1.4 7.298-1.98 11.303 5.855.593 11.489 2.248 16.105 7.345" fill="#4A5580" mask="url(#b)"/><path d="M62.657 114.126c.731 5.806 1.641 11.209 2.707 16.075 2.623.324 5.266.555 7.923.708-.354-1.258-.872-2.443-1.83-3.89-1.156-1.724-5.193-7.627-8.8-12.893" fill="#B9D137" mask="url(#b)"/><path d="M86.837 3.37c-.043-.005-.08-.01-.124-.013 3.71 3.85 6.875 11.057 9.475 21.575.203.825.4 1.67.59 2.523 6.464.947 12.69 2.438 18.568 4.433.77-.85 1.488-1.843 2.137-2.999C109.74 15.331 98.987 5.98 86.837 3.37" fill="#0067A5" mask="url(#b)"/><path d="M132.294 63.024c11.132 2.514 19.871 5.943 24.35 10.263-.005-.076-.014-.15-.019-.225-2.416-11.22-10.544-21.258-22.416-28.866a144.402 144.402 0 0 0-3.86 8.851 111.387 111.387 0 0 1 1.945 9.977" fill="#007D93" mask="url(#b)"/><path d="M156.084 80c0-5.504-9.023-10.469-23.497-13.986a122.057 122.057 0 0 1 0 27.972c14.474-3.517 23.497-8.481 23.497-13.987" fill="#007A70" mask="url(#b)"/><path d="M113.79 89.915l-4.589 5.5c-.349.885-.755 1.9-1.229 3.047 7.875-.795 15.12-1.906 21.457-3.28a119.737 119.737 0 0 0 0-29.643c-1.02-.224-2.063-.438-3.129-.644-.049.203-.097.408-.139.614-1.421 6.192-3.032 13.213-12.371 24.406" fill="#008F6D" mask="url(#b)"/><path d="M131.995 97.434c-1.201 8.258-3.252 16.146-6.12 23.405 16.073-7.911 27.291-19.805 30.2-33.436.001-.045.005-.088.009-.13-3.849 3.74-11.053 6.942-21.57 9.561-.82.207-1.666.404-2.519.6" fill="#008255" mask="url(#b)"/><path d="M108.531 143.217c4.49-4.636 8.458-10.308 11.749-16.783a101.548 101.548 0 0 1-9.464 3.079c.045 2.905-.547 5.276-1.135 7.582-.469 1.854-.954 3.771-1.15 6.122" fill="#43913A" mask="url(#b)"/><path d="M12.543 50.58c6.246-6.436 14.243-11.605 22.73-15.408C40.557 23.44 48.524 12.652 58.74 6.154 35.632 12.748 16.996 29.89 8.391 52.028c.806-.414 1.683-.766 4.152-1.448" fill="#C61A6A" mask="url(#b)"/><path d="M100.773 117.174l-.074.237c4.555 1.574 9.362 5.032 9.984 8.35.043.233.063.447.1.673a95.826 95.826 0 0 0 11.469-4.072c3.206-7.367 5.602-15.616 6.979-24.46-6.717 1.382-14.237 2.454-22.248 3.197l-1.241 3.127c-2.203 5.546-4.48 11.28-4.969 12.948" fill="#15A748" mask="url(#b)"/><path d="M135.944 41.428c7.454 4.814 13.966 10.814 18.462 17.873a77.92 77.92 0 0 0-13.769-26.853 146.522 146.522 0 0 1-1.855 3.538c-.868 1.625-1.811 3.383-2.838 5.442" fill="#007FBA" mask="url(#b)"/><path d="M100.7 6.154c7.225 4.707 13.3 11.66 18.08 19.58.984-2.696 1.7-6.046 2.06-10.211a74.265 74.265 0 0 0-20.14-9.37" fill="#008AC4" mask="url(#b)"/><path d="M34.697 124.737c-11.754-5.28-22.584-13.25-29.103-23.478 7.253 25.357 27.233 45.338 52.588 52.587-10.223-6.515-18.197-17.338-23.485-29.109" fill="#E1B424" mask="url(#b)"/><path d="M124.232 124.846c-3.93 8.79-9.332 17.036-16.025 23.376-.085 1.11-.16 2.235-.235 3.386 21.869-8.75 38.777-27.344 45.315-50.35-6.5 10.266-17.305 18.28-29.055 23.588" fill="#00753C" mask="url(#b)"/><path d="M33.566 39.72c-5.689 2.722-10.772 5.925-15.104 9.51 4.442-1.18 9.045-2.477 13.085-4.05a91.4 91.4 0 0 1 2.02-5.46" fill="#B42554" mask="url(#b)"/><path d="M43.127 39.65c9.639.509 17.117.675 17.16.679a167.942 167.942 0 0 1 1.81-10.12c-8.89 1.335-17.183 3.653-24.59 6.755a87.766 87.766 0 0 0-2.262 5.553c4.28-2.118 3.488-2.77 7.882-2.867" fill="#4F3B68" mask="url(#b)"/><path d="M47.2 94.068c-3.903-2.336-7.21-5.22-10.408-8.009-2.32-2.027-4.919-4.293-7.701-6.059-.008 5.053.293 10.105.91 15.093 6.485 1.423 13.927 2.566 22.027 3.369a16.877 16.877 0 0 0-1.642-1.927 16.255 16.255 0 0 0-3.185-2.467" fill="#EB8B2D" mask="url(#b)"/><path d="M33.566 120.84c-2.88-7.347-4.946-15.327-6.15-23.68-10.636-2.445-19.058-5.752-23.66-9.887l-.4.319c3.117 13.546 14.291 25.353 30.21 33.247" fill="#F3B229" mask="url(#b)"/><path d="M53.946 101.233c-8.486-.736-16.554-1.845-23.736-3.33 1.367 8.823 3.744 17.05 6.925 24.395 7.349 3.186 15.577 5.564 24.403 6.933-1.307-6.319-2.337-13.344-3.072-20.83-1.218-1.813-2.55-4.287-4.52-7.168" fill="#FFDA1A" mask="url(#b)"/><path d="M14.047 79.048l-.116.097-7.777 6.29c3.867 3.3 11.103 6.236 20.7 8.551a122.477 122.477 0 0 1-.795-15.916c-1.93-.876-3.93-1.427-5.968-1.427-2.284 0-4.204.763-6.044 2.405" fill="#DC3E2A" mask="url(#b)"/><path d="M62.565 132.555c-8.257-1.198-16.144-3.256-23.404-6.121 7.913 16.075 19.807 27.295 33.443 30.197.036.005.079.01.123.012-3.743-3.847-6.946-11.052-9.563-21.566-.207-.825-.404-1.668-.6-2.522" fill="#A7BE33" mask="url(#b)"/><path d="M19.87 73.779c7.22 0 13.48 5.264 18.678 9.71 3.121 2.667 6.348 5.426 10.043 7.591 1.55.908 2.79 1.9 3.81 2.895 1.686 1.648 1.803 1.976 2.687 3.348.9 1.4 1.476 2.257 1.978 2.257.846 0 2.68-.974 3.022-2.428.664-2.958-2.152-5.688-4.365-7.758-3.102-2.897-7.701-8.137-8.986-10.547C36.438 59.51 59.152 43.83 72.867 54.948c1.392-1.331 2.673-3.015 3.776-4.178-7.285-8.004-17.803-6.106-28.382-6.892-1.482-.11-5.876-.45-7.132-.058-1.258.392-2.572 1.133-3.372 1.603-9.65 5.64-23.253 6.91-31.355 11.353a77.045 77.045 0 0 0-3.605 23.348c0 1.323.033 2.637.1 3.945l8.875-7.123c2.405-2.132 5.055-3.167 8.099-3.167" fill="#DF542A" mask="url(#b)"/><path d="M97.59 42.139c-4.137 1.509-7.47 3.666-9.806 4.499-4.541 1.607-5.123 2.927-8.523 6.664-.995 1.108-2.31 2.736-3.729 4.07-.024.069-.012.56.389 1.142 1.168 1.717 2.989 1.105 4.504-.337 16.32-15.507 29.307-2.112 30.923 6.008.751 3.763 1.041 9.48-3.385 18.724 2.177.728 3.67 2.083 3.887 4.364 11.976-14.188 10.411-20.65 13.503-29.314 5.94-16.675 9.972-22.3 12.829-28.269a77.175 77.175 0 0 0-13.554-12.347c-2.808 23.833-17.344 21.266-27.038 24.796" fill="#00A3DA" mask="url(#b)"/><path d="M105.796 143.66c.483-7.108 3.248-10.314 1.969-17.137-.335-1.78-4.549-5.28-9.453-6.441l-1.523-.195 1.081-3.442c.669-2.257 3.995-10.482 6.797-17.574.304-.725 3.964-9.128 3.862-10.512-.174-1.31-1.765-2.205-2.766-2.205-1.005 0-2.047 1.832-3.164 3.772-1.496 2.553-2.469 4.873-3.848 7.332l-.005-.004c-1.454 2.595-2.931 5.289-4.595 8.317a1473.55 1473.55 0 0 1-5.684 10.3c-1.006 1.803-2.632 2.798-4.592 2.798-1.792 0-3.688-.505-4.237-.928-.55-.423-13.505-14.989-16.618-18.057-.948 1.54-2.551 2.591-4.279 3.087 4.657 6.895 13.393 19.744 15.066 22.292 2.636 4.014 2.539 6.657 3.355 11.034.59 3.144 5.681 13.867 8.358 20.546a77.322 77.322 0 0 0 19.654-4.012c.171-3.196.429-6.149.622-8.97" fill="#84BF41" mask="url(#b)"/></g><g fill="#1A1919"><path d="M68.216 218.2v-12.631H54.7V218.2H48V187h6.7v12.631h13.516V187h6.7v31.2h-6.7M92.86 218.2c-7.421 0-13.458-6.083-13.458-13.561V187h6.7v17.639c0 3.754 3.032 6.808 6.758 6.808s6.757-3.054 6.757-6.808V187h6.7v17.639c0 7.478-6.036 13.561-13.457 13.561M156.68 204.952h13.517v-4.39c0-3.755-3.033-6.81-6.758-6.81-3.728 0-6.759 3.055-6.759 6.81v4.39zm13.517 13.248v-7.31H156.68v7.31h-6.699v-17.638c0-7.478 6.036-13.562 13.458-13.562 7.42 0 13.458 6.084 13.458 13.562V218.2h-6.7zM203.013 218.2a2.987 2.987 0 0 1-2.427-1.295l-13.101-18.855v20.15h-6.7V187h4.663a2.99 2.99 0 0 1 2.453 1.298l13.1 18.853.002-20.151h6.698v31.2h-4.688M138.797 218.2v-20.147l-8.44 12.142a2.907 2.907 0 0 1-2.36 1.192 2.91 2.91 0 0 1-2.367-1.206l-8.429-12.128V218.2h-6.696v-31.198h4.551l.107-.002a2.987 2.987 0 0 1 2.455 1.3l10.38 14.94 10.384-14.942c.07-.098.149-.2.236-.297a2.99 2.99 0 0 1 2.217-1.001l4.659.002.001 31.198h-6.698M57.38 232.046c.108 0 .203.044.284.132l.803.885a5.12 5.12 0 0 1-1.865 1.433c-.737.336-1.618.504-2.643.504-.91 0-1.732-.16-2.466-.478a5.423 5.423 0 0 1-1.878-1.332 5.929 5.929 0 0 1-1.196-2.037c-.28-.789-.419-1.657-.419-2.603 0-.946.148-1.815.445-2.607a5.996 5.996 0 0 1 1.252-2.042 5.622 5.622 0 0 1 1.935-1.328c.75-.315 1.578-.473 2.483-.473.898 0 1.69.148 2.379.442a5.877 5.877 0 0 1 1.792 1.18l-.665.954a.742.742 0 0 1-.164.167.426.426 0 0 1-.26.07c-.114 0-.245-.054-.392-.162a6.195 6.195 0 0 0-.562-.36 4.347 4.347 0 0 0-.855-.359c-.342-.108-.77-.162-1.282-.162-.593 0-1.137.106-1.632.316a3.53 3.53 0 0 0-1.279.92 4.292 4.292 0 0 0-.833 1.472c-.199.579-.298 1.236-.298 1.972 0 .742.104 1.404.311 1.985a4.32 4.32 0 0 0 .855 1.472c.363.4.789.706 1.278.916.49.21 1.016.315 1.58.315.346 0 .656-.019.93-.056a3.476 3.476 0 0 0 1.408-.504c.203-.129.406-.287.608-.474.115-.105.23-.158.345-.158M70.439 228.554c0-.724-.098-1.376-.293-1.955a4.145 4.145 0 0 0-.837-1.473 3.644 3.644 0 0 0-1.321-.93c-.518-.216-1.1-.325-1.745-.325-.64 0-1.218.109-1.736.325-.517.216-.96.526-1.326.93a4.156 4.156 0 0 0-.846 1.473c-.198.579-.297 1.23-.297 1.955 0 .731.1 1.386.297 1.965.198.579.48 1.068.846 1.469.367.4.809.707 1.326.92.518.214 1.096.32 1.736.32.645 0 1.227-.106 1.745-.32.517-.213.958-.52 1.321-.92a4.1 4.1 0 0 0 .837-1.469c.195-.58.293-1.234.293-1.965zm2.084 0c0 .936-.15 1.798-.453 2.588a5.99 5.99 0 0 1-1.278 2.039 5.836 5.836 0 0 1-1.98 1.337c-.77.321-1.627.482-2.57.482-.935 0-1.789-.16-2.56-.482a5.879 5.879 0 0 1-1.984-1.337 5.948 5.948 0 0 1-1.282-2.04c-.302-.789-.453-1.651-.453-2.587 0-.935.15-1.797.453-2.587.302-.789.73-1.47 1.282-2.043a5.852 5.852 0 0 1 1.985-1.342c.77-.321 1.624-.482 2.56-.482.942 0 1.798.16 2.569.482.77.322 1.43.77 1.98 1.342.55.573.975 1.254 1.278 2.043.302.79.453 1.652.453 2.587zM85.383 222.1v12.6h-1.045a.897.897 0 0 1-.404-.083.943.943 0 0 1-.316-.276l-6.946-8.89a10.071 10.071 0 0 1 .053.963v8.286h-1.81v-12.6h1.072c.088 0 .163.004.224.013a.65.65 0 0 1 .171.048.5.5 0 0 1 .15.105c.046.047.096.105.149.175l6.955 8.899a11.368 11.368 0 0 1-.053-1.024V222.1h1.8M99.14 222.1v12.6h-1.045a.898.898 0 0 1-.404-.083.941.941 0 0 1-.316-.276l-6.946-8.89a10.071 10.071 0 0 1 .053.963v8.286h-1.81v-12.6h1.072c.088 0 .163.004.224.013a.653.653 0 0 1 .171.048.503.503 0 0 1 .15.105c.047.047.096.105.149.175l6.955 8.899a11.585 11.585 0 0 1-.053-1.024V222.1h1.8M110.206 233.046l-.01 1.654h-8.065v-12.6h8.065v1.654h-5.954v3.797h4.76v1.601h-4.76v3.894h5.964M121.38 232.046c.109 0 .203.044.284.132l.803.885a5.133 5.133 0 0 1-1.865 1.433c-.738.336-1.619.504-2.643.504-.91 0-1.733-.16-2.466-.478a5.422 5.422 0 0 1-1.879-1.332 5.948 5.948 0 0 1-1.196-2.037c-.28-.789-.418-1.657-.418-2.603 0-.946.148-1.815.444-2.607a6.013 6.013 0 0 1 1.252-2.042 5.61 5.61 0 0 1 1.936-1.328c.751-.315 1.577-.473 2.483-.473.897 0 1.69.148 2.379.442a5.897 5.897 0 0 1 1.792 1.18l-.665.954a.787.787 0 0 1-.164.167.427.427 0 0 1-.26.07c-.115 0-.246-.054-.392-.162a6.137 6.137 0 0 0-.561-.36 4.402 4.402 0 0 0-.855-.359c-.343-.108-.772-.162-1.284-.162-.592 0-1.137.106-1.632.316a3.54 3.54 0 0 0-1.279.92 4.317 4.317 0 0 0-.833 1.472c-.198.579-.297 1.236-.297 1.972 0 .742.103 1.404.31 1.985.208.581.493 1.072.855 1.472.363.4.79.706 1.28.916.488.21 1.014.315 1.58.315.344 0 .653-.019.928-.056a3.48 3.48 0 0 0 1.408-.504c.204-.129.407-.287.608-.474.116-.105.23-.158.346-.158M133.832 223.806h-4.033V234.7h-2.092v-10.894h-4.043V222.1h10.168v1.706M135.626 234.7h2.094v-12.6h-2.094zM150.589 228.554c0-.724-.097-1.376-.293-1.955a4.155 4.155 0 0 0-.837-1.473 3.642 3.642 0 0 0-1.32-.93c-.52-.216-1.1-.325-1.746-.325-.64 0-1.218.109-1.737.325a3.685 3.685 0 0 0-1.325.93 4.171 4.171 0 0 0-.847 1.473c-.197.579-.295 1.23-.295 1.955 0 .731.098 1.386.295 1.965.199.579.48 1.068.847 1.469.366.4.808.707 1.325.92.519.214 1.098.32 1.737.32.646 0 1.226-.106 1.745-.32.517-.213.958-.52 1.32-.92.364-.4.643-.89.838-1.469.196-.58.293-1.234.293-1.965zm2.084 0c0 .936-.151 1.798-.453 2.588a5.998 5.998 0 0 1-1.277 2.039 5.832 5.832 0 0 1-1.981 1.337c-.772.321-1.627.482-2.57.482-.935 0-1.788-.16-2.56-.482a5.875 5.875 0 0 1-1.984-1.337 5.939 5.939 0 0 1-1.282-2.04c-.303-.789-.454-1.651-.454-2.587 0-.935.151-1.797.454-2.587.302-.789.73-1.47 1.282-2.043a5.848 5.848 0 0 1 1.985-1.342c.77-.321 1.624-.482 2.56-.482.942 0 1.797.16 2.569.482.77.322 1.431.77 1.98 1.342.55.573.975 1.254 1.278 2.043.302.79.453 1.652.453 2.587zM165.533 222.1v12.6h-1.045a.901.901 0 0 1-.404-.083.937.937 0 0 1-.316-.276l-6.947-8.89a9.392 9.392 0 0 1 .054.963v8.286h-1.81v-12.6h1.071c.088 0 .163.004.225.013a.52.52 0 0 1 .32.153c.047.047.097.105.15.175l6.954 8.899a13.032 13.032 0 0 1-.053-1.024V222.1h1.8M167.925 233.804a1.211 1.211 0 0 1 .34-.851 1.169 1.169 0 0 1 .848-.353c.166 0 .322.032.47.095a1.222 1.222 0 0 1 .64.64c.064.147.095.303.095.47 0 .172-.03.33-.094.473-.063.143-.15.27-.259.378-.109.11-.237.194-.382.254-.148.06-.304.09-.47.09-.167 0-.322-.03-.47-.09a1.114 1.114 0 0 1-.377-.254 1.187 1.187 0 0 1-.34-.852M181.99 228.554c0-.724-.098-1.376-.293-1.955a4.132 4.132 0 0 0-.837-1.473 3.641 3.641 0 0 0-1.321-.93c-.519-.216-1.099-.325-1.745-.325-.64 0-1.218.109-1.735.325-.519.216-.96.526-1.327.93a4.145 4.145 0 0 0-.845 1.473c-.198.579-.297 1.23-.297 1.955 0 .731.099 1.386.297 1.965a4.1 4.1 0 0 0 .845 1.469c.367.4.808.707 1.327.92.517.214 1.096.32 1.735.32.646 0 1.226-.106 1.745-.32.517-.213.957-.52 1.32-.92.364-.4.644-.89.838-1.469.195-.58.292-1.234.292-1.965zm2.085 0c0 .936-.153 1.798-.454 2.588a5.975 5.975 0 0 1-1.278 2.039 5.83 5.83 0 0 1-1.98 1.337c-.77.321-1.627.482-2.57.482-.935 0-1.788-.16-2.559-.482a5.889 5.889 0 0 1-1.984-1.337 5.939 5.939 0 0 1-1.282-2.04c-.303-.789-.454-1.651-.454-2.587 0-.935.15-1.797.454-2.587.302-.789.73-1.47 1.282-2.043a5.862 5.862 0 0 1 1.984-1.342c.771-.321 1.624-.482 2.56-.482.942 0 1.799.16 2.568.482.772.322 1.432.77 1.981 1.342.55.573.976 1.254 1.278 2.043a7.19 7.19 0 0 1 .454 2.587zM190.118 228.137c.465 0 .873-.056 1.221-.17a2.45 2.45 0 0 0 .874-.477c.233-.204.407-.448.524-.73.115-.283.174-.597.174-.941 0-.689-.226-1.213-.681-1.575-.453-.362-1.14-.543-2.06-.543h-1.66v4.436h1.608zm5.92 6.563h-1.825c-.362 0-.624-.14-.786-.42l-2.934-4.244a.992.992 0 0 0-.323-.315c-.117-.064-.291-.096-.524-.096h-1.136v5.075h-2.043v-12.6h3.703c.826 0 1.538.085 2.134.254.598.169 1.088.41 1.471.722.386.312.67.686.853 1.124.183.438.274.925.274 1.461 0 .438-.065.846-.196 1.225a3.42 3.42 0 0 1-.568 1.033c-.247.31-.55.577-.913.805a4.61 4.61 0 0 1-1.23.533c.25.152.465.365.646.64l3.396 4.803zM208 228.646v4.995c-1.252.906-2.71 1.359-4.37 1.359-1.02 0-1.942-.16-2.767-.478a6.124 6.124 0 0 1-2.11-1.332 5.834 5.834 0 0 1-1.346-2.037c-.315-.789-.472-1.657-.472-2.603 0-.952.15-1.824.455-2.616a5.785 5.785 0 0 1 1.301-2.042 5.83 5.83 0 0 1 2.046-1.323c.797-.313 1.695-.469 2.691-.469.508 0 .978.04 1.413.118.434.079.838.189 1.21.329a5.673 5.673 0 0 1 1.897 1.174l-.587.938a.582.582 0 0 1-.357.272c-.145.035-.303 0-.472-.106l-.537-.315a4.684 4.684 0 0 0-1.5-.548 6.1 6.1 0 0 0-1.136-.092c-.665 0-1.263.11-1.797.329a3.835 3.835 0 0 0-1.367.938 4.15 4.15 0 0 0-.874 1.476c-.204.579-.306 1.224-.306 1.937 0 .754.107 1.427.323 2.02.216.593.521 1.095.917 1.507.397.412.877.726 1.438.942.563.217 1.19.324 1.885.324.518 0 .98-.055 1.385-.166a6.318 6.318 0 0 0 1.192-.464v-2.507h-1.757a.433.433 0 0 1-.314-.11.377.377 0 0 1-.113-.284v-1.166H208"/></g></g></svg>