<svg width="141" height="141" viewBox="0 0 141 141" xmlns="http://www.w3.org/2000/svg"><title>logo-hc</title><g fill-rule="nonzero" fill="none"><path d="M100.8 28.4c-4.5-1.4-9.2-2.5-14-3.3l1.2 7.3c5.7-1.6 9-1.4 12.8-4" fill="#216196"/><path d="M114 53.7c.5 0 1 .2 1.7.4l-.7-3.7c0 .3-.2.7-.4 1l-.7 2.4" fill="#007FA1"/><path d="M65 122.2l-.3-2.4v-.4c-2.4 0-4.8-.3-7-.6 3 13.5 7.7 22 12.7 22 .7 0 1.3-.2 2-.5l-2.7-6c-2.6-6.2-4.2-10-4.6-12" fill="#76B82A"/><path d="M33.2 27.8c6.7-2.6 14-4.5 21.5-5.6 2.3-10 5.5-18 9.4-22C51.3 3 40.4 13.2 33 27.8" fill="#A7358B"/><path d="M83.2 22C80 8.3 75.4 0 70.4 0c-5 0-9.6 8.4-12.8 22 8.6-1 17-1 25.6 0" fill="#004F9F"/><path d="M70 41.5c3.2-3.6 4.7-3.2 9.5-5.7C81 35 83 34 85.5 33c-.6-3-1-5.7-1.7-8.4-9-1-18-1-27 0l-1.7 10.2c5.5.6 10.7 2 15 6.7" fill="#50568E"/><path d="M54.5 101.3c.7 5.3 1.5 10.3 2.4 14.8 2.3.4 4.6.6 7 .8-.3-1.2-.8-2.2-1.6-3.6l-8-12" fill="#C8D400"/><path d="M76.8.3C80 3.8 83 10.3 85.5 20l.5 2.3c6 1 11.8 2.2 17.2 4 .7-.8 1.4-1.7 2-2.7-7-12.4-17-21-28.4-23.3" fill="#0069B4"/><path d="M118.5 54.7c10 2.3 18 5.5 22 9.4-2.2-10.4-9.5-19.6-20.2-26.6l-3.5 8c.7 3 1.3 6.2 1.7 9.3" fill="#007FA1"/><path d="M140.7 70.4c0-5-8.4-9.6-22-12.8 1 8.6 1 17 0 25.6 13.6-3.2 22-7.8 22-12.8" fill="#007D75"/><path d="M101.7 79l-4.2 5-1 2.8c7-.7 13.7-1.7 19.6-3 1.2-9 1.2-18 0-27-.8 0-1.8-.3-2.8-.5v.6c-1.4 5.5-3 12-11.5 22" fill="#008F6D"/><path d="M118.5 86c-1 7.7-3 15-5.6 21.6 14.6-7.3 24.8-18.2 27.4-30.7v-.2c-3.5 3.4-10 6.4-19.7 8.8-.6 0-1.4.3-2.2.5" fill="#008251"/><path d="M97 128.5c4-4.3 7.6-9.6 10.5-15.6-2.8 1-5.6 2-8.6 2.8 0 2.7-.6 5-1 7-.5 1.8-1 3.5-1 5.7" fill="#46962B"/><path d="M8.6 43.6c5.7-6 13-10.7 21-14.2C34.2 18.6 41.5 8.7 51 2.7c-21.2 6-38.4 22-46.3 42.3.8-.4 1.6-.7 4-1.4" fill="#D7006E"/><path d="M89.5 104.5v.2c4 1.5 8.5 4.6 9 7.7l.2.6c3.7-1 7.2-2.3 10.5-3.8 3-6.8 5-14.4 6.4-22.6-6.2 1.3-13 2.3-20.4 3l-1 3c-2 5-4.2 10.3-4.7 12" fill="#13A538"/><path d="M121.4 35C128 39 134 44.5 138 51c-2.5-9-6.8-17-12.4-24.2L124 30l-2.6 5" fill="#0080C9"/><path d="M89.8 2.7c6.7 4.3 12.4 10.6 17 18 .8-2.6 1.5-5.6 1.8-9.4-5.8-3.8-12-6.7-18.8-8.6" fill="#008BD2"/><path d="M29.4 111.3c-10.8-4.8-20.7-12-26.7-21.5C9.4 113 27.7 131.4 51 138c-9.4-6-16.7-16-21.6-26.7" fill="#EBBD00"/><path d="M111.3 111.3c-3.6 8-8.6 15.6-14.7 21.4 0 1 0 2-.2 3 20-8 35.7-25 41.7-46-6 9.5-15.8 16.8-26.7 21.6" fill="#007632"/><path d="M27.8 33.2c-5 2.5-9.7 5.5-13.6 9 4-1.2 8.2-2.4 11.8-4l1.8-5" fill="#C71553"/><path d="M36.7 34c8.8.6 15.7.7 15.7.7.5-3.3 1-6.6 1.7-9.6-8 1.4-15.7 3.6-22.5 6.5l-2 5.3c4-2 3-2.6 7.2-2.7" fill="#593872"/><path d="M40.6 83C37 80.7 34 78 31 75.6c-2-1.8-4.5-4-7-5.5 0 4.6.2 9 .7 13.6 6 1.3 13 2.3 20.4 3-.3-.6-.8-1.2-1.4-1.7-1-.7-2-1.5-3-2" fill="#F39200"/><path d="M27.8 107.6c-2.6-6.7-4.5-14-5.6-21.5C12.5 84 5 81 .7 77l-.4.4c3 12.3 13 23 27.5 30.2" fill="#FBBA00"/><path d="M47 89.8c-7.8-.7-15.2-1.7-22-3 1.4 8 3.6 15.7 6.5 22.5 6.8 3 14.4 5 22.6 6.4-1-5.8-2-12.3-2.7-19.3-1.2-1.7-2.4-4-4.2-6.6" fill="#FD0"/><path d="M10 69.6l-7 5.8c3.4 3 10 5.7 19 7.8-.7-4.8-1-9.6-.8-14.4-1.8-.8-3.6-1.3-5.5-1.3-2 0-4 .6-5.6 2" fill="#E63312"/><path d="M54.7 118.5c-7.6-1-14.8-3-21.5-5.6 7.3 14.6 18.2 24.8 30.7 27.4-3.4-3.5-6.4-10-8.8-19.7 0-.6-.3-1.4-.5-2.2" fill="#B9C400"/><path d="M15.7 64.6c6.6 0 12.4 4.8 17.2 9 2.8 2.3 5.7 5 9 7 1.5.7 2.7 1.6 3.6 2.6 1.5 1.5 1.7 1.8 2.5 3 1 1.4 1.5 2.2 2 2.2.7 0 2.4-1 2.7-2.2.6-2.7-2-5.2-4-7-2.8-2.8-7-7.6-8.3-9.8-9.5-17.7 11.4-32 24-22 1.3-1 2.5-2.7 3.5-3.7-6.8-7.3-16.4-5.6-26.2-6.3-1.4 0-5.4-.4-6.5 0-1.2.3-2.4 1-3 1.4-9 5-21.5 6-29 10.2C1.3 55.7 0 63 0 70.4V74l8.3-6.5c2.2-2 4.6-3 7.4-3" fill="#E84E0F"/><path d="M86.5 35.8c-3.8 1.4-6.8 3.4-9 4-4.2 1.6-4.7 2.8-7.8 6.2-1 1-2 2.5-3.4 3.7 0 0 0 .5.4 1 1 1.6 2.7 1 4-.3 15-14.2 27-2 28.4 5.5.8 3.3 1 8.6-3 17 2 .8 3.4 2 3.6 4 11-13 9.5-18.8 12.4-26.8 5.4-15.3 9-20.4 11.8-26-3.7-4-7.8-8-12.4-11.2-2.7 22-16 19.6-25 22.8" fill="#009FE3"/><path d="M94 128.7c.4-6.5 3-9.5 1.8-15.7-.3-1.6-4.2-4.8-8.6-6h-1.4l1-3.3c.6-2 3.6-9.6 6.2-16 .3-.8 3.6-8.5 3.5-9.8-.2-1.3-1.6-2-2.5-2-1 0-2 1.6-3 3.4-1.3 2.3-2.2 4.5-3.4 6.7l-4.2 7.7-5.2 9.5c-1 1.7-2.4 2.6-4.2 2.6-1.6 0-3.4-.5-4-1-.4-.3-12.2-13.7-15-16.5-1 1.4-2.4 2.4-4 2.8l13.8 20.6c2.4 3.7 2.3 6 3 10 .6 3 5.3 12.8 7.7 19 6.2-.5 12.3-1.7 18-3.7 0-3 .3-5.7.5-8.3" fill="#95C11F"/></g></svg>