<svg width="398" height="311" xmlns="http://www.w3.org/2000/svg"><g fill-rule="nonzero" fill="none"><path fill="#F0F5F7" d="M17.6 83.304h362.871v110.304H17.6z"/><path d="M380.47 198.763H17.6a5.154 5.154 0 0 1-5.155-5.154V83.304A5.154 5.154 0 0 1 17.6 78.15h362.87a5.154 5.154 0 0 1 5.155 5.154V193.61a5.154 5.154 0 0 1-5.154 5.154zM22.755 188.454h352.562V88.46H22.754v99.995z" fill="#5C65AC"/><path fill="#F18DA9" d="M90.793 193.609h-46.39l46.39-110.305h46.39z"/><path d="M90.793 198.763h-46.39a5.155 5.155 0 0 1-4.752-7.153l46.39-110.304a5.155 5.155 0 0 1 4.752-3.156h46.39a5.155 5.155 0 0 1 4.75 7.153L95.545 195.607a5.155 5.155 0 0 1-4.751 3.156zm-38.63-10.309h35.206l42.053-99.995H94.216l-42.053 99.995z" fill="#5C65AC"/><path fill="#F18DA9" d="M204.19 193.609H157.8l46.39-110.305h46.39z"/><path d="M204.19 198.763H157.8a5.155 5.155 0 0 1-4.752-7.153l46.39-110.304a5.155 5.155 0 0 1 4.752-3.156h46.39a5.155 5.155 0 0 1 4.75 7.153l-46.389 110.304a5.155 5.155 0 0 1-4.751 3.156zm-38.63-10.309h35.206L242.82 88.46h-35.207l-42.053 99.995z" fill="#5C65AC"/><path fill="#F18DA9" d="M317.587 193.609h-46.39l46.39-110.305h46.39z"/><path d="M317.587 198.763h-46.39a5.155 5.155 0 0 1-4.752-7.153l46.39-110.304a5.155 5.155 0 0 1 4.752-3.156h46.39a5.155 5.155 0 0 1 4.751 7.153l-46.39 110.304a5.155 5.155 0 0 1-4.752 3.156zm-38.63-10.309h35.206l42.054-99.995H321.01l-42.053 99.995z" fill="#5C65AC"/><path fill="#BBBEC0" d="M72.752 193.609H94.4v97.934H72.752z"/><path d="M94.4 296.697H72.752a5.154 5.154 0 0 1-5.154-5.154v-97.934a5.154 5.154 0 0 1 5.154-5.155H94.4a5.154 5.154 0 0 1 5.155 5.155v97.934a5.154 5.154 0 0 1-5.155 5.154zm-16.494-10.309h11.34v-87.625h-11.34v87.625z" fill="#5C65AC"/><path fill="#DCE0E3" d="M36.671 304.944H5.745l48.451-111.335h30.927z"/><path fill="#C0C4C6" d="M74.814 217.319H43.887l10.31-23.71h30.926z"/><path d="M36.671 310.098H5.745a5.153 5.153 0 0 1-4.727-7.21l48.451-111.336a5.155 5.155 0 0 1 4.727-3.098h30.927a5.153 5.153 0 0 1 4.726 7.211L41.398 307.001a5.155 5.155 0 0 1-4.727 3.097zM13.61 299.79h19.684l43.965-101.027H57.575L13.609 299.79z" fill="#5C65AC"/><path fill="#BBBEC0" d="M303.67 193.609h21.648v97.934H303.67z"/><path d="M325.318 296.697H303.67a5.154 5.154 0 0 1-5.155-5.154v-97.934a5.154 5.154 0 0 1 5.155-5.155h21.648a5.154 5.154 0 0 1 5.155 5.155v97.934a5.154 5.154 0 0 1-5.155 5.154zm-16.494-10.309h11.34v-87.625h-11.34v87.625z" fill="#5C65AC"/><path fill="#DCE0E3" d="M361.399 304.944h30.927l-48.452-111.335h-30.926z"/><path fill="#C0C4C6" d="M322.226 217.319h30.926l-9.278-23.71h-30.926z"/><path d="M392.326 310.098h-30.927a5.154 5.154 0 0 1-4.726-3.097L308.22 195.665a5.157 5.157 0 0 1 4.727-7.21h30.926a5.155 5.155 0 0 1 4.727 3.097l48.451 111.335a5.157 5.157 0 0 1-4.726 7.211zm-27.548-10.308h19.683l-43.966-101.027h-19.683l43.966 101.027z" fill="#5C65AC"/><path fill="#DCE0E3" d="M342.328 261.647H55.742l11.34-25.772h268.03z"/><path d="M342.328 266.801H55.743a5.154 5.154 0 0 1-4.718-7.23l11.34-25.772a5.153 5.153 0 0 1 4.717-3.079h263.906a5.153 5.153 0 0 1 4.717 3.08l11.34 25.771a5.154 5.154 0 0 1-4.717 7.23zM63.642 256.493h270.786l-6.803-15.464H70.445l-6.803 15.464z" fill="#5C65AC"/><g transform="translate(76)"><circle fill="#F9BF96" cx="32.833" cy="32.791" r="26.803"/><path d="M32.833 64.748C15.21 64.748.876 50.412.876 32.791.875 15.17 15.21.834 32.832.834S64.79 15.17 64.79 32.79c0 17.621-14.335 31.957-31.957 31.957zm0-53.606c-11.937 0-21.649 9.712-21.649 21.649 0 11.937 9.712 21.649 21.649 21.649 11.937 0 21.648-9.712 21.648-21.649 0-11.937-9.711-21.648-21.648-21.648z" fill="#5C65AC"/><circle fill="#FFE6A6" cx="28.709" cy="25.575" r="10.309"/></g><path d="M108.833 88.459a5.154 5.154 0 0 1-5.155-5.155v-23.71a5.154 5.154 0 1 1 10.31 0v23.71a5.154 5.154 0 0 1-5.155 5.155z" fill="#5C65AC"/><g><g transform="translate(257)"><circle fill="#F9BF96" cx="32.237" cy="32.791" r="26.803"/><path d="M32.237 64.748C14.616 64.748.28 50.412.28 32.791.28 15.17 14.616.834 32.237.834 49.86.834 64.195 15.17 64.195 32.79c0 17.621-14.336 31.957-31.958 31.957zm0-53.606c-11.936 0-21.648 9.712-21.648 21.649 0 11.937 9.712 21.649 21.648 21.649 11.937 0 21.649-9.712 21.649-21.649 0-11.937-9.712-21.648-21.649-21.648z" fill="#5C65AC"/><circle fill="#FFE6A6" cx="28.114" cy="25.575" r="10.309"/></g><path d="M289.237 88.459a5.154 5.154 0 0 1-5.154-5.155v-23.71a5.154 5.154 0 1 1 10.309 0v23.71a5.154 5.154 0 0 1-5.155 5.155z" fill="#5C65AC"/></g></g></svg>